<?xml version="1.0" encoding="UTF-8" standalone="no"?>
<svg
   data-stacking-context="true"
   aria-owns="w-full1"
   width="542.6666870117188"
   height="542.6666870117188"
   viewBox="1000 402.33331298828125 542.6666870117188 542.6666870117188"
   version="1.1"
   id="svg17"
   sodipodi:docname="Disko.svg"
   inkscape:version="1.4 (86a8ad7, 2024-10-11)"
   inkscape:export-filename="Disko.png"
   inkscape:export-xdpi="200"
   inkscape:export-ydpi="200"
   xmlns:inkscape="http://www.inkscape.org/namespaces/inkscape"
   xmlns:sodipodi="http://sodipodi.sourceforge.net/DTD/sodipodi-0.dtd"
   xmlns="http://www.w3.org/2000/svg"
   xmlns:svg="http://www.w3.org/2000/svg">
  <defs
     id="defs17" />
  <sodipodi:namedview
     id="namedview17"
     pagecolor="#ffffff"
     bordercolor="#000000"
     borderopacity="0.25"
     inkscape:showpageshadow="2"
     inkscape:pageopacity="0.0"
     inkscape:pagecheckerboard="0"
     inkscape:deskcolor="#d1d1d1"
     inkscape:zoom="2.3806217"
     inkscape:cx="271.77775"
     inkscape:cy="261.90638"
     inkscape:window-width="3840"
     inkscape:window-height="2066"
     inkscape:window-x="-11"
     inkscape:window-y="-11"
     inkscape:window-maximized="1"
     inkscape:current-layer="w-full1" />
  <!-- Generated by dom-to-svg from https://www.element-to-svg.com/ -->
  <style
     id="style1">@font-face { font-family: __Montserrat_237071; src: url(&quot;https://www.element-to-svg.com/_next/static/media/3f69592b2fe603c7-s.woff2&quot;) format(&quot;woff2&quot;); font-style: normal; font-weight: 100; font-display: swap; unicode-range: U+460-52F, U+1C80-1C8A, U+20B4, U+2DE0-2DFF, U+A640-A69F, U+FE2E-FE2F; }
@font-face { font-family: __Montserrat_237071; src: url(&quot;https://www.element-to-svg.com/_next/static/media/6325a8417175c41d-s.woff2&quot;) format(&quot;woff2&quot;); font-style: normal; font-weight: 100; font-display: swap; unicode-range: U+301, U+400-45F, U+490-491, U+4B0-4B1, U+2116; }
@font-face { font-family: __Montserrat_237071; src: url(&quot;https://www.element-to-svg.com/_next/static/media/021bc4481ed92ece-s.woff2&quot;) format(&quot;woff2&quot;); font-style: normal; font-weight: 100; font-display: swap; unicode-range: U+102-103, U+110-111, U+128-129, U+168-169, U+1A0-1A1, U+1AF-1B0, U+300-301, U+303-304, U+308-309, U+323, U+329, U+1EA0-1EF9, U+20AB; }
@font-face { font-family: __Montserrat_237071; src: url(&quot;https://www.element-to-svg.com/_next/static/media/99b7f73d5af7c3e2-s.woff2&quot;) format(&quot;woff2&quot;); font-style: normal; font-weight: 100; font-display: swap; unicode-range: U+100-2BA, U+2BD-2C5, U+2C7-2CC, U+2CE-2D7, U+2DD-2FF, U+304, U+308, U+329, U+1D00-1DBF, U+1E00-1E9F, U+1EF2-1EFF, U+2020, U+20A0-20AB, U+20AD-20C0, U+2113, U+2C60-2C7F, U+A720-A7FF; }
@font-face { font-family: __Montserrat_237071; src: url(&quot;https://www.element-to-svg.com/_next/static/media/4f05ba3a6752a328-s.p.woff2&quot;) format(&quot;woff2&quot;); font-style: normal; font-weight: 100; font-display: swap; unicode-range: U+0-FF, U+131, U+152-153, U+2BB-2BC, U+2C6, U+2DA, U+2DC, U+304, U+308, U+329, U+2000-206F, U+20AC, U+2122, U+2191, U+2193, U+2212, U+2215, U+FEFF, U+FFFD; }
@font-face { font-family: __Montserrat_237071; src: url(&quot;https://www.element-to-svg.com/_next/static/media/3f69592b2fe603c7-s.woff2&quot;) format(&quot;woff2&quot;); font-style: normal; font-weight: 200; font-display: swap; unicode-range: U+460-52F, U+1C80-1C8A, U+20B4, U+2DE0-2DFF, U+A640-A69F, U+FE2E-FE2F; }
@font-face { font-family: __Montserrat_237071; src: url(&quot;https://www.element-to-svg.com/_next/static/media/6325a8417175c41d-s.woff2&quot;) format(&quot;woff2&quot;); font-style: normal; font-weight: 200; font-display: swap; unicode-range: U+301, U+400-45F, U+490-491, U+4B0-4B1, U+2116; }
@font-face { font-family: __Montserrat_237071; src: url(&quot;https://www.element-to-svg.com/_next/static/media/021bc4481ed92ece-s.woff2&quot;) format(&quot;woff2&quot;); font-style: normal; font-weight: 200; font-display: swap; unicode-range: U+102-103, U+110-111, U+128-129, U+168-169, U+1A0-1A1, U+1AF-1B0, U+300-301, U+303-304, U+308-309, U+323, U+329, U+1EA0-1EF9, U+20AB; }
@font-face { font-family: __Montserrat_237071; src: url(&quot;https://www.element-to-svg.com/_next/static/media/99b7f73d5af7c3e2-s.woff2&quot;) format(&quot;woff2&quot;); font-style: normal; font-weight: 200; font-display: swap; unicode-range: U+100-2BA, U+2BD-2C5, U+2C7-2CC, U+2CE-2D7, U+2DD-2FF, U+304, U+308, U+329, U+1D00-1DBF, U+1E00-1E9F, U+1EF2-1EFF, U+2020, U+20A0-20AB, U+20AD-20C0, U+2113, U+2C60-2C7F, U+A720-A7FF; }
@font-face { font-family: __Montserrat_237071; src: url(&quot;https://www.element-to-svg.com/_next/static/media/4f05ba3a6752a328-s.p.woff2&quot;) format(&quot;woff2&quot;); font-style: normal; font-weight: 200; font-display: swap; unicode-range: U+0-FF, U+131, U+152-153, U+2BB-2BC, U+2C6, U+2DA, U+2DC, U+304, U+308, U+329, U+2000-206F, U+20AC, U+2122, U+2191, U+2193, U+2212, U+2215, U+FEFF, U+FFFD; }
@font-face { font-family: __Montserrat_237071; src: url(&quot;https://www.element-to-svg.com/_next/static/media/3f69592b2fe603c7-s.woff2&quot;) format(&quot;woff2&quot;); font-style: normal; font-weight: 300; font-display: swap; unicode-range: U+460-52F, U+1C80-1C8A, U+20B4, U+2DE0-2DFF, U+A640-A69F, U+FE2E-FE2F; }
@font-face { font-family: __Montserrat_237071; src: url(&quot;https://www.element-to-svg.com/_next/static/media/6325a8417175c41d-s.woff2&quot;) format(&quot;woff2&quot;); font-style: normal; font-weight: 300; font-display: swap; unicode-range: U+301, U+400-45F, U+490-491, U+4B0-4B1, U+2116; }
@font-face { font-family: __Montserrat_237071; src: url(&quot;https://www.element-to-svg.com/_next/static/media/021bc4481ed92ece-s.woff2&quot;) format(&quot;woff2&quot;); font-style: normal; font-weight: 300; font-display: swap; unicode-range: U+102-103, U+110-111, U+128-129, U+168-169, U+1A0-1A1, U+1AF-1B0, U+300-301, U+303-304, U+308-309, U+323, U+329, U+1EA0-1EF9, U+20AB; }
@font-face { font-family: __Montserrat_237071; src: url(&quot;https://www.element-to-svg.com/_next/static/media/99b7f73d5af7c3e2-s.woff2&quot;) format(&quot;woff2&quot;); font-style: normal; font-weight: 300; font-display: swap; unicode-range: U+100-2BA, U+2BD-2C5, U+2C7-2CC, U+2CE-2D7, U+2DD-2FF, U+304, U+308, U+329, U+1D00-1DBF, U+1E00-1E9F, U+1EF2-1EFF, U+2020, U+20A0-20AB, U+20AD-20C0, U+2113, U+2C60-2C7F, U+A720-A7FF; }
@font-face { font-family: __Montserrat_237071; src: url(&quot;https://www.element-to-svg.com/_next/static/media/4f05ba3a6752a328-s.p.woff2&quot;) format(&quot;woff2&quot;); font-style: normal; font-weight: 300; font-display: swap; unicode-range: U+0-FF, U+131, U+152-153, U+2BB-2BC, U+2C6, U+2DA, U+2DC, U+304, U+308, U+329, U+2000-206F, U+20AC, U+2122, U+2191, U+2193, U+2212, U+2215, U+FEFF, U+FFFD; }
@font-face { font-family: __Montserrat_237071; src: url(&quot;https://www.element-to-svg.com/_next/static/media/3f69592b2fe603c7-s.woff2&quot;) format(&quot;woff2&quot;); font-style: normal; font-weight: 400; font-display: swap; unicode-range: U+460-52F, U+1C80-1C8A, U+20B4, U+2DE0-2DFF, U+A640-A69F, U+FE2E-FE2F; }
@font-face { font-family: __Montserrat_237071; src: url(&quot;https://www.element-to-svg.com/_next/static/media/6325a8417175c41d-s.woff2&quot;) format(&quot;woff2&quot;); font-style: normal; font-weight: 400; font-display: swap; unicode-range: U+301, U+400-45F, U+490-491, U+4B0-4B1, U+2116; }
@font-face { font-family: __Montserrat_237071; src: url(&quot;https://www.element-to-svg.com/_next/static/media/021bc4481ed92ece-s.woff2&quot;) format(&quot;woff2&quot;); font-style: normal; font-weight: 400; font-display: swap; unicode-range: U+102-103, U+110-111, U+128-129, U+168-169, U+1A0-1A1, U+1AF-1B0, U+300-301, U+303-304, U+308-309, U+323, U+329, U+1EA0-1EF9, U+20AB; }
@font-face { font-family: __Montserrat_237071; src: url(&quot;https://www.element-to-svg.com/_next/static/media/99b7f73d5af7c3e2-s.woff2&quot;) format(&quot;woff2&quot;); font-style: normal; font-weight: 400; font-display: swap; unicode-range: U+100-2BA, U+2BD-2C5, U+2C7-2CC, U+2CE-2D7, U+2DD-2FF, U+304, U+308, U+329, U+1D00-1DBF, U+1E00-1E9F, U+1EF2-1EFF, U+2020, U+20A0-20AB, U+20AD-20C0, U+2113, U+2C60-2C7F, U+A720-A7FF; }
@font-face { font-family: __Montserrat_237071; src: url(&quot;https://www.element-to-svg.com/_next/static/media/4f05ba3a6752a328-s.p.woff2&quot;) format(&quot;woff2&quot;); font-style: normal; font-weight: 400; font-display: swap; unicode-range: U+0-FF, U+131, U+152-153, U+2BB-2BC, U+2C6, U+2DA, U+2DC, U+304, U+308, U+329, U+2000-206F, U+20AC, U+2122, U+2191, U+2193, U+2212, U+2215, U+FEFF, U+FFFD; }
@font-face { font-family: __Montserrat_237071; src: url(&quot;https://www.element-to-svg.com/_next/static/media/3f69592b2fe603c7-s.woff2&quot;) format(&quot;woff2&quot;); font-style: normal; font-weight: 500; font-display: swap; unicode-range: U+460-52F, U+1C80-1C8A, U+20B4, U+2DE0-2DFF, U+A640-A69F, U+FE2E-FE2F; }
@font-face { font-family: __Montserrat_237071; src: url(&quot;https://www.element-to-svg.com/_next/static/media/6325a8417175c41d-s.woff2&quot;) format(&quot;woff2&quot;); font-style: normal; font-weight: 500; font-display: swap; unicode-range: U+301, U+400-45F, U+490-491, U+4B0-4B1, U+2116; }
@font-face { font-family: __Montserrat_237071; src: url(&quot;https://www.element-to-svg.com/_next/static/media/021bc4481ed92ece-s.woff2&quot;) format(&quot;woff2&quot;); font-style: normal; font-weight: 500; font-display: swap; unicode-range: U+102-103, U+110-111, U+128-129, U+168-169, U+1A0-1A1, U+1AF-1B0, U+300-301, U+303-304, U+308-309, U+323, U+329, U+1EA0-1EF9, U+20AB; }
@font-face { font-family: __Montserrat_237071; src: url(&quot;https://www.element-to-svg.com/_next/static/media/99b7f73d5af7c3e2-s.woff2&quot;) format(&quot;woff2&quot;); font-style: normal; font-weight: 500; font-display: swap; unicode-range: U+100-2BA, U+2BD-2C5, U+2C7-2CC, U+2CE-2D7, U+2DD-2FF, U+304, U+308, U+329, U+1D00-1DBF, U+1E00-1E9F, U+1EF2-1EFF, U+2020, U+20A0-20AB, U+20AD-20C0, U+2113, U+2C60-2C7F, U+A720-A7FF; }
@font-face { font-family: __Montserrat_237071; src: url(&quot;https://www.element-to-svg.com/_next/static/media/4f05ba3a6752a328-s.p.woff2&quot;) format(&quot;woff2&quot;); font-style: normal; font-weight: 500; font-display: swap; unicode-range: U+0-FF, U+131, U+152-153, U+2BB-2BC, U+2C6, U+2DA, U+2DC, U+304, U+308, U+329, U+2000-206F, U+20AC, U+2122, U+2191, U+2193, U+2212, U+2215, U+FEFF, U+FFFD; }
@font-face { font-family: __Montserrat_237071; src: url(&quot;https://www.element-to-svg.com/_next/static/media/3f69592b2fe603c7-s.woff2&quot;) format(&quot;woff2&quot;); font-style: normal; font-weight: 600; font-display: swap; unicode-range: U+460-52F, U+1C80-1C8A, U+20B4, U+2DE0-2DFF, U+A640-A69F, U+FE2E-FE2F; }
@font-face { font-family: __Montserrat_237071; src: url(&quot;https://www.element-to-svg.com/_next/static/media/6325a8417175c41d-s.woff2&quot;) format(&quot;woff2&quot;); font-style: normal; font-weight: 600; font-display: swap; unicode-range: U+301, U+400-45F, U+490-491, U+4B0-4B1, U+2116; }
@font-face { font-family: __Montserrat_237071; src: url(&quot;https://www.element-to-svg.com/_next/static/media/021bc4481ed92ece-s.woff2&quot;) format(&quot;woff2&quot;); font-style: normal; font-weight: 600; font-display: swap; unicode-range: U+102-103, U+110-111, U+128-129, U+168-169, U+1A0-1A1, U+1AF-1B0, U+300-301, U+303-304, U+308-309, U+323, U+329, U+1EA0-1EF9, U+20AB; }
@font-face { font-family: __Montserrat_237071; src: url(&quot;https://www.element-to-svg.com/_next/static/media/99b7f73d5af7c3e2-s.woff2&quot;) format(&quot;woff2&quot;); font-style: normal; font-weight: 600; font-display: swap; unicode-range: U+100-2BA, U+2BD-2C5, U+2C7-2CC, U+2CE-2D7, U+2DD-2FF, U+304, U+308, U+329, U+1D00-1DBF, U+1E00-1E9F, U+1EF2-1EFF, U+2020, U+20A0-20AB, U+20AD-20C0, U+2113, U+2C60-2C7F, U+A720-A7FF; }
@font-face { font-family: __Montserrat_237071; src: url(&quot;https://www.element-to-svg.com/_next/static/media/4f05ba3a6752a328-s.p.woff2&quot;) format(&quot;woff2&quot;); font-style: normal; font-weight: 600; font-display: swap; unicode-range: U+0-FF, U+131, U+152-153, U+2BB-2BC, U+2C6, U+2DA, U+2DC, U+304, U+308, U+329, U+2000-206F, U+20AC, U+2122, U+2191, U+2193, U+2212, U+2215, U+FEFF, U+FFFD; }
@font-face { font-family: __Montserrat_237071; src: url(&quot;https://www.element-to-svg.com/_next/static/media/3f69592b2fe603c7-s.woff2&quot;) format(&quot;woff2&quot;); font-style: normal; font-weight: 700; font-display: swap; unicode-range: U+460-52F, U+1C80-1C8A, U+20B4, U+2DE0-2DFF, U+A640-A69F, U+FE2E-FE2F; }
@font-face { font-family: __Montserrat_237071; src: url(&quot;https://www.element-to-svg.com/_next/static/media/6325a8417175c41d-s.woff2&quot;) format(&quot;woff2&quot;); font-style: normal; font-weight: 700; font-display: swap; unicode-range: U+301, U+400-45F, U+490-491, U+4B0-4B1, U+2116; }
@font-face { font-family: __Montserrat_237071; src: url(&quot;https://www.element-to-svg.com/_next/static/media/021bc4481ed92ece-s.woff2&quot;) format(&quot;woff2&quot;); font-style: normal; font-weight: 700; font-display: swap; unicode-range: U+102-103, U+110-111, U+128-129, U+168-169, U+1A0-1A1, U+1AF-1B0, U+300-301, U+303-304, U+308-309, U+323, U+329, U+1EA0-1EF9, U+20AB; }
@font-face { font-family: __Montserrat_237071; src: url(&quot;https://www.element-to-svg.com/_next/static/media/99b7f73d5af7c3e2-s.woff2&quot;) format(&quot;woff2&quot;); font-style: normal; font-weight: 700; font-display: swap; unicode-range: U+100-2BA, U+2BD-2C5, U+2C7-2CC, U+2CE-2D7, U+2DD-2FF, U+304, U+308, U+329, U+1D00-1DBF, U+1E00-1E9F, U+1EF2-1EFF, U+2020, U+20A0-20AB, U+20AD-20C0, U+2113, U+2C60-2C7F, U+A720-A7FF; }
@font-face { font-family: __Montserrat_237071; src: url(&quot;https://www.element-to-svg.com/_next/static/media/4f05ba3a6752a328-s.p.woff2&quot;) format(&quot;woff2&quot;); font-style: normal; font-weight: 700; font-display: swap; unicode-range: U+0-FF, U+131, U+152-153, U+2BB-2BC, U+2C6, U+2DA, U+2DC, U+304, U+308, U+329, U+2000-206F, U+20AC, U+2122, U+2191, U+2193, U+2212, U+2215, U+FEFF, U+FFFD; }
@font-face { font-family: __Montserrat_237071; src: url(&quot;https://www.element-to-svg.com/_next/static/media/3f69592b2fe603c7-s.woff2&quot;) format(&quot;woff2&quot;); font-style: normal; font-weight: 800; font-display: swap; unicode-range: U+460-52F, U+1C80-1C8A, U+20B4, U+2DE0-2DFF, U+A640-A69F, U+FE2E-FE2F; }
@font-face { font-family: __Montserrat_237071; src: url(&quot;https://www.element-to-svg.com/_next/static/media/6325a8417175c41d-s.woff2&quot;) format(&quot;woff2&quot;); font-style: normal; font-weight: 800; font-display: swap; unicode-range: U+301, U+400-45F, U+490-491, U+4B0-4B1, U+2116; }
@font-face { font-family: __Montserrat_237071; src: url(&quot;https://www.element-to-svg.com/_next/static/media/021bc4481ed92ece-s.woff2&quot;) format(&quot;woff2&quot;); font-style: normal; font-weight: 800; font-display: swap; unicode-range: U+102-103, U+110-111, U+128-129, U+168-169, U+1A0-1A1, U+1AF-1B0, U+300-301, U+303-304, U+308-309, U+323, U+329, U+1EA0-1EF9, U+20AB; }
@font-face { font-family: __Montserrat_237071; src: url(&quot;https://www.element-to-svg.com/_next/static/media/99b7f73d5af7c3e2-s.woff2&quot;) format(&quot;woff2&quot;); font-style: normal; font-weight: 800; font-display: swap; unicode-range: U+100-2BA, U+2BD-2C5, U+2C7-2CC, U+2CE-2D7, U+2DD-2FF, U+304, U+308, U+329, U+1D00-1DBF, U+1E00-1E9F, U+1EF2-1EFF, U+2020, U+20A0-20AB, U+20AD-20C0, U+2113, U+2C60-2C7F, U+A720-A7FF; }
@font-face { font-family: __Montserrat_237071; src: url(&quot;https://www.element-to-svg.com/_next/static/media/4f05ba3a6752a328-s.p.woff2&quot;) format(&quot;woff2&quot;); font-style: normal; font-weight: 800; font-display: swap; unicode-range: U+0-FF, U+131, U+152-153, U+2BB-2BC, U+2C6, U+2DA, U+2DC, U+304, U+308, U+329, U+2000-206F, U+20AC, U+2122, U+2191, U+2193, U+2212, U+2215, U+FEFF, U+FFFD; }
@font-face { font-family: __Montserrat_237071; src: url(&quot;https://www.element-to-svg.com/_next/static/media/3f69592b2fe603c7-s.woff2&quot;) format(&quot;woff2&quot;); font-style: normal; font-weight: 900; font-display: swap; unicode-range: U+460-52F, U+1C80-1C8A, U+20B4, U+2DE0-2DFF, U+A640-A69F, U+FE2E-FE2F; }
@font-face { font-family: __Montserrat_237071; src: url(&quot;https://www.element-to-svg.com/_next/static/media/6325a8417175c41d-s.woff2&quot;) format(&quot;woff2&quot;); font-style: normal; font-weight: 900; font-display: swap; unicode-range: U+301, U+400-45F, U+490-491, U+4B0-4B1, U+2116; }
@font-face { font-family: __Montserrat_237071; src: url(&quot;https://www.element-to-svg.com/_next/static/media/021bc4481ed92ece-s.woff2&quot;) format(&quot;woff2&quot;); font-style: normal; font-weight: 900; font-display: swap; unicode-range: U+102-103, U+110-111, U+128-129, U+168-169, U+1A0-1A1, U+1AF-1B0, U+300-301, U+303-304, U+308-309, U+323, U+329, U+1EA0-1EF9, U+20AB; }
@font-face { font-family: __Montserrat_237071; src: url(&quot;https://www.element-to-svg.com/_next/static/media/99b7f73d5af7c3e2-s.woff2&quot;) format(&quot;woff2&quot;); font-style: normal; font-weight: 900; font-display: swap; unicode-range: U+100-2BA, U+2BD-2C5, U+2C7-2CC, U+2CE-2D7, U+2DD-2FF, U+304, U+308, U+329, U+1D00-1DBF, U+1E00-1E9F, U+1EF2-1EFF, U+2020, U+20A0-20AB, U+20AD-20C0, U+2113, U+2C60-2C7F, U+A720-A7FF; }
@font-face { font-family: __Montserrat_237071; src: url(&quot;https://www.element-to-svg.com/_next/static/media/4f05ba3a6752a328-s.p.woff2&quot;) format(&quot;woff2&quot;); font-style: normal; font-weight: 900; font-display: swap; unicode-range: U+0-FF, U+131, U+152-153, U+2BB-2BC, U+2C6, U+2DA, U+2DC, U+304, U+308, U+329, U+2000-206F, U+20AC, U+2122, U+2191, U+2193, U+2212, U+2215, U+FEFF, U+FFFD; }
@font-face { font-family: __Montserrat_Fallback_237071; src: local(&quot;Arial&quot;); ascent-override: 85.79%; descent-override: 22.25%; line-gap-override: 0%; size-adjust: 112.83%; }
@font-face { font-family: __Sora_b503b9; src: url(&quot;https://www.element-to-svg.com/_next/static/media/768c27c9cbdc3904-s.woff2&quot;) format(&quot;woff2&quot;); font-style: normal; font-weight: 100; font-display: swap; unicode-range: U+100-2BA, U+2BD-2C5, U+2C7-2CC, U+2CE-2D7, U+2DD-2FF, U+304, U+308, U+329, U+1D00-1DBF, U+1E00-1E9F, U+1EF2-1EFF, U+2020, U+20A0-20AB, U+20AD-20C0, U+2113, U+2C60-2C7F, U+A720-A7FF; }
@font-face { font-family: __Sora_b503b9; src: url(&quot;https://www.element-to-svg.com/_next/static/media/95523e6af433889e-s.p.woff2&quot;) format(&quot;woff2&quot;); font-style: normal; font-weight: 100; font-display: swap; unicode-range: U+0-FF, U+131, U+152-153, U+2BB-2BC, U+2C6, U+2DA, U+2DC, U+304, U+308, U+329, U+2000-206F, U+20AC, U+2122, U+2191, U+2193, U+2212, U+2215, U+FEFF, U+FFFD; }
@font-face { font-family: __Sora_b503b9; src: url(&quot;https://www.element-to-svg.com/_next/static/media/768c27c9cbdc3904-s.woff2&quot;) format(&quot;woff2&quot;); font-style: normal; font-weight: 200; font-display: swap; unicode-range: U+100-2BA, U+2BD-2C5, U+2C7-2CC, U+2CE-2D7, U+2DD-2FF, U+304, U+308, U+329, U+1D00-1DBF, U+1E00-1E9F, U+1EF2-1EFF, U+2020, U+20A0-20AB, U+20AD-20C0, U+2113, U+2C60-2C7F, U+A720-A7FF; }
@font-face { font-family: __Sora_b503b9; src: url(&quot;https://www.element-to-svg.com/_next/static/media/95523e6af433889e-s.p.woff2&quot;) format(&quot;woff2&quot;); font-style: normal; font-weight: 200; font-display: swap; unicode-range: U+0-FF, U+131, U+152-153, U+2BB-2BC, U+2C6, U+2DA, U+2DC, U+304, U+308, U+329, U+2000-206F, U+20AC, U+2122, U+2191, U+2193, U+2212, U+2215, U+FEFF, U+FFFD; }
@font-face { font-family: __Sora_b503b9; src: url(&quot;https://www.element-to-svg.com/_next/static/media/768c27c9cbdc3904-s.woff2&quot;) format(&quot;woff2&quot;); font-style: normal; font-weight: 300; font-display: swap; unicode-range: U+100-2BA, U+2BD-2C5, U+2C7-2CC, U+2CE-2D7, U+2DD-2FF, U+304, U+308, U+329, U+1D00-1DBF, U+1E00-1E9F, U+1EF2-1EFF, U+2020, U+20A0-20AB, U+20AD-20C0, U+2113, U+2C60-2C7F, U+A720-A7FF; }
@font-face { font-family: __Sora_b503b9; src: url(&quot;https://www.element-to-svg.com/_next/static/media/95523e6af433889e-s.p.woff2&quot;) format(&quot;woff2&quot;); font-style: normal; font-weight: 300; font-display: swap; unicode-range: U+0-FF, U+131, U+152-153, U+2BB-2BC, U+2C6, U+2DA, U+2DC, U+304, U+308, U+329, U+2000-206F, U+20AC, U+2122, U+2191, U+2193, U+2212, U+2215, U+FEFF, U+FFFD; }
@font-face { font-family: __Sora_b503b9; src: url(&quot;https://www.element-to-svg.com/_next/static/media/768c27c9cbdc3904-s.woff2&quot;) format(&quot;woff2&quot;); font-style: normal; font-weight: 400; font-display: swap; unicode-range: U+100-2BA, U+2BD-2C5, U+2C7-2CC, U+2CE-2D7, U+2DD-2FF, U+304, U+308, U+329, U+1D00-1DBF, U+1E00-1E9F, U+1EF2-1EFF, U+2020, U+20A0-20AB, U+20AD-20C0, U+2113, U+2C60-2C7F, U+A720-A7FF; }
@font-face { font-family: __Sora_b503b9; src: url(&quot;https://www.element-to-svg.com/_next/static/media/95523e6af433889e-s.p.woff2&quot;) format(&quot;woff2&quot;); font-style: normal; font-weight: 400; font-display: swap; unicode-range: U+0-FF, U+131, U+152-153, U+2BB-2BC, U+2C6, U+2DA, U+2DC, U+304, U+308, U+329, U+2000-206F, U+20AC, U+2122, U+2191, U+2193, U+2212, U+2215, U+FEFF, U+FFFD; }
@font-face { font-family: __Sora_b503b9; src: url(&quot;https://www.element-to-svg.com/_next/static/media/768c27c9cbdc3904-s.woff2&quot;) format(&quot;woff2&quot;); font-style: normal; font-weight: 500; font-display: swap; unicode-range: U+100-2BA, U+2BD-2C5, U+2C7-2CC, U+2CE-2D7, U+2DD-2FF, U+304, U+308, U+329, U+1D00-1DBF, U+1E00-1E9F, U+1EF2-1EFF, U+2020, U+20A0-20AB, U+20AD-20C0, U+2113, U+2C60-2C7F, U+A720-A7FF; }
@font-face { font-family: __Sora_b503b9; src: url(&quot;https://www.element-to-svg.com/_next/static/media/95523e6af433889e-s.p.woff2&quot;) format(&quot;woff2&quot;); font-style: normal; font-weight: 500; font-display: swap; unicode-range: U+0-FF, U+131, U+152-153, U+2BB-2BC, U+2C6, U+2DA, U+2DC, U+304, U+308, U+329, U+2000-206F, U+20AC, U+2122, U+2191, U+2193, U+2212, U+2215, U+FEFF, U+FFFD; }
@font-face { font-family: __Sora_b503b9; src: url(&quot;https://www.element-to-svg.com/_next/static/media/768c27c9cbdc3904-s.woff2&quot;) format(&quot;woff2&quot;); font-style: normal; font-weight: 600; font-display: swap; unicode-range: U+100-2BA, U+2BD-2C5, U+2C7-2CC, U+2CE-2D7, U+2DD-2FF, U+304, U+308, U+329, U+1D00-1DBF, U+1E00-1E9F, U+1EF2-1EFF, U+2020, U+20A0-20AB, U+20AD-20C0, U+2113, U+2C60-2C7F, U+A720-A7FF; }
@font-face { font-family: __Sora_b503b9; src: url(&quot;https://www.element-to-svg.com/_next/static/media/95523e6af433889e-s.p.woff2&quot;) format(&quot;woff2&quot;); font-style: normal; font-weight: 600; font-display: swap; unicode-range: U+0-FF, U+131, U+152-153, U+2BB-2BC, U+2C6, U+2DA, U+2DC, U+304, U+308, U+329, U+2000-206F, U+20AC, U+2122, U+2191, U+2193, U+2212, U+2215, U+FEFF, U+FFFD; }
@font-face { font-family: __Sora_b503b9; src: url(&quot;https://www.element-to-svg.com/_next/static/media/768c27c9cbdc3904-s.woff2&quot;) format(&quot;woff2&quot;); font-style: normal; font-weight: 700; font-display: swap; unicode-range: U+100-2BA, U+2BD-2C5, U+2C7-2CC, U+2CE-2D7, U+2DD-2FF, U+304, U+308, U+329, U+1D00-1DBF, U+1E00-1E9F, U+1EF2-1EFF, U+2020, U+20A0-20AB, U+20AD-20C0, U+2113, U+2C60-2C7F, U+A720-A7FF; }
@font-face { font-family: __Sora_b503b9; src: url(&quot;https://www.element-to-svg.com/_next/static/media/95523e6af433889e-s.p.woff2&quot;) format(&quot;woff2&quot;); font-style: normal; font-weight: 700; font-display: swap; unicode-range: U+0-FF, U+131, U+152-153, U+2BB-2BC, U+2C6, U+2DA, U+2DC, U+304, U+308, U+329, U+2000-206F, U+20AC, U+2122, U+2191, U+2193, U+2212, U+2215, U+FEFF, U+FFFD; }
@font-face { font-family: __Sora_b503b9; src: url(&quot;https://www.element-to-svg.com/_next/static/media/768c27c9cbdc3904-s.woff2&quot;) format(&quot;woff2&quot;); font-style: normal; font-weight: 800; font-display: swap; unicode-range: U+100-2BA, U+2BD-2C5, U+2C7-2CC, U+2CE-2D7, U+2DD-2FF, U+304, U+308, U+329, U+1D00-1DBF, U+1E00-1E9F, U+1EF2-1EFF, U+2020, U+20A0-20AB, U+20AD-20C0, U+2113, U+2C60-2C7F, U+A720-A7FF; }
@font-face { font-family: __Sora_b503b9; src: url(&quot;https://www.element-to-svg.com/_next/static/media/95523e6af433889e-s.p.woff2&quot;) format(&quot;woff2&quot;); font-style: normal; font-weight: 800; font-display: swap; unicode-range: U+0-FF, U+131, U+152-153, U+2BB-2BC, U+2C6, U+2DA, U+2DC, U+304, U+308, U+329, U+2000-206F, U+20AC, U+2122, U+2191, U+2193, U+2212, U+2215, U+FEFF, U+FFFD; }
@font-face { font-family: __Sora_Fallback_b503b9; src: local(&quot;Arial&quot;); ascent-override: 85.29%; descent-override: 25.5%; line-gap-override: 0%; size-adjust: 113.73%; }
</style>
  <g
     data-tag="div"
     id="w-full1"
     class="w-full"
     data-z-index="auto"
     data-stacking-context="true"
     aria-owns="style1 svg1">
    <g
       data-tag="svg"
       id="svg1"
       data-z-index="auto"
       data-stacking-context="true"
       mask="url(#mask-for-svg11)"
       transform="matrix(1.0315543,0,0,1.0320684,-40.116191,-21.603065)">
      <mask
         id="mask-for-svg11">
        <rect
           width="542.66669"
           height="542.66669"
           x="1000"
           y="402.33331"
           fill="#ffffff"
           id="rect15" />
      </mask>
      <ellipse
         style="fill:#f3ff00;fill-opacity:1;stroke:#f3ff00;stroke-width:4.48413;stroke-dasharray:none;stroke-opacity:1"
         id="path22"
         cx="1271.3335"
         cy="673.66632"
         rx="240.09285"
         ry="240.09288" />
      <path
         style="fill:#f3ff00;fill-opacity:1;stroke:#000000;stroke-width:9.92623343;stroke-dasharray:none;stroke-opacity:1"
         d="m 1265.9346,894.03146 c -29.9883,-1.68069 -55.1885,-7.57442 -80.8303,-18.90427 -27.8502,-12.30565 -52.062,-29.72648 -73.5197,-52.89881 -31.5893,-34.11357 -52.1734,-80.04569 -56.7738,-126.6873 -1.1745,-11.90752 -1.3185,-29.51254 -0.3323,-40.63282 4.2228,-47.6204 22.8944,-91.25569 54.4579,-127.26776 4.2424,-4.84028 15.3343,-15.87125 20.4429,-20.33051 32.1411,-28.05581 71.7202,-46.16473 114.1132,-52.21094 11.9516,-1.70457 14.9015,-1.90589 27.5212,-1.87818 12.2018,0.0268 15.8649,0.23882 25.1052,1.45317 21.1281,2.77659 41.5665,8.44734 61.0944,16.9509 5.8378,2.54214 17.3928,8.4998 23.2187,11.97142 12.513,7.45636 24.2993,16.0806 34.8282,25.48425 5.4721,4.88731 17.6256,17.37329 21.8796,22.47805 14.8908,17.86916 27.0363,38.00823 35.4132,58.72061 9.2325,22.82802 14.5836,46.38767 16.0204,70.53432 0.6381,10.72255 0.1032,28.28545 -1.1812,38.79076 -7.9977,65.41131 -44.643,123.9136 -99.8494,159.4043 -27.978,17.98628 -59.8014,29.44541 -92.875,33.44286 -9.8753,1.19356 -22.874,1.90832 -28.7332,1.57995 z m 6.4456,-21.51998 c 2.4021,-2.5576 5.9634,-9.33948 8.5294,-16.24262 4.3859,-11.79922 9.5995,-31.9483 11.2983,-43.66457 l 0.196,-1.3524 -1.9881,-0.2135 c -1.0934,-0.11743 -4.992,-0.1008 -8.6635,0.0369 -3.6714,0.13777 -12.1488,0.20447 -18.8385,0.14825 l -12.1632,-0.10225 0.1874,2.14324 c 0.2176,2.48783 2.6607,14.80697 3.9735,20.03545 3.4555,13.76257 7.3874,25.65649 10.3399,31.27786 2.4373,4.6407 5.3115,8.67404 6.2159,8.72288 0.09,0.005 0.5007,-0.35034 0.9129,-0.78932 z m -28.7937,-5.23327 c 0,-0.12472 -0.7882,-2.57357 -1.7515,-5.44189 -4.496,-13.38727 -7.78,-26.37511 -11.451,-45.28836 -0.7459,-3.84255 -1.4576,-7.1507 -1.5817,-7.35146 -0.1381,-0.22351 -3.0822,-0.79939 -7.5952,-1.48567 -11.69,-1.77772 -19.8964,-3.36533 -33.6358,-6.50721 -5.2304,-1.19608 -6.0949,-1.26634 -6.0949,-0.49554 0,1.12835 5.015,10.61985 9.1492,17.3157 5.8196,9.42585 10.6977,15.89245 17.7011,23.46556 5.7629,6.23166 12.2929,12.3522 16.8299,15.77477 6.9852,5.26928 18.4299,11.4879 18.4299,10.0141 z m 60.0471,-1.64407 c 9.2671,-4.64375 15.0789,-8.7501 22.96,-16.22258 10.5728,-10.02473 19.4526,-21.1266 26.9656,-33.71346 2.8097,-4.70722 7.5722,-14.20119 7.5722,-15.09497 0,-0.9729 -0.1734,-0.95818 -6.6076,0.56062 -11.9622,2.82372 -23.4071,5.02177 -34.6071,6.64654 l -6.5288,0.94709 -0.5154,3.03501 c -3.0447,17.92992 -5.6453,28.79865 -10.931,45.68405 -2.5203,8.05119 -2.9808,10.02849 -2.3356,10.02849 0.1619,0 1.9744,-0.84185 4.0277,-1.87079 z m -109.8144,-8.30018 c 0.2579,-0.41726 -0.2576,-1.15574 -4.7152,-6.75439 -13.8913,-17.44718 -21.9125,-30.52781 -30.1107,-49.10295 -4.2924,-9.72549 -4.5312,-10.22327 -5.2124,-10.86322 -0.3489,-0.32779 -3.827,-1.97436 -7.7291,-3.65906 -21.0774,-9.10007 -36.2022,-18.33884 -53.6871,-32.79399 -2.4083,-1.99092 -4.5055,-3.61987 -4.6605,-3.61987 -1.1704,0 0.052,3.24512 4.7003,12.48009 10.2387,20.34092 22.5119,37.15006 38.8992,53.27548 15.2092,14.96624 31.7417,26.74793 51.0434,36.37535 6.192,3.08854 10.2751,4.93849 10.9392,4.95631 0.1901,0.005 0.4299,-0.1271 0.5329,-0.29375 z m 158.5448,-0.86998 c 2.8839,-1.15037 15.6854,-7.70493 20.3768,-10.43322 7.6281,-4.43615 17.3551,-11.16183 24.5248,-16.95759 23.05,-18.63275 42.5006,-43.43969 55.1279,-70.30909 3.1133,-6.62475 3.3394,-7.26544 2.6566,-7.52749 -0.5275,-0.20239 -1.0936,0.19674 -5.9776,4.21399 -7.0864,5.82882 -18.3047,13.74835 -26.1211,18.44013 -4.9167,2.95122 -18.0486,9.56621 -25.6858,12.93877 -3.6714,1.62133 -7.101,3.20802 -7.6212,3.52597 -1.2366,0.75588 -1.8879,1.92254 -4.6687,8.36395 -4.3379,10.04832 -7.884,17.06838 -13.3412,26.41132 -5.2246,8.94459 -10.2412,15.9853 -18.6058,26.11268 -2.5672,3.10812 -4.6676,5.83452 -4.6676,6.05864 0,0.54466 1.1293,0.30823 4.0029,-0.83806 z m -56.8437,-67.00245 c 0.5812,-0.94083 1.6222,-10.9805 3.3435,-32.24566 2.4167,-29.85533 2.5152,-31.73396 1.6812,-32.06572 -0.2793,-0.11112 -13.6664,-0.27554 -29.749,-0.36538 l -29.2411,-0.16333 v 1.36525 c 0,3.43274 4.7222,54.9386 5.6117,61.20753 l 0.3381,2.38279 2.6121,0.16894 c 1.4367,0.0929 12.1838,0.15821 23.8825,0.14513 17.8851,-0.02 21.3102,-0.0884 21.521,-0.42955 z m 29.0979,-2.95259 c 15.9339,-2.66876 29.0299,-5.79679 42.3338,-10.11159 2.9929,-0.97065 4.7186,-1.68646 5.1201,-2.1237 0.6884,-0.74971 1.2541,-2.53903 4.1545,-13.1396 4.7885,-17.50135 6.4081,-24.51377 8.5688,-37.0991 0.5546,-3.23055 0.6974,-4.68395 0.4814,-4.90001 -0.2161,-0.21604 -1.6689,-0.20682 -4.8979,0.0311 -9.6612,0.71189 -57.1539,4.6716 -57.7634,4.81604 -0.4468,0.10591 -0.6898,0.43603 -0.8042,1.09269 -0.1473,0.84529 -1.1347,12.15438 -4.3593,49.93047 -0.5695,6.67142 -0.9582,12.2548 -0.8638,12.40752 0.2462,0.39832 0.2752,0.39504 8.03,-0.90382 z m -98.9256,0.17702 c 0.1974,-0.51435 -0.6287,-11.23359 -4.1945,-54.43024 -0.3492,-4.23017 -0.7476,-7.83666 -0.8853,-8.01443 -0.1377,-0.17778 -1.5226,-0.41197 -3.0775,-0.52044 -25.4516,-1.77542 -39.9828,-2.94718 -50.8079,-4.09705 -7.3566,-0.78143 -9.2142,-0.8677 -9.4785,-0.4402 -0.2541,0.41126 1.1275,8.99874 2.7802,17.28052 2.3548,11.8 5.3734,23.5686 8.7445,34.09227 l 1.2518,3.90789 5.3627,1.70274 c 11.7793,3.7402 25.5617,7.151 37.7238,9.33574 3.1128,0.55916 6.3126,1.13493 7.1108,1.2795 2.4432,0.44252 5.2823,0.39254 5.4699,-0.0962 z m -81.076,-24.13624 c 0,-0.57823 -0.708,-4.13724 -1.5733,-7.90889 -2.6018,-11.34024 -4.718,-22.69738 -6.4356,-34.53818 -0.2865,-1.97514 -0.6771,-3.74735 -0.868,-3.93824 -0.1909,-0.19089 -5.0958,-1.30098 -10.8998,-2.46687 -17.955,-3.60673 -25.5203,-5.53566 -38.34,-9.77564 -4.5879,-1.51737 -8.4734,-2.67739 -8.6345,-2.57781 -0.5532,0.34192 -0.2876,1.06073 2.1251,5.75022 5.2337,10.17296 9.6538,16.09919 18.8893,25.3258 8.8535,8.84497 16.1628,14.52864 28.0325,21.79776 5.5968,3.42752 16.5776,9.36543 17.3415,9.37745 0.2245,0.004 0.3628,-0.39499 0.3628,-1.0456 z m 259.5296,-1.65161 c 13.7123,-6.98089 27.3047,-16.47347 37.235,-26.00394 8.8922,-8.53406 13.9732,-14.84548 19.1576,-23.79635 2.7134,-4.68469 4.2063,-7.84331 4.2063,-8.89943 0,-0.74789 -0.05,-0.77376 -1.1473,-0.59823 -0.6311,0.10091 -4.1901,1.15049 -7.9089,2.33241 -8.708,2.76756 -13.6146,4.17905 -20.2578,5.82766 -5.3636,1.33105 -19.7825,4.29785 -25.5403,5.25513 -1.6761,0.27867 -3.0931,0.54074 -3.1489,0.58238 -0.056,0.0416 -0.543,3.12104 -1.0826,6.84311 -1.7034,11.74882 -3.6632,21.78513 -6.6702,34.15932 -0.8681,3.5723 -1.5784,6.60887 -1.5784,6.74795 0,0.70081 1.9142,0.005 6.7355,-2.45001 z m -102.2226,-87.60735 v -30.81224 l -14.1489,0.19218 c -7.7819,0.10571 -21.4955,0.19233 -30.4746,0.19252 l -16.3257,3.2e-4 v 30.61972 30.61973 h 30.4746 30.4746 z m -82.1363,0.1925 v -29.74902 h -0.9785 c -1.1294,0 -7.6827,0.54681 -33.124,2.76389 -23.2373,2.025 -30.1129,2.71782 -30.4709,3.07041 -0.4601,0.45314 -0.6823,4.35394 -0.8826,15.49793 -0.2264,12.59633 0.1874,32.02344 0.6887,32.3333 0.1853,0.1145 12.3196,1.28605 26.9651,2.60343 14.6455,1.31738 28.4567,2.56693 30.6915,2.77676 2.2348,0.20984 4.7489,0.39745 5.587,0.41693 l 1.5237,0.0354 z m 114.4044,29.01608 c 4.84,-0.40313 16.3752,-1.44275 25.6337,-2.31028 9.2585,-0.86753 19.1845,-1.79611 22.0578,-2.06351 2.8733,-0.26741 5.389,-0.63796 5.5904,-0.82345 1.3014,-1.19885 0.8748,-46.49316 -0.4504,-47.81841 -0.2914,-0.29132 -4.8173,-0.76718 -20.0871,-2.11194 -10.7874,-0.95002 -36.2727,-3.09448 -41.8663,-3.52285 l -2.5395,-0.19449 v 29.78894 29.78894 h 1.4306 c 0.7869,0 5.3907,-0.32983 10.2308,-0.73295 z m 85.422,-9.99613 c 20.7086,-4.08961 34.5587,-8.2519 43.6802,-13.12697 3.6235,-1.93658 7.5201,-4.47162 7.7353,-5.03232 0.2341,-0.61024 -0.507,-1.35982 -2.9265,-2.95987 -7.3865,-4.88484 -20.3846,-9.75471 -36.9219,-13.83315 -9.4274,-2.32501 -21.2068,-4.504 -21.9304,-4.05679 -0.2281,0.14104 -0.2637,3.09911 -0.1248,10.38342 0.1068,5.60241 0.064,14.46239 -0.094,19.68885 -0.1822,5.99346 -0.1873,9.76953 -0.014,10.22535 0.2249,0.59159 0.4212,0.69624 1.0822,0.57684 0.444,-0.0802 4.7255,-0.91964 9.5144,-1.86536 z m -285.618,1.26304 c 0.099,-0.25783 0.039,-4.99228 -0.1323,-10.521 -0.2273,-7.31877 -0.2232,-12.67198 0.015,-19.68636 0.3344,-9.84013 0.2688,-10.82738 -0.7186,-10.82738 -1.9429,0 -15.6172,2.8406 -23.9519,4.97559 -18.1152,4.64032 -28.0451,8.45968 -35.3525,13.5977 -2.3137,1.62688 -2.6461,2.08341 -2.0476,2.81253 1.4754,1.79757 10.4748,6.60903 16.3581,8.74576 9.1104,3.3088 23.3628,7.13926 35.7337,9.60382 10.1853,2.02915 9.8333,1.98385 10.096,1.29934 z m 331.5029,-48.1134 c 0.3421,-0.89166 -5.2475,-10.88157 -9.2648,-16.55818 -4.8758,-6.88972 -12.3758,-15.08463 -19.2061,-20.98562 -6.548,-5.65711 -15.6237,-12.05225 -24.3797,-17.17895 -4.5315,-2.65329 -13.581,-7.27437 -14.2454,-7.27437 -0.2363,0 -0.4944,0.1688 -0.5735,0.37513 -0.079,0.20631 0.7625,4.28773 1.8706,9.06981 2.9726,12.82964 4.7181,22.15409 6.2959,33.63394 0.3463,2.52014 0.6702,3.90667 0.9863,4.22279 0.3046,0.3045 3.5397,1.116 9.1633,2.29851 17.3234,3.64264 19.5292,4.12688 25.5263,5.60391 3.3738,0.83094 9.8527,2.7693 14.5117,4.34164 4.6292,1.56228 8.5841,2.8437 8.7887,2.84759 0.2045,0.004 0.4415,-0.1744 0.5267,-0.3962 z m -382.9823,-1.49166 c 12.7531,-4.28224 25.1356,-7.45655 42.4844,-10.89107 4.9347,-0.97692 9.2797,-1.89312 9.6555,-2.03599 0.3758,-0.14289 0.8211,-0.62129 0.9896,-1.06314 0.1684,-0.44184 1.0108,-5.04803 1.8719,-10.23596 1.8583,-11.19622 2.6071,-14.94352 5.3553,-26.80175 1.1411,-4.92378 2.0043,-9.1358 1.9183,-9.36006 -0.086,-0.22425 -0.3554,-0.40772 -0.5986,-0.40772 -0.8172,0 -11.8621,5.74395 -17.157,8.9226 -11.4363,6.86542 -19.3785,13.24374 -30.3242,24.35308 -7.6193,7.73319 -11.1056,12.18841 -15.0691,19.25673 -2.1081,3.75962 -4.3602,8.40596 -4.3602,8.99572 0,0.38796 0.2338,0.87225 0.4211,0.87225 0.019,0 2.1846,-0.72211 4.813,-1.60469 z m 305.9876,-15.68341 c 0.2852,-0.10945 0.477,-0.41112 0.4262,-0.67039 -0.072,-0.36789 -0.4491,-0.47139 -1.717,-0.47139 h -1.6245 l -0.9278,-5.51445 c -2.7165,-16.14511 -6.2245,-30.8545 -10.7634,-45.13144 l -1.4302,-4.49864 -4.8697,-1.5158 c -14.1796,-4.4137 -28.567,-7.82361 -43.7612,-10.37175 -2.3944,-0.40156 -5.0065,-0.76445 -5.8047,-0.80643 -1.3828,-0.0727 -1.4495,-0.0422 -1.4156,0.64925 0.02,0.39908 1.195,14.71519 2.6121,31.81359 l 2.5766,31.088 3.773,0.19511 c 20.4874,1.05939 57.108,4.36669 58.3317,5.26808 0.5927,0.43658 3.423,0.41579 4.5945,-0.0337 z m -213.6727,-1.71482 c 24.0843,-1.9811 42.3192,-3.65026 44.859,-4.10627 0.6232,-0.11189 0.9697,-0.36775 1.077,-0.79533 0.3092,-1.23183 5.4065,-62.05823 5.2252,-62.35166 -0.2179,-0.35257 -1.1915,-0.24317 -8.527,0.95808 -10.1383,1.66026 -21.0478,4.02915 -30.7477,6.67661 -6.1588,1.68096 -14.4595,4.17012 -15.5247,4.65544 -0.7594,0.34601 -1.3505,1.67416 -2.8869,6.48656 -1.0729,3.36037 -3.7502,12.96306 -4.9767,17.84942 -2.0883,8.3199 -6.2157,30.50485 -5.8518,31.45322 0.1,0.2599 0.4929,0.47256 0.8737,0.47256 0.3808,0 7.7967,-0.58439 16.4799,-1.29863 z m 126.0908,-4.85875 c 0.3526,-0.35276 -4.8762,-60.45511 -5.5534,-63.83449 -0.096,-0.47742 -0.3967,-0.83112 -0.7905,-0.92894 -1.9995,-0.4967 -22.6053,-0.80887 -34.1801,-0.51781 -6.7964,0.17089 -12.5521,0.38554 -12.7904,0.47699 -0.4878,0.18718 -0.4343,-0.33799 -3.7428,36.71397 -1.1189,12.53087 -2.0638,23.95884 -2.0996,25.39551 l -0.065,2.61211 2.0316,0.17381 c 2.8792,0.24633 56.9393,0.16016 57.1904,-0.0912 z m -209.3936,-28.55318 c 8.3743,-7.14672 20.2265,-15.50566 30.595,-21.57758 5.2197,-3.05672 18.0738,-9.40645 25.6259,-12.65877 3.6969,-1.59207 6.0887,-2.78919 6.4237,-3.2151 0.2936,-0.37322 1.745,-3.52111 3.2255,-6.9953 8.7845,-20.61449 16.3086,-33.01962 31.5141,-51.95786 2.6564,-3.3085 4.9659,-6.31401 5.1321,-6.67891 0.8819,-1.93549 -1.4015,-1.15313 -11.8047,4.04471 -20.6675,10.32629 -37.3489,22.48541 -53.7393,39.1708 -15.0396,15.31027 -26.689,31.61948 -36.3238,50.85338 -4.3897,8.76329 -5.675,12.08964 -4.6715,12.08964 0.2309,0 2.0413,-1.38375 4.023,-3.07501 z m 363.8302,2.33398 c 0.4461,-1.16254 -7.08,-16.21162 -13.0556,-26.10565 -9.1556,-15.15944 -21.6701,-30.56471 -34.3785,-42.31945 -14.9361,-13.81544 -29.6148,-23.96222 -47.9158,-33.12236 -8.4106,-4.20973 -11.6575,-5.44949 -11.6419,-4.4452 0,0.19954 1.6456,2.32188 3.6501,4.71631 13.6143,16.26258 24.1916,33.47476 32.4808,52.85554 2.4101,5.63491 3.4816,7.85505 4.1665,8.63296 0.6347,0.72077 2.2376,1.51152 8.6854,4.28465 18.5027,7.95777 34.0945,17.30528 49.0651,29.4153 8.6503,6.99731 8.6064,6.96743 8.9439,6.0879 z m -93.992,-49.08913 c 0.1981,-1.38487 -7.0328,-14.47437 -12.7961,-23.16378 -6.0784,-9.16449 -11.301,-15.61725 -18.3352,-22.65387 -6.752,-6.75438 -12.46,-11.263 -20.2045,-15.95906 -2.8041,-1.70034 -9.9204,-5.35758 -10.4249,-5.35758 -0.5488,0 -0.298,1.08413 1.7333,7.49265 5.3946,17.01954 8.4537,29.27656 10.8791,43.5886 0.5816,3.43202 1.1694,6.51533 1.3062,6.85178 0.2937,0.72237 0.3069,0.72544 8.1351,1.88097 11.1535,1.64639 21.4666,3.72635 33.6672,6.79003 2.7935,0.70148 5.275,1.24939 5.5144,1.21759 0.2394,-0.0318 0.4759,-0.34111 0.5254,-0.68733 z m -172.6712,-1.12598 c 11.6189,-2.73862 25.6716,-5.3816 37.0618,-6.97046 l 3.5029,-0.48863 0.3605,-2.50048 c 0.4866,-3.37461 3.0059,-16.12381 4.4227,-22.38155 2.1857,-9.65452 3.4528,-14.16942 7.1171,-25.36047 1.3527,-4.13107 2.3907,-7.69007 2.3068,-7.90888 -0.2639,-0.68754 -0.9373,-0.45812 -5.4744,1.86506 -10.1983,5.22195 -17.3374,10.66505 -26.7674,20.40849 -11.5616,11.9459 -20.6179,24.77504 -27.8755,39.48839 -1.9902,4.03481 -2.4355,5.46483 -1.7018,5.46483 0.1045,0 3.2758,-0.72734 7.0473,-1.6163 z m 103.6505,-9.72512 c 0,-1.42083 -3.8532,-19.02897 -5.8382,-26.67928 -4.6741,-18.01351 -9.1268,-28.84232 -14.4344,-35.10336 l -0.8484,-1.00082 -2.1078,3.17758 c -6.2599,9.43717 -12.4462,27.62456 -16.9565,49.8514 -0.5794,2.85509 -1.6049,8.90906 -1.6069,9.48652 -10e-4,0.38297 2.5131,0.43535 20.8953,0.43535 11.4933,0 20.8969,-0.0753 20.8969,-0.16739 z"
         id="path21" />
    </g>
  </g>
</svg>
