<?xml version="1.0" encoding="UTF-8" standalone="no"?>
<svg
   data-stacking-context="true"
   aria-owns="w-full1"
   width="542.6666870117188"
   height="171.83334350585938"
   viewBox="1000 714.3333129882812 542.6666870117188 171.83334350585938"
   version="1.1"
   id="svg48"
   xmlns="http://www.w3.org/2000/svg"
   xmlns:svg="http://www.w3.org/2000/svg">
  <defs
     id="defs48" />
  <!-- Generated by dom-to-svg from https://www.element-to-svg.com/ -->
  <style
     id="style1">@font-face { font-family: __Montserrat_237071; src: url(&quot;https://www.element-to-svg.com/_next/static/media/3f69592b2fe603c7-s.woff2&quot;) format(&quot;woff2&quot;); font-style: normal; font-weight: 100; font-display: swap; unicode-range: U+460-52F, U+1C80-1C8A, U+20B4, U+2DE0-2DFF, U+A640-A69F, U+FE2E-FE2F; }
@font-face { font-family: __Montserrat_237071; src: url(&quot;https://www.element-to-svg.com/_next/static/media/6325a8417175c41d-s.woff2&quot;) format(&quot;woff2&quot;); font-style: normal; font-weight: 100; font-display: swap; unicode-range: U+301, U+400-45F, U+490-491, U+4B0-4B1, U+2116; }
@font-face { font-family: __Montserrat_237071; src: url(&quot;https://www.element-to-svg.com/_next/static/media/021bc4481ed92ece-s.woff2&quot;) format(&quot;woff2&quot;); font-style: normal; font-weight: 100; font-display: swap; unicode-range: U+102-103, U+110-111, U+128-129, U+168-169, U+1A0-1A1, U+1AF-1B0, U+300-301, U+303-304, U+308-309, U+323, U+329, U+1EA0-1EF9, U+20AB; }
@font-face { font-family: __Montserrat_237071; src: url(&quot;https://www.element-to-svg.com/_next/static/media/99b7f73d5af7c3e2-s.woff2&quot;) format(&quot;woff2&quot;); font-style: normal; font-weight: 100; font-display: swap; unicode-range: U+100-2BA, U+2BD-2C5, U+2C7-2CC, U+2CE-2D7, U+2DD-2FF, U+304, U+308, U+329, U+1D00-1DBF, U+1E00-1E9F, U+1EF2-1EFF, U+2020, U+20A0-20AB, U+20AD-20C0, U+2113, U+2C60-2C7F, U+A720-A7FF; }
@font-face { font-family: __Montserrat_237071; src: url(&quot;https://www.element-to-svg.com/_next/static/media/4f05ba3a6752a328-s.p.woff2&quot;) format(&quot;woff2&quot;); font-style: normal; font-weight: 100; font-display: swap; unicode-range: U+0-FF, U+131, U+152-153, U+2BB-2BC, U+2C6, U+2DA, U+2DC, U+304, U+308, U+329, U+2000-206F, U+20AC, U+2122, U+2191, U+2193, U+2212, U+2215, U+FEFF, U+FFFD; }
@font-face { font-family: __Montserrat_237071; src: url(&quot;https://www.element-to-svg.com/_next/static/media/3f69592b2fe603c7-s.woff2&quot;) format(&quot;woff2&quot;); font-style: normal; font-weight: 200; font-display: swap; unicode-range: U+460-52F, U+1C80-1C8A, U+20B4, U+2DE0-2DFF, U+A640-A69F, U+FE2E-FE2F; }
@font-face { font-family: __Montserrat_237071; src: url(&quot;https://www.element-to-svg.com/_next/static/media/6325a8417175c41d-s.woff2&quot;) format(&quot;woff2&quot;); font-style: normal; font-weight: 200; font-display: swap; unicode-range: U+301, U+400-45F, U+490-491, U+4B0-4B1, U+2116; }
@font-face { font-family: __Montserrat_237071; src: url(&quot;https://www.element-to-svg.com/_next/static/media/021bc4481ed92ece-s.woff2&quot;) format(&quot;woff2&quot;); font-style: normal; font-weight: 200; font-display: swap; unicode-range: U+102-103, U+110-111, U+128-129, U+168-169, U+1A0-1A1, U+1AF-1B0, U+300-301, U+303-304, U+308-309, U+323, U+329, U+1EA0-1EF9, U+20AB; }
@font-face { font-family: __Montserrat_237071; src: url(&quot;https://www.element-to-svg.com/_next/static/media/99b7f73d5af7c3e2-s.woff2&quot;) format(&quot;woff2&quot;); font-style: normal; font-weight: 200; font-display: swap; unicode-range: U+100-2BA, U+2BD-2C5, U+2C7-2CC, U+2CE-2D7, U+2DD-2FF, U+304, U+308, U+329, U+1D00-1DBF, U+1E00-1E9F, U+1EF2-1EFF, U+2020, U+20A0-20AB, U+20AD-20C0, U+2113, U+2C60-2C7F, U+A720-A7FF; }
@font-face { font-family: __Montserrat_237071; src: url(&quot;https://www.element-to-svg.com/_next/static/media/4f05ba3a6752a328-s.p.woff2&quot;) format(&quot;woff2&quot;); font-style: normal; font-weight: 200; font-display: swap; unicode-range: U+0-FF, U+131, U+152-153, U+2BB-2BC, U+2C6, U+2DA, U+2DC, U+304, U+308, U+329, U+2000-206F, U+20AC, U+2122, U+2191, U+2193, U+2212, U+2215, U+FEFF, U+FFFD; }
@font-face { font-family: __Montserrat_237071; src: url(&quot;https://www.element-to-svg.com/_next/static/media/3f69592b2fe603c7-s.woff2&quot;) format(&quot;woff2&quot;); font-style: normal; font-weight: 300; font-display: swap; unicode-range: U+460-52F, U+1C80-1C8A, U+20B4, U+2DE0-2DFF, U+A640-A69F, U+FE2E-FE2F; }
@font-face { font-family: __Montserrat_237071; src: url(&quot;https://www.element-to-svg.com/_next/static/media/6325a8417175c41d-s.woff2&quot;) format(&quot;woff2&quot;); font-style: normal; font-weight: 300; font-display: swap; unicode-range: U+301, U+400-45F, U+490-491, U+4B0-4B1, U+2116; }
@font-face { font-family: __Montserrat_237071; src: url(&quot;https://www.element-to-svg.com/_next/static/media/021bc4481ed92ece-s.woff2&quot;) format(&quot;woff2&quot;); font-style: normal; font-weight: 300; font-display: swap; unicode-range: U+102-103, U+110-111, U+128-129, U+168-169, U+1A0-1A1, U+1AF-1B0, U+300-301, U+303-304, U+308-309, U+323, U+329, U+1EA0-1EF9, U+20AB; }
@font-face { font-family: __Montserrat_237071; src: url(&quot;https://www.element-to-svg.com/_next/static/media/99b7f73d5af7c3e2-s.woff2&quot;) format(&quot;woff2&quot;); font-style: normal; font-weight: 300; font-display: swap; unicode-range: U+100-2BA, U+2BD-2C5, U+2C7-2CC, U+2CE-2D7, U+2DD-2FF, U+304, U+308, U+329, U+1D00-1DBF, U+1E00-1E9F, U+1EF2-1EFF, U+2020, U+20A0-20AB, U+20AD-20C0, U+2113, U+2C60-2C7F, U+A720-A7FF; }
@font-face { font-family: __Montserrat_237071; src: url(&quot;https://www.element-to-svg.com/_next/static/media/4f05ba3a6752a328-s.p.woff2&quot;) format(&quot;woff2&quot;); font-style: normal; font-weight: 300; font-display: swap; unicode-range: U+0-FF, U+131, U+152-153, U+2BB-2BC, U+2C6, U+2DA, U+2DC, U+304, U+308, U+329, U+2000-206F, U+20AC, U+2122, U+2191, U+2193, U+2212, U+2215, U+FEFF, U+FFFD; }
@font-face { font-family: __Montserrat_237071; src: url(&quot;https://www.element-to-svg.com/_next/static/media/3f69592b2fe603c7-s.woff2&quot;) format(&quot;woff2&quot;); font-style: normal; font-weight: 400; font-display: swap; unicode-range: U+460-52F, U+1C80-1C8A, U+20B4, U+2DE0-2DFF, U+A640-A69F, U+FE2E-FE2F; }
@font-face { font-family: __Montserrat_237071; src: url(&quot;https://www.element-to-svg.com/_next/static/media/6325a8417175c41d-s.woff2&quot;) format(&quot;woff2&quot;); font-style: normal; font-weight: 400; font-display: swap; unicode-range: U+301, U+400-45F, U+490-491, U+4B0-4B1, U+2116; }
@font-face { font-family: __Montserrat_237071; src: url(&quot;https://www.element-to-svg.com/_next/static/media/021bc4481ed92ece-s.woff2&quot;) format(&quot;woff2&quot;); font-style: normal; font-weight: 400; font-display: swap; unicode-range: U+102-103, U+110-111, U+128-129, U+168-169, U+1A0-1A1, U+1AF-1B0, U+300-301, U+303-304, U+308-309, U+323, U+329, U+1EA0-1EF9, U+20AB; }
@font-face { font-family: __Montserrat_237071; src: url(&quot;https://www.element-to-svg.com/_next/static/media/99b7f73d5af7c3e2-s.woff2&quot;) format(&quot;woff2&quot;); font-style: normal; font-weight: 400; font-display: swap; unicode-range: U+100-2BA, U+2BD-2C5, U+2C7-2CC, U+2CE-2D7, U+2DD-2FF, U+304, U+308, U+329, U+1D00-1DBF, U+1E00-1E9F, U+1EF2-1EFF, U+2020, U+20A0-20AB, U+20AD-20C0, U+2113, U+2C60-2C7F, U+A720-A7FF; }
@font-face { font-family: __Montserrat_237071; src: url(&quot;https://www.element-to-svg.com/_next/static/media/4f05ba3a6752a328-s.p.woff2&quot;) format(&quot;woff2&quot;); font-style: normal; font-weight: 400; font-display: swap; unicode-range: U+0-FF, U+131, U+152-153, U+2BB-2BC, U+2C6, U+2DA, U+2DC, U+304, U+308, U+329, U+2000-206F, U+20AC, U+2122, U+2191, U+2193, U+2212, U+2215, U+FEFF, U+FFFD; }
@font-face { font-family: __Montserrat_237071; src: url(&quot;https://www.element-to-svg.com/_next/static/media/3f69592b2fe603c7-s.woff2&quot;) format(&quot;woff2&quot;); font-style: normal; font-weight: 500; font-display: swap; unicode-range: U+460-52F, U+1C80-1C8A, U+20B4, U+2DE0-2DFF, U+A640-A69F, U+FE2E-FE2F; }
@font-face { font-family: __Montserrat_237071; src: url(&quot;https://www.element-to-svg.com/_next/static/media/6325a8417175c41d-s.woff2&quot;) format(&quot;woff2&quot;); font-style: normal; font-weight: 500; font-display: swap; unicode-range: U+301, U+400-45F, U+490-491, U+4B0-4B1, U+2116; }
@font-face { font-family: __Montserrat_237071; src: url(&quot;https://www.element-to-svg.com/_next/static/media/021bc4481ed92ece-s.woff2&quot;) format(&quot;woff2&quot;); font-style: normal; font-weight: 500; font-display: swap; unicode-range: U+102-103, U+110-111, U+128-129, U+168-169, U+1A0-1A1, U+1AF-1B0, U+300-301, U+303-304, U+308-309, U+323, U+329, U+1EA0-1EF9, U+20AB; }
@font-face { font-family: __Montserrat_237071; src: url(&quot;https://www.element-to-svg.com/_next/static/media/99b7f73d5af7c3e2-s.woff2&quot;) format(&quot;woff2&quot;); font-style: normal; font-weight: 500; font-display: swap; unicode-range: U+100-2BA, U+2BD-2C5, U+2C7-2CC, U+2CE-2D7, U+2DD-2FF, U+304, U+308, U+329, U+1D00-1DBF, U+1E00-1E9F, U+1EF2-1EFF, U+2020, U+20A0-20AB, U+20AD-20C0, U+2113, U+2C60-2C7F, U+A720-A7FF; }
@font-face { font-family: __Montserrat_237071; src: url(&quot;https://www.element-to-svg.com/_next/static/media/4f05ba3a6752a328-s.p.woff2&quot;) format(&quot;woff2&quot;); font-style: normal; font-weight: 500; font-display: swap; unicode-range: U+0-FF, U+131, U+152-153, U+2BB-2BC, U+2C6, U+2DA, U+2DC, U+304, U+308, U+329, U+2000-206F, U+20AC, U+2122, U+2191, U+2193, U+2212, U+2215, U+FEFF, U+FFFD; }
@font-face { font-family: __Montserrat_237071; src: url(&quot;https://www.element-to-svg.com/_next/static/media/3f69592b2fe603c7-s.woff2&quot;) format(&quot;woff2&quot;); font-style: normal; font-weight: 600; font-display: swap; unicode-range: U+460-52F, U+1C80-1C8A, U+20B4, U+2DE0-2DFF, U+A640-A69F, U+FE2E-FE2F; }
@font-face { font-family: __Montserrat_237071; src: url(&quot;https://www.element-to-svg.com/_next/static/media/6325a8417175c41d-s.woff2&quot;) format(&quot;woff2&quot;); font-style: normal; font-weight: 600; font-display: swap; unicode-range: U+301, U+400-45F, U+490-491, U+4B0-4B1, U+2116; }
@font-face { font-family: __Montserrat_237071; src: url(&quot;https://www.element-to-svg.com/_next/static/media/021bc4481ed92ece-s.woff2&quot;) format(&quot;woff2&quot;); font-style: normal; font-weight: 600; font-display: swap; unicode-range: U+102-103, U+110-111, U+128-129, U+168-169, U+1A0-1A1, U+1AF-1B0, U+300-301, U+303-304, U+308-309, U+323, U+329, U+1EA0-1EF9, U+20AB; }
@font-face { font-family: __Montserrat_237071; src: url(&quot;https://www.element-to-svg.com/_next/static/media/99b7f73d5af7c3e2-s.woff2&quot;) format(&quot;woff2&quot;); font-style: normal; font-weight: 600; font-display: swap; unicode-range: U+100-2BA, U+2BD-2C5, U+2C7-2CC, U+2CE-2D7, U+2DD-2FF, U+304, U+308, U+329, U+1D00-1DBF, U+1E00-1E9F, U+1EF2-1EFF, U+2020, U+20A0-20AB, U+20AD-20C0, U+2113, U+2C60-2C7F, U+A720-A7FF; }
@font-face { font-family: __Montserrat_237071; src: url(&quot;https://www.element-to-svg.com/_next/static/media/4f05ba3a6752a328-s.p.woff2&quot;) format(&quot;woff2&quot;); font-style: normal; font-weight: 600; font-display: swap; unicode-range: U+0-FF, U+131, U+152-153, U+2BB-2BC, U+2C6, U+2DA, U+2DC, U+304, U+308, U+329, U+2000-206F, U+20AC, U+2122, U+2191, U+2193, U+2212, U+2215, U+FEFF, U+FFFD; }
@font-face { font-family: __Montserrat_237071; src: url(&quot;https://www.element-to-svg.com/_next/static/media/3f69592b2fe603c7-s.woff2&quot;) format(&quot;woff2&quot;); font-style: normal; font-weight: 700; font-display: swap; unicode-range: U+460-52F, U+1C80-1C8A, U+20B4, U+2DE0-2DFF, U+A640-A69F, U+FE2E-FE2F; }
@font-face { font-family: __Montserrat_237071; src: url(&quot;https://www.element-to-svg.com/_next/static/media/6325a8417175c41d-s.woff2&quot;) format(&quot;woff2&quot;); font-style: normal; font-weight: 700; font-display: swap; unicode-range: U+301, U+400-45F, U+490-491, U+4B0-4B1, U+2116; }
@font-face { font-family: __Montserrat_237071; src: url(&quot;https://www.element-to-svg.com/_next/static/media/021bc4481ed92ece-s.woff2&quot;) format(&quot;woff2&quot;); font-style: normal; font-weight: 700; font-display: swap; unicode-range: U+102-103, U+110-111, U+128-129, U+168-169, U+1A0-1A1, U+1AF-1B0, U+300-301, U+303-304, U+308-309, U+323, U+329, U+1EA0-1EF9, U+20AB; }
@font-face { font-family: __Montserrat_237071; src: url(&quot;https://www.element-to-svg.com/_next/static/media/99b7f73d5af7c3e2-s.woff2&quot;) format(&quot;woff2&quot;); font-style: normal; font-weight: 700; font-display: swap; unicode-range: U+100-2BA, U+2BD-2C5, U+2C7-2CC, U+2CE-2D7, U+2DD-2FF, U+304, U+308, U+329, U+1D00-1DBF, U+1E00-1E9F, U+1EF2-1EFF, U+2020, U+20A0-20AB, U+20AD-20C0, U+2113, U+2C60-2C7F, U+A720-A7FF; }
@font-face { font-family: __Montserrat_237071; src: url(&quot;https://www.element-to-svg.com/_next/static/media/4f05ba3a6752a328-s.p.woff2&quot;) format(&quot;woff2&quot;); font-style: normal; font-weight: 700; font-display: swap; unicode-range: U+0-FF, U+131, U+152-153, U+2BB-2BC, U+2C6, U+2DA, U+2DC, U+304, U+308, U+329, U+2000-206F, U+20AC, U+2122, U+2191, U+2193, U+2212, U+2215, U+FEFF, U+FFFD; }
@font-face { font-family: __Montserrat_237071; src: url(&quot;https://www.element-to-svg.com/_next/static/media/3f69592b2fe603c7-s.woff2&quot;) format(&quot;woff2&quot;); font-style: normal; font-weight: 800; font-display: swap; unicode-range: U+460-52F, U+1C80-1C8A, U+20B4, U+2DE0-2DFF, U+A640-A69F, U+FE2E-FE2F; }
@font-face { font-family: __Montserrat_237071; src: url(&quot;https://www.element-to-svg.com/_next/static/media/6325a8417175c41d-s.woff2&quot;) format(&quot;woff2&quot;); font-style: normal; font-weight: 800; font-display: swap; unicode-range: U+301, U+400-45F, U+490-491, U+4B0-4B1, U+2116; }
@font-face { font-family: __Montserrat_237071; src: url(&quot;https://www.element-to-svg.com/_next/static/media/021bc4481ed92ece-s.woff2&quot;) format(&quot;woff2&quot;); font-style: normal; font-weight: 800; font-display: swap; unicode-range: U+102-103, U+110-111, U+128-129, U+168-169, U+1A0-1A1, U+1AF-1B0, U+300-301, U+303-304, U+308-309, U+323, U+329, U+1EA0-1EF9, U+20AB; }
@font-face { font-family: __Montserrat_237071; src: url(&quot;https://www.element-to-svg.com/_next/static/media/99b7f73d5af7c3e2-s.woff2&quot;) format(&quot;woff2&quot;); font-style: normal; font-weight: 800; font-display: swap; unicode-range: U+100-2BA, U+2BD-2C5, U+2C7-2CC, U+2CE-2D7, U+2DD-2FF, U+304, U+308, U+329, U+1D00-1DBF, U+1E00-1E9F, U+1EF2-1EFF, U+2020, U+20A0-20AB, U+20AD-20C0, U+2113, U+2C60-2C7F, U+A720-A7FF; }
@font-face { font-family: __Montserrat_237071; src: url(&quot;https://www.element-to-svg.com/_next/static/media/4f05ba3a6752a328-s.p.woff2&quot;) format(&quot;woff2&quot;); font-style: normal; font-weight: 800; font-display: swap; unicode-range: U+0-FF, U+131, U+152-153, U+2BB-2BC, U+2C6, U+2DA, U+2DC, U+304, U+308, U+329, U+2000-206F, U+20AC, U+2122, U+2191, U+2193, U+2212, U+2215, U+FEFF, U+FFFD; }
@font-face { font-family: __Montserrat_237071; src: url(&quot;https://www.element-to-svg.com/_next/static/media/3f69592b2fe603c7-s.woff2&quot;) format(&quot;woff2&quot;); font-style: normal; font-weight: 900; font-display: swap; unicode-range: U+460-52F, U+1C80-1C8A, U+20B4, U+2DE0-2DFF, U+A640-A69F, U+FE2E-FE2F; }
@font-face { font-family: __Montserrat_237071; src: url(&quot;https://www.element-to-svg.com/_next/static/media/6325a8417175c41d-s.woff2&quot;) format(&quot;woff2&quot;); font-style: normal; font-weight: 900; font-display: swap; unicode-range: U+301, U+400-45F, U+490-491, U+4B0-4B1, U+2116; }
@font-face { font-family: __Montserrat_237071; src: url(&quot;https://www.element-to-svg.com/_next/static/media/021bc4481ed92ece-s.woff2&quot;) format(&quot;woff2&quot;); font-style: normal; font-weight: 900; font-display: swap; unicode-range: U+102-103, U+110-111, U+128-129, U+168-169, U+1A0-1A1, U+1AF-1B0, U+300-301, U+303-304, U+308-309, U+323, U+329, U+1EA0-1EF9, U+20AB; }
@font-face { font-family: __Montserrat_237071; src: url(&quot;https://www.element-to-svg.com/_next/static/media/99b7f73d5af7c3e2-s.woff2&quot;) format(&quot;woff2&quot;); font-style: normal; font-weight: 900; font-display: swap; unicode-range: U+100-2BA, U+2BD-2C5, U+2C7-2CC, U+2CE-2D7, U+2DD-2FF, U+304, U+308, U+329, U+1D00-1DBF, U+1E00-1E9F, U+1EF2-1EFF, U+2020, U+20A0-20AB, U+20AD-20C0, U+2113, U+2C60-2C7F, U+A720-A7FF; }
@font-face { font-family: __Montserrat_237071; src: url(&quot;https://www.element-to-svg.com/_next/static/media/4f05ba3a6752a328-s.p.woff2&quot;) format(&quot;woff2&quot;); font-style: normal; font-weight: 900; font-display: swap; unicode-range: U+0-FF, U+131, U+152-153, U+2BB-2BC, U+2C6, U+2DA, U+2DC, U+304, U+308, U+329, U+2000-206F, U+20AC, U+2122, U+2191, U+2193, U+2212, U+2215, U+FEFF, U+FFFD; }
@font-face { font-family: __Montserrat_Fallback_237071; src: local(&quot;Arial&quot;); ascent-override: 85.79%; descent-override: 22.25%; line-gap-override: 0%; size-adjust: 112.83%; }
@font-face { font-family: __Sora_b503b9; src: url(&quot;https://www.element-to-svg.com/_next/static/media/768c27c9cbdc3904-s.woff2&quot;) format(&quot;woff2&quot;); font-style: normal; font-weight: 100; font-display: swap; unicode-range: U+100-2BA, U+2BD-2C5, U+2C7-2CC, U+2CE-2D7, U+2DD-2FF, U+304, U+308, U+329, U+1D00-1DBF, U+1E00-1E9F, U+1EF2-1EFF, U+2020, U+20A0-20AB, U+20AD-20C0, U+2113, U+2C60-2C7F, U+A720-A7FF; }
@font-face { font-family: __Sora_b503b9; src: url(&quot;https://www.element-to-svg.com/_next/static/media/95523e6af433889e-s.p.woff2&quot;) format(&quot;woff2&quot;); font-style: normal; font-weight: 100; font-display: swap; unicode-range: U+0-FF, U+131, U+152-153, U+2BB-2BC, U+2C6, U+2DA, U+2DC, U+304, U+308, U+329, U+2000-206F, U+20AC, U+2122, U+2191, U+2193, U+2212, U+2215, U+FEFF, U+FFFD; }
@font-face { font-family: __Sora_b503b9; src: url(&quot;https://www.element-to-svg.com/_next/static/media/768c27c9cbdc3904-s.woff2&quot;) format(&quot;woff2&quot;); font-style: normal; font-weight: 200; font-display: swap; unicode-range: U+100-2BA, U+2BD-2C5, U+2C7-2CC, U+2CE-2D7, U+2DD-2FF, U+304, U+308, U+329, U+1D00-1DBF, U+1E00-1E9F, U+1EF2-1EFF, U+2020, U+20A0-20AB, U+20AD-20C0, U+2113, U+2C60-2C7F, U+A720-A7FF; }
@font-face { font-family: __Sora_b503b9; src: url(&quot;https://www.element-to-svg.com/_next/static/media/95523e6af433889e-s.p.woff2&quot;) format(&quot;woff2&quot;); font-style: normal; font-weight: 200; font-display: swap; unicode-range: U+0-FF, U+131, U+152-153, U+2BB-2BC, U+2C6, U+2DA, U+2DC, U+304, U+308, U+329, U+2000-206F, U+20AC, U+2122, U+2191, U+2193, U+2212, U+2215, U+FEFF, U+FFFD; }
@font-face { font-family: __Sora_b503b9; src: url(&quot;https://www.element-to-svg.com/_next/static/media/768c27c9cbdc3904-s.woff2&quot;) format(&quot;woff2&quot;); font-style: normal; font-weight: 300; font-display: swap; unicode-range: U+100-2BA, U+2BD-2C5, U+2C7-2CC, U+2CE-2D7, U+2DD-2FF, U+304, U+308, U+329, U+1D00-1DBF, U+1E00-1E9F, U+1EF2-1EFF, U+2020, U+20A0-20AB, U+20AD-20C0, U+2113, U+2C60-2C7F, U+A720-A7FF; }
@font-face { font-family: __Sora_b503b9; src: url(&quot;https://www.element-to-svg.com/_next/static/media/95523e6af433889e-s.p.woff2&quot;) format(&quot;woff2&quot;); font-style: normal; font-weight: 300; font-display: swap; unicode-range: U+0-FF, U+131, U+152-153, U+2BB-2BC, U+2C6, U+2DA, U+2DC, U+304, U+308, U+329, U+2000-206F, U+20AC, U+2122, U+2191, U+2193, U+2212, U+2215, U+FEFF, U+FFFD; }
@font-face { font-family: __Sora_b503b9; src: url(&quot;https://www.element-to-svg.com/_next/static/media/768c27c9cbdc3904-s.woff2&quot;) format(&quot;woff2&quot;); font-style: normal; font-weight: 400; font-display: swap; unicode-range: U+100-2BA, U+2BD-2C5, U+2C7-2CC, U+2CE-2D7, U+2DD-2FF, U+304, U+308, U+329, U+1D00-1DBF, U+1E00-1E9F, U+1EF2-1EFF, U+2020, U+20A0-20AB, U+20AD-20C0, U+2113, U+2C60-2C7F, U+A720-A7FF; }
@font-face { font-family: __Sora_b503b9; src: url(&quot;https://www.element-to-svg.com/_next/static/media/95523e6af433889e-s.p.woff2&quot;) format(&quot;woff2&quot;); font-style: normal; font-weight: 400; font-display: swap; unicode-range: U+0-FF, U+131, U+152-153, U+2BB-2BC, U+2C6, U+2DA, U+2DC, U+304, U+308, U+329, U+2000-206F, U+20AC, U+2122, U+2191, U+2193, U+2212, U+2215, U+FEFF, U+FFFD; }
@font-face { font-family: __Sora_b503b9; src: url(&quot;https://www.element-to-svg.com/_next/static/media/768c27c9cbdc3904-s.woff2&quot;) format(&quot;woff2&quot;); font-style: normal; font-weight: 500; font-display: swap; unicode-range: U+100-2BA, U+2BD-2C5, U+2C7-2CC, U+2CE-2D7, U+2DD-2FF, U+304, U+308, U+329, U+1D00-1DBF, U+1E00-1E9F, U+1EF2-1EFF, U+2020, U+20A0-20AB, U+20AD-20C0, U+2113, U+2C60-2C7F, U+A720-A7FF; }
@font-face { font-family: __Sora_b503b9; src: url(&quot;https://www.element-to-svg.com/_next/static/media/95523e6af433889e-s.p.woff2&quot;) format(&quot;woff2&quot;); font-style: normal; font-weight: 500; font-display: swap; unicode-range: U+0-FF, U+131, U+152-153, U+2BB-2BC, U+2C6, U+2DA, U+2DC, U+304, U+308, U+329, U+2000-206F, U+20AC, U+2122, U+2191, U+2193, U+2212, U+2215, U+FEFF, U+FFFD; }
@font-face { font-family: __Sora_b503b9; src: url(&quot;https://www.element-to-svg.com/_next/static/media/768c27c9cbdc3904-s.woff2&quot;) format(&quot;woff2&quot;); font-style: normal; font-weight: 600; font-display: swap; unicode-range: U+100-2BA, U+2BD-2C5, U+2C7-2CC, U+2CE-2D7, U+2DD-2FF, U+304, U+308, U+329, U+1D00-1DBF, U+1E00-1E9F, U+1EF2-1EFF, U+2020, U+20A0-20AB, U+20AD-20C0, U+2113, U+2C60-2C7F, U+A720-A7FF; }
@font-face { font-family: __Sora_b503b9; src: url(&quot;https://www.element-to-svg.com/_next/static/media/95523e6af433889e-s.p.woff2&quot;) format(&quot;woff2&quot;); font-style: normal; font-weight: 600; font-display: swap; unicode-range: U+0-FF, U+131, U+152-153, U+2BB-2BC, U+2C6, U+2DA, U+2DC, U+304, U+308, U+329, U+2000-206F, U+20AC, U+2122, U+2191, U+2193, U+2212, U+2215, U+FEFF, U+FFFD; }
@font-face { font-family: __Sora_b503b9; src: url(&quot;https://www.element-to-svg.com/_next/static/media/768c27c9cbdc3904-s.woff2&quot;) format(&quot;woff2&quot;); font-style: normal; font-weight: 700; font-display: swap; unicode-range: U+100-2BA, U+2BD-2C5, U+2C7-2CC, U+2CE-2D7, U+2DD-2FF, U+304, U+308, U+329, U+1D00-1DBF, U+1E00-1E9F, U+1EF2-1EFF, U+2020, U+20A0-20AB, U+20AD-20C0, U+2113, U+2C60-2C7F, U+A720-A7FF; }
@font-face { font-family: __Sora_b503b9; src: url(&quot;https://www.element-to-svg.com/_next/static/media/95523e6af433889e-s.p.woff2&quot;) format(&quot;woff2&quot;); font-style: normal; font-weight: 700; font-display: swap; unicode-range: U+0-FF, U+131, U+152-153, U+2BB-2BC, U+2C6, U+2DA, U+2DC, U+304, U+308, U+329, U+2000-206F, U+20AC, U+2122, U+2191, U+2193, U+2212, U+2215, U+FEFF, U+FFFD; }
@font-face { font-family: __Sora_b503b9; src: url(&quot;https://www.element-to-svg.com/_next/static/media/768c27c9cbdc3904-s.woff2&quot;) format(&quot;woff2&quot;); font-style: normal; font-weight: 800; font-display: swap; unicode-range: U+100-2BA, U+2BD-2C5, U+2C7-2CC, U+2CE-2D7, U+2DD-2FF, U+304, U+308, U+329, U+1D00-1DBF, U+1E00-1E9F, U+1EF2-1EFF, U+2020, U+20A0-20AB, U+20AD-20C0, U+2113, U+2C60-2C7F, U+A720-A7FF; }
@font-face { font-family: __Sora_b503b9; src: url(&quot;https://www.element-to-svg.com/_next/static/media/95523e6af433889e-s.p.woff2&quot;) format(&quot;woff2&quot;); font-style: normal; font-weight: 800; font-display: swap; unicode-range: U+0-FF, U+131, U+152-153, U+2BB-2BC, U+2C6, U+2DA, U+2DC, U+304, U+308, U+329, U+2000-206F, U+20AC, U+2122, U+2191, U+2193, U+2212, U+2215, U+FEFF, U+FFFD; }
@font-face { font-family: __Sora_Fallback_b503b9; src: local(&quot;Arial&quot;); ascent-override: 85.29%; descent-override: 25.5%; line-gap-override: 0%; size-adjust: 113.73%; }
</style>
  <g
     data-stacking-layer="rootBackgroundAndBorders"
     id="g1" />
  <g
     data-stacking-layer="childStackingContextsWithNegativeStackLevels"
     id="g2" />
  <g
     data-stacking-layer="inFlowNonInlineNonPositionedDescendants"
     id="g3" />
  <g
     data-stacking-layer="nonPositionedFloats"
     id="g4" />
  <g
     data-stacking-layer="inFlowInlineLevelNonPositionedDescendants"
     id="g5" />
  <g
     data-stacking-layer="childStackingContextsWithStackLevelZeroAndPositionedDescendantsWithStackLevelZero"
     id="g6" />
  <g
     data-stacking-layer="childStackingContextsWithPositiveStackLevels"
     id="g7" />
  <g
     data-tag="div"
     id="w-full1"
     class="w-full"
     data-z-index="auto"
     data-stacking-context="true"
     aria-owns="style1 svg1">
    <text
       color="rgb(0, 0, 0)"
       dominant-baseline="text-after-edge"
       font-family="__Montserrat_237071, __Montserrat_Fallback_237071"
       font-size="16px"
       font-size-adjust="none"
       font-stretch="100%"
       font-style="normal"
       font-variant="normal"
       font-weight="400"
       direction="ltr"
       letter-spacing="normal"
       text-decoration="rgb(0, 0, 0)"
       text-anchor="start"
       text-rendering="auto"
       unicode-bidi="isolate"
       word-spacing="0px"
       writing-mode="horizontal-tb"
       user-select="auto"
       fill="rgb(0, 0, 0)"
       id="text7"><tspan
         xml:space="preserve"
         x="1000"
         y="714.3333129882812"
         textLength="0"
         lengthAdjust="spacingAndGlyphs"
         id="tspan7"> </tspan></text>
    <g
       data-tag="style"
       id="g8"
       data-z-index="auto"
       data-stacking-context="true" />
    <text
       color="rgb(0, 0, 0)"
       dominant-baseline="text-after-edge"
       font-family="__Montserrat_237071, __Montserrat_Fallback_237071"
       font-size="16px"
       font-size-adjust="none"
       font-stretch="100%"
       font-style="normal"
       font-variant="normal"
       font-weight="400"
       direction="ltr"
       letter-spacing="normal"
       text-decoration="rgb(0, 0, 0)"
       text-anchor="start"
       text-rendering="auto"
       unicode-bidi="isolate"
       word-spacing="0px"
       writing-mode="horizontal-tb"
       user-select="auto"
       fill="rgb(0, 0, 0)"
       id="text8"><tspan
         xml:space="preserve"
         x="1000"
         y="714.3333129882812"
         textLength="0"
         lengthAdjust="spacingAndGlyphs"
         id="tspan8"> </tspan></text>
    <g
       data-tag="svg"
       id="svg1"
       data-z-index="auto"
       data-stacking-context="true"
       mask="url(#mask-for-svg11)">
      <g
         data-stacking-layer="rootBackgroundAndBorders"
         id="g9" />
      <g
         data-stacking-layer="childStackingContextsWithNegativeStackLevels"
         id="g10" />
      <g
         data-stacking-layer="inFlowNonInlineNonPositionedDescendants"
         id="g11" />
      <g
         data-stacking-layer="nonPositionedFloats"
         id="g12" />
      <g
         data-stacking-layer="inFlowInlineLevelNonPositionedDescendants"
         id="g13" />
      <g
         data-stacking-layer="childStackingContextsWithStackLevelZeroAndPositionedDescendantsWithStackLevelZero"
         id="g14" />
      <g
         data-stacking-layer="childStackingContextsWithPositiveStackLevels"
         id="g15" />
      <mask
         id="mask-for-svg11">
        <rect
           width="542.6666870117188"
           height="171.83334350585938"
           x="1000"
           y="714.3333129882812"
           fill="#ffffff"
           id="rect15" />
      </mask>
      <g
         class="svg-content"
         data-view-box="0 0 2202.63 697.48"
         data-width=""
         data-height=""
         transform="matrix(0.246363, 0, 0, 0.246363, 1000.01, 714.333)"
         id="g48">
        <defs
           color="rgb(0, 0, 0)"
           fill="rgb(0, 0, 0)"
           stroke="none"
           id="defs15" />
        <g
           id="svg1-Ebene_2"
           data-name="Ebene 2"
           color="rgb(0, 0, 0)"
           fill="rgb(0, 0, 0)"
           stroke="none">
          <g
             id="svg1-Layer_1"
             data-name="Layer 1"
             color="rgb(0, 0, 0)"
             fill="rgb(0, 0, 0)"
             stroke="none">
            <path
               class="logo-cls-1"
               d="M133.61,585.09V447.89a33.46,33.46,0,0,0-7.86-21.95q-7.87-9.51-24.33-22.32-11.72-9.51-19-16.47a153.85,153.85,0,0,1-16.28-18.84,85.7,85.7,0,0,1-13.54-26.89A112.45,112.45,0,0,1,48,308.49V199.1Q48,163.63,70.32,142T130,120.44q35.49,0,57.08,21.59t21.58,57.07V321.3h-75V184.83H123V307a33.4,33.4,0,0,0,7.87,22q7.86,9.52,24.33,22.32,9.13,7.32,15,12.44a153,153,0,0,1,14.08,14.63A91.68,91.68,0,0,1,197.09,397a116.39,116.39,0,0,1,8,22.5,112.6,112.6,0,0,1,3.47,28.36V570.82q0,35.49-22.31,57.07t-59.64,21.59q-35.49,0-57.07-21.59T48,570.82V433.62h75V585.09Z"
               color="rgb(0, 0, 0)"
               fill="none"
               stroke="rgb(243, 255, 0)"
               stroke-linejoin="round"
               stroke-width="96px"
               id="path15" />
            <path
               class="logo-cls-1"
               d="M289.83,647.28h-75L235,122.64H357.15l20.49,524.64h-75v-173H289.83Zm1.47-534.89H226.91V48H291.3Zm1.46,72.44L289.83,412h12.81l-2.2-227.2Zm73.54-72.44H301.91V48H366.3Z"
               color="rgb(0, 0, 0)"
               fill="none"
               stroke="rgb(243, 255, 0)"
               stroke-linejoin="round"
               stroke-width="96px"
               id="path16" />
            <path
               class="logo-cls-1"
               d="M544.48,310.69h-75V184.83H458.86V585.09h10.61V438.38H464V370.69h80.49V570.82q0,35.49-22.32,57.07t-59.64,21.59q-35.49,0-57.07-21.59t-21.59-57.07V199.1q0-35.47,22.32-57.07t59.63-21.59q35.49,0,57.08,21.59t21.59,57.07Z"
               color="rgb(0, 0, 0)"
               fill="none"
               stroke="rgb(243, 255, 0)"
               stroke-linejoin="round"
               stroke-width="96px"
               id="path17" />
            <path
               class="logo-cls-1"
               d="M671.43,122.64v67.68H629.35V344.71h42.08V412H629.35V580h45.74v67.32H554.35V122.64Z"
               color="rgb(0, 0, 0)"
               fill="none"
               stroke="rgb(243, 255, 0)"
               stroke-linejoin="round"
               stroke-width="96px"
               id="path18" />
            <path
               class="logo-cls-1"
               d="M809,266.05,831,503.5h10.61l-22-237.45V122.64h75V266.05L884,647.28H809L791.8,412h-7.32L767.29,647.28h-75L681.67,266.05V122.64h75V266.05L735.09,503.5h10.24l22-237.45Z"
               color="rgb(0, 0, 0)"
               fill="none"
               stroke="rgb(243, 255, 0)"
               stroke-linejoin="round"
               stroke-width="96px"
               id="path19" />
            <path
               class="logo-cls-1"
               d="M1021.93,122.64v67.68H979.85V344.71h42.08V412H979.85V580h45.73v67.32H904.85V122.64Z"
               color="rgb(0, 0, 0)"
               fill="none"
               stroke="rgb(243, 255, 0)"
               stroke-linejoin="round"
               stroke-width="96px"
               id="path20" />
            <path
               class="logo-cls-1"
               d="M1192.78,647.28h-75V412h-10.61V647.28h-75V122.64h81.95q35.49,0,57.08,21.58t21.58,57.08V323.49q0,33.3-20.48,54.88,20.48,21.6,20.48,55.25Zm-85.61-462.45V344.71h10.61V184.83Z"
               color="rgb(0, 0, 0)"
               fill="none"
               stroke="rgb(243, 255, 0)"
               stroke-linejoin="round"
               stroke-width="96px"
               id="path21" />
            <path
               class="logo-cls-1"
               d="M1360,433.62l9.15,213.66H1293.4L1285.35,412h-7.69V647.28h-75V122.64h75V344.71h7.69l8.78-222.07h75L1360,323.49q-1.1,34.77-20.12,54.88Q1358.88,398.5,1360,433.62Z"
               color="rgb(0, 0, 0)"
               fill="none"
               stroke="rgb(243, 255, 0)"
               stroke-linejoin="round"
               stroke-width="96px"
               id="path22" />
            <path
               class="logo-cls-1"
               d="M1984.14,647.28H1823.53v-176A112,112,0,0,1,1827,443a116.39,116.39,0,0,1,8-22.5,91.14,91.14,0,0,1,12.81-18.66,154.59,154.59,0,0,1,14.08-14.64q5.85-5.11,15-12.44,11-8.77,16.47-13.71A59.71,59.71,0,0,0,1904,347.64a32.74,32.74,0,0,0,5.12-17.19V184.83h-10.61V321.3h-75V199.1q0-35.47,21.58-57.07t57.08-21.59q37.32,0,59.63,21.59t22.32,57.07V331.91a112.5,112.5,0,0,1-4.57,32.93A85.81,85.81,0,0,1,1966,391.73a154.72,154.72,0,0,1-16.28,18.84q-7.32,7-19,16.46-11,8.79-16.47,13.72a59.71,59.71,0,0,0-10.61,13.36,32.64,32.64,0,0,0-5.12,17.19v101h85.61Z"
               color="rgb(0, 0, 0)"
               fill="none"
               stroke="rgb(243, 255, 0)"
               stroke-linejoin="round"
               stroke-width="96px"
               id="path23" />
            <path
               class="logo-cls-1"
               d="M1994,359V122.64h160.61v75H2069V295h4.39q0-16.47,11.89-27.26T2114,256.91q16.83,0,28.72,10.79T2154.63,295V568.62q0,35.86-21.77,58.36t-58.72,22.5q-37.3,0-58.72-21.41T1994,570.82V433.62h75V585.09h10.61V321.3H2069V359Z"
               color="rgb(0, 0, 0)"
               fill="none"
               stroke="rgb(243, 255, 0)"
               stroke-linejoin="round"
               stroke-width="96px"
               id="path24" />
            <path
               class="logo-cls-2"
               d="M133.61,585.09V447.89a33.46,33.46,0,0,0-7.86-21.95q-7.87-9.51-24.33-22.32-11.72-9.51-19-16.47a153.85,153.85,0,0,1-16.28-18.84,85.7,85.7,0,0,1-13.54-26.89A112.45,112.45,0,0,1,48,308.49V199.1Q48,163.63,70.32,142T130,120.44q35.49,0,57.08,21.59t21.58,57.07V321.3h-75V184.83H123V307a33.4,33.4,0,0,0,7.87,22q7.86,9.52,24.33,22.32,9.13,7.32,15,12.44a153,153,0,0,1,14.08,14.63A91.68,91.68,0,0,1,197.09,397a116.39,116.39,0,0,1,8,22.5,112.6,112.6,0,0,1,3.47,28.36V570.82q0,35.49-22.31,57.07t-59.64,21.59q-35.49,0-57.07-21.59T48,570.82V433.62h75V585.09Z"
               color="rgb(0, 0, 0)"
               fill="none"
               stroke="rgb(0, 0, 0)"
               stroke-linejoin="round"
               stroke-width="63px"
               id="path25" />
            <path
               class="logo-cls-2"
               d="M289.83,647.28h-75L235,122.64H357.15l20.49,524.64h-75v-173H289.83Zm1.47-534.89H226.91V48H291.3Zm1.46,72.44L289.83,412h12.81l-2.2-227.2Zm73.54-72.44H301.91V48H366.3Z"
               color="rgb(0, 0, 0)"
               fill="none"
               stroke="rgb(0, 0, 0)"
               stroke-linejoin="round"
               stroke-width="63px"
               id="path26" />
            <path
               class="logo-cls-2"
               d="M544.48,310.69h-75V184.83H458.86V585.09h10.61V438.38H464V370.69h80.49V570.82q0,35.49-22.32,57.07t-59.64,21.59q-35.49,0-57.07-21.59t-21.59-57.07V199.1q0-35.47,22.32-57.07t59.63-21.59q35.49,0,57.08,21.59t21.59,57.07Z"
               color="rgb(0, 0, 0)"
               fill="none"
               stroke="rgb(0, 0, 0)"
               stroke-linejoin="round"
               stroke-width="63px"
               id="path27" />
            <path
               class="logo-cls-2"
               d="M671.43,122.64v67.68H629.35V344.71h42.08V412H629.35V580h45.74v67.32H554.35V122.64Z"
               color="rgb(0, 0, 0)"
               fill="none"
               stroke="rgb(0, 0, 0)"
               stroke-linejoin="round"
               stroke-width="63px"
               id="path28" />
            <path
               class="logo-cls-2"
               d="M809,266.05,831,503.5h10.61l-22-237.45V122.64h75V266.05L884,647.28H809L791.8,412h-7.32L767.29,647.28h-75L681.67,266.05V122.64h75V266.05L735.09,503.5h10.24l22-237.45Z"
               color="rgb(0, 0, 0)"
               fill="none"
               stroke="rgb(0, 0, 0)"
               stroke-linejoin="round"
               stroke-width="63px"
               id="path29" />
            <path
               class="logo-cls-2"
               d="M1021.93,122.64v67.68H979.85V344.71h42.08V412H979.85V580h45.73v67.32H904.85V122.64Z"
               color="rgb(0, 0, 0)"
               fill="none"
               stroke="rgb(0, 0, 0)"
               stroke-linejoin="round"
               stroke-width="63px"
               id="path30" />
            <path
               class="logo-cls-2"
               d="M1192.78,647.28h-75V412h-10.61V647.28h-75V122.64h81.95q35.49,0,57.08,21.58t21.58,57.08V323.49q0,33.3-20.48,54.88,20.48,21.6,20.48,55.25Zm-85.61-462.45V344.71h10.61V184.83Z"
               color="rgb(0, 0, 0)"
               fill="none"
               stroke="rgb(0, 0, 0)"
               stroke-linejoin="round"
               stroke-width="63px"
               id="path31" />
            <path
               class="logo-cls-2"
               d="M1360,433.62l9.15,213.66H1293.4L1285.35,412h-7.69V647.28h-75V122.64h75V344.71h7.69l8.78-222.07h75L1360,323.49q-1.1,34.77-20.12,54.88Q1358.88,398.5,1360,433.62Z"
               color="rgb(0, 0, 0)"
               fill="none"
               stroke="rgb(0, 0, 0)"
               stroke-linejoin="round"
               stroke-width="63px"
               id="path32" />
            <path
               class="logo-cls-2"
               d="M1984.14,647.28H1823.53v-176A112,112,0,0,1,1827,443a116.39,116.39,0,0,1,8-22.5,91.14,91.14,0,0,1,12.81-18.66,154.59,154.59,0,0,1,14.08-14.64q5.85-5.11,15-12.44,11-8.77,16.47-13.71A59.71,59.71,0,0,0,1904,347.64a32.74,32.74,0,0,0,5.12-17.19V184.83h-10.61V321.3h-75V199.1q0-35.47,21.58-57.07t57.08-21.59q37.32,0,59.63,21.59t22.32,57.07V331.91a112.5,112.5,0,0,1-4.57,32.93A85.81,85.81,0,0,1,1966,391.73a154.72,154.72,0,0,1-16.28,18.84q-7.32,7-19,16.46-11,8.79-16.47,13.72a59.71,59.71,0,0,0-10.61,13.36,32.64,32.64,0,0,0-5.12,17.19v101h85.61Z"
               color="rgb(0, 0, 0)"
               fill="none"
               stroke="rgb(0, 0, 0)"
               stroke-linejoin="round"
               stroke-width="63px"
               id="path33" />
            <path
               class="logo-cls-2"
               d="M1994,359V122.64h160.61v75H2069V295h4.39q0-16.47,11.89-27.26T2114,256.91q16.83,0,28.72,10.79T2154.63,295V568.62q0,35.86-21.77,58.36t-58.72,22.5q-37.3,0-58.72-21.41T1994,570.82V433.62h75V585.09h10.61V321.3H2069V359Z"
               color="rgb(0, 0, 0)"
               fill="none"
               stroke="rgb(0, 0, 0)"
               stroke-linejoin="round"
               stroke-width="63px"
               id="path34" />
            <path
               class="logo-cls-3"
               d="M133.61,585.09V447.89a33.46,33.46,0,0,0-7.86-21.95q-7.87-9.51-24.33-22.32-11.72-9.51-19-16.47a153.85,153.85,0,0,1-16.28-18.84,85.7,85.7,0,0,1-13.54-26.89A112.45,112.45,0,0,1,48,308.49V199.1Q48,163.63,70.32,142T130,120.44q35.49,0,57.08,21.59t21.58,57.07V321.3h-75V184.83H123V307a33.4,33.4,0,0,0,7.87,22q7.86,9.52,24.33,22.32,9.13,7.32,15,12.44a153,153,0,0,1,14.08,14.63A91.68,91.68,0,0,1,197.09,397a116.39,116.39,0,0,1,8,22.5,112.6,112.6,0,0,1,3.47,28.36V570.82q0,35.49-22.31,57.07t-59.64,21.59q-35.49,0-57.07-21.59T48,570.82V433.62h75V585.09Z"
               color="rgb(0, 0, 0)"
               fill="rgb(243, 255, 0)"
               stroke="none"
               id="path35" />
            <path
               class="logo-cls-3"
               d="M289.83,647.28h-75L235,122.64H357.15l20.49,524.64h-75v-173H289.83Zm1.47-534.89H226.91V48H291.3Zm1.46,72.44L289.83,412h12.81l-2.2-227.2Zm73.54-72.44H301.91V48H366.3Z"
               color="rgb(0, 0, 0)"
               fill="rgb(243, 255, 0)"
               stroke="none"
               id="path36" />
            <path
               class="logo-cls-3"
               d="M544.48,310.69h-75V184.83H458.86V585.09h10.61V438.38H464V370.69h80.49V570.82q0,35.49-22.32,57.07t-59.64,21.59q-35.49,0-57.07-21.59t-21.59-57.07V199.1q0-35.47,22.32-57.07t59.63-21.59q35.49,0,57.08,21.59t21.59,57.07Z"
               color="rgb(0, 0, 0)"
               fill="rgb(243, 255, 0)"
               stroke="none"
               id="path37" />
            <path
               class="logo-cls-3"
               d="M671.43,122.64v67.68H629.35V344.71h42.08V412H629.35V580h45.74v67.32H554.35V122.64Z"
               color="rgb(0, 0, 0)"
               fill="rgb(243, 255, 0)"
               stroke="none"
               id="path38" />
            <path
               class="logo-cls-3"
               d="M809,266.05,831,503.5h10.61l-22-237.45V122.64h75V266.05L884,647.28H809L791.8,412h-7.32L767.29,647.28h-75L681.67,266.05V122.64h75V266.05L735.09,503.5h10.24l22-237.45Z"
               color="rgb(0, 0, 0)"
               fill="rgb(243, 255, 0)"
               stroke="none"
               id="path39" />
            <path
               class="logo-cls-3"
               d="M1021.93,122.64v67.68H979.85V344.71h42.08V412H979.85V580h45.73v67.32H904.85V122.64Z"
               color="rgb(0, 0, 0)"
               fill="rgb(243, 255, 0)"
               stroke="none"
               id="path40" />
            <path
               class="logo-cls-3"
               d="M1192.78,647.28h-75V412h-10.61V647.28h-75V122.64h81.95q35.49,0,57.08,21.58t21.58,57.08V323.49q0,33.3-20.48,54.88,20.48,21.6,20.48,55.25Zm-85.61-462.45V344.71h10.61V184.83Z"
               color="rgb(0, 0, 0)"
               fill="rgb(243, 255, 0)"
               stroke="none"
               id="path41" />
            <path
               class="logo-cls-3"
               d="M1360,433.62l9.15,213.66H1293.4L1285.35,412h-7.69V647.28h-75V122.64h75V344.71h7.69l8.78-222.07h75L1360,323.49q-1.1,34.77-20.12,54.88Q1358.88,398.5,1360,433.62Z"
               color="rgb(0, 0, 0)"
               fill="rgb(243, 255, 0)"
               stroke="none"
               id="path42" />
            <path
               class="logo-cls-3"
               d="M1984.14,647.28H1823.53v-176A112,112,0,0,1,1827,443a116.39,116.39,0,0,1,8-22.5,91.14,91.14,0,0,1,12.81-18.66,154.59,154.59,0,0,1,14.08-14.64q5.85-5.11,15-12.44,11-8.77,16.47-13.71A59.71,59.71,0,0,0,1904,347.64a32.74,32.74,0,0,0,5.12-17.19V184.83h-10.61V321.3h-75V199.1q0-35.47,21.58-57.07t57.08-21.59q37.32,0,59.63,21.59t22.32,57.07V331.91a112.5,112.5,0,0,1-4.57,32.93A85.81,85.81,0,0,1,1966,391.73a154.72,154.72,0,0,1-16.28,18.84q-7.32,7-19,16.46-11,8.79-16.47,13.72a59.71,59.71,0,0,0-10.61,13.36,32.64,32.64,0,0,0-5.12,17.19v101h85.61Z"
               color="rgb(0, 0, 0)"
               fill="rgb(243, 255, 0)"
               stroke="none"
               id="path43" />
            <path
               class="logo-cls-3"
               d="M1994,359V122.64h160.61v75H2069V295h4.39q0-16.47,11.89-27.26T2114,256.91q16.83,0,28.72,10.79T2154.63,295V568.62q0,35.86-21.77,58.36t-58.72,22.5q-37.3,0-58.72-21.41T1994,570.82V433.62h75V585.09h10.61V321.3H2069V359Z"
               color="rgb(0, 0, 0)"
               fill="rgb(243, 255, 0)"
               stroke="none"
               id="path44" />
            <path
               class="logo-cls-4"
               d="M1583,681.69a12,12,0,0,1-10.71-6.58l-10.33-20.42q-2,2.32-3.89,4.65c-8.21,10.06-19,15.39-31.29,15.39a48.15,48.15,0,0,1-11.33-1.42l-7.22-1.69c-7.23-1.68-14.71-3.43-22.34-5.82-8-2.53-15.61-5.33-23.68-8.29l-1.79-.65c-3.36-1.29-6.91-2.59-10.67-4l-1-.38a12,12,0,0,1-7.89-11.18l-.19-25.15c-5,1.53-10.11,3-15.34,4.41a39.93,39.93,0,0,1-10,1.23c-10.57,0-20.48-3.68-27.18-10.11-12.37-11.84-24.63-24.49-35.45-35.65-3.83-4-7.7-7.94-11.54-11.86l-7.13-7.29a12,12,0,0,1-1.91-14.24l11.3-20.27q.18-.31.36-.6-5.65-1.41-11.32-2.93c-10.27-2.72-22.33-11.3-26-24.31-4.59-16.15-8.83-32.57-12.93-48.45l-2.32-9c-.88-3.4-1.76-6.8-2.64-10.16l-2.81-10.85a12,12,0,0,1,6.33-13.78l20-9.79q-3.66-3.45-7.3-7c-10.11-9.87-14.34-21.92-11.62-33.08,4.63-18.76,10-38.34,14.22-54.08q2-7.6,4.14-15.26l3.34-12.5a12,12,0,0,1,14.17-8.62l20.48,4.51c-1.17-4-2.31-8-3.39-12-2.82-10.58-1.45-25.64,8-35.49,12.34-13,25.12-25.69,37.47-38,3.93-3.89,7.81-7.76,11.72-11.68l8.41-8.41a12,12,0,0,1,15.76-1.06l16.79,12.8c.73-3.09,1.47-6.2,2.23-9.3,3.36-13.19,10.35-22.22,20.23-26.2A267.66,267.66,0,0,1,1537,119.72c2.55-.29,5.06-.54,7.61-.75.33,0,.66,0,1,0a12,12,0,0,1,11.61,9l6.06,23.44c4.82-5.25,9.32-10.31,13.65-15.35,10.38-12.17,22.08-14.73,30.07-14.73a40.7,40.7,0,0,1,11.15,1.59l22.91,6.52,23.54,6.7,28.84,8.27a12,12,0,0,1,8.6,13l-2.62,20.79c3.13-.94,6.32-1.86,9.54-2.76l.1,0a41.56,41.56,0,0,1,10.53-1.34c10,0,19,3.33,25.26,9.38,12.49,12,24.62,24.37,37,37l.49.49c3.67,3.75,7.3,7.46,11,11.16l7.82,7.9a12,12,0,0,1,1.46,15.09l-12.77,19.18c4,1,8,1.95,12.06,3,9.77,2.52,21.48,9.84,25.18,22.85,4.3,15.05,8.39,30.37,12.34,45.2l2.37,8.87,7,26.32a12,12,0,0,1-6.82,14.08l-20.12,8.72c2.71,2.57,5.45,5.21,8.12,7.89,7.49,7.43,14.08,21.58,10.78,35-4.08,16.61-8.64,33.2-13,49.24l-.41,1.49c-1.49,5.32-2.93,10.58-4.36,15.85l-2.77,10.16a12,12,0,0,1-11.57,8.86l-23.18-.28q1.51,5.12,3,10.3c2.77,10,2.38,24.23-7,34.06-13,13.58-26.52,27.17-39.18,39.83-3.75,3.75-7.5,7.5-11.21,11.25l-9.09,9.13a12,12,0,0,1-16.42.55l-15.25-13.41c-.81,3.42-1.64,6.81-2.51,10.21-2.6,9.92-10.41,22.83-23.9,26.81-17.59,5.17-35.64,9.94-51.57,14.15l-15.41,4.09-10.7,2.84A12.12,12.12,0,0,1,1583,681.69Zm-60.76-59.42c8.88-10.47,18.35-20.28,26.84-29.07l1-1.07a47.49,47.49,0,0,1,34.38-14.89,45.52,45.52,0,0,1,45.06,39.38q5.22-1.44,10.15-2.83c1.28-5.32,2.5-10.73,3.69-16l.26-1.18c1.32-5.93,3.09-13.76,5-21.63,3.25-13.29,10.67-23.74,21.46-30.22a44.55,44.55,0,0,1,23-6.26,49.76,49.76,0,0,1,12.23,1.55,44.49,44.49,0,0,1,24.07,15.69q3.72-3.8,7.4-7.58c-1.65-5.63-3.39-11.33-5.1-16.89l-.89-2.92c-.84-2.77-1.67-5.49-2.49-8.22s-1.67-5.49-2.5-8.22c-7.84-26.51,3.72-51,28.11-59.54a47.32,47.32,0,0,1,15.71-2.75,42.84,42.84,0,0,1,16.43,3.26c.94-3.56,1.83-7,2.67-10.26-3.86-3.7-7.83-7.37-11.71-11l-1-.92c-5.51-5.07-11.42-10.57-17.23-16.25-18.44-18.18-19.57-45.18-2.71-64.22a45.2,45.2,0,0,1,27.49-15.08c-.93-3.4-1.88-6.87-2.84-10.34-8-1.95-16.16-3.83-24.07-5.66l-1.72-.4-9.68-2.19c-26.66-6.18-43-28.51-38.88-53.11a45.57,45.57,0,0,1,17.22-29c-2.54-2.53-5.13-5.09-7.74-7.64-3.86,1.15-7.81,2.38-11.66,3.58l-3.1,1c-8.31,2.62-16.9,5.34-25.79,7.64a47.54,47.54,0,0,1-12,1.56,45.29,45.29,0,0,1-43.43-32.58,45.79,45.79,0,0,1,1.49-30.84l-9.83-2.79c-8.35,9.53-17.35,19.25-27.93,30.17A46.75,46.75,0,0,1,1549.78,219a45.91,45.91,0,0,1-45.5-40.59q-4.83,1.42-9.58,3.1c-1.45,6.09-2.8,12-3.87,16.81l-.55,2.43c-1.48,6.55-3,13.32-4.68,20-5.54,22.45-23,37-44.42,37a51.11,51.11,0,0,1-11.17-1.27,44.43,44.43,0,0,1-25.5-15.89c-2.5,2.53-4.89,5-7.2,7.35,1.72,6,3.58,12,5.39,17.93l.46,1.51c1.78,5.78,3.89,12.65,5.94,19.72,7,24.47-5.71,49-29.61,57a47.7,47.7,0,0,1-15.15,2.52,44.13,44.13,0,0,1-16.15-3c-.94,3.58-1.82,7-2.66,10.26,3.06,2.9,6.17,5.79,9.22,8.62l3.08,2.86c6,5.54,11.22,10.43,15.94,14.93,19.81,19.08,21.37,46.93,3.74,66.25A44.64,44.64,0,0,1,1350.26,461c1,3.61,1.89,7,2.8,10.29,8.37,2.1,17,4.07,25.31,6l2.47.57c2.41.56,4.8,1.11,7.21,1.63l.17,0c27.53,6.36,44.06,29.14,39.3,54.17a45.58,45.58,0,0,1-17,28.24c2.47,2.47,5,5,7.53,7.47,4.87-1.4,9.8-2.94,14.93-4.54l1.62-.51c7.85-2.5,15.6-4.94,23.45-7a47.6,47.6,0,0,1,12.27-1.62A45.94,45.94,0,0,1,1512.4,620c2.67.66,5.35,1.29,8,1.9Zm-183-204.07Zm228.12,38.43c-.42,0-1.06,0-1.83-.06-30.89-1-56.1-27-56.25-58.08v-.21a58.78,58.78,0,0,1,17.14-41.6,57.05,57.05,0,0,1,81.3-.06,58.74,58.74,0,0,1,17.24,41.7v.19A59.21,59.21,0,0,1,1607,440.28,56.87,56.87,0,0,1,1567.31,456.63Zm-.24-65.76a6.25,6.25,0,0,0-4.38,2,7.41,7.41,0,0,0-2.17,5.26v.06a7.17,7.17,0,0,0,6.68,7.17h.22a5.72,5.72,0,0,0,3.8-1.84,7.27,7.27,0,0,0,.15-10.66A6.11,6.11,0,0,0,1567.07,390.87Z"
               color="rgb(0, 0, 0)"
               fill="rgb(0, 0, 0)"
               stroke="none"
               id="path45" />
            <path
               class="logo-cls-3"
               d="M1545.59,130.93l7.18,27.73c-2.69,3.28-5,6.13-7.18,8.89-2.36,3-3.6,7.33-.08,10.5a6.35,6.35,0,0,0,4.28,1.69,8,8,0,0,0,5.62-2.61c12-12.38,21.76-23,30.61-33.3,6.93-8.12,14.45-10.55,21-10.55a29.08,29.08,0,0,1,7.88,1.13l46.44,13.23,28.81,8.25-2.84,22.56-7.74,2.88c-1.88.73-3.8,1.41-5.69,2.09-4,1.48-7.85,2.84-11.54,4.37-4.16,1.76-6,5-4.84,8.77a6.23,6.23,0,0,0,6,4.68,7.81,7.81,0,0,0,2-.27c8-2.09,15.87-4.57,24.16-7.17,7.33-2.33,15-4.69,22.6-6.82a29.14,29.14,0,0,1,7.42-.93c6,0,12.45,1.7,16.94,6,12.5,12.06,24.84,24.61,36.74,36.75,3.85,3.92,7.66,7.81,11.5,11.7l7.82,7.89L1779.51,268l-8.69-1.48c-1.6-.24-3.21-.52-4.81-.76-3.36-.6-6.57-1.16-9.78-1.6a21.76,21.76,0,0,0-3-.23c-7.07,0-7.76,4.25-8,6-1,5.77,7.29,8,9,8.37l9.62,2.2c11.54,2.65,23.48,5.37,35.18,8.34,6.21,1.6,14.26,6.33,16.59,14.5,5.13,18,9.93,36.23,14.66,53.9l4,14.94,3,11.34-21.91,9.5-6.45-5.57-4.33-3.73c-3-2.68-5.93-5.21-8.9-7.53a9.09,9.09,0,0,0-5.4-2.27,6,6,0,0,0-4.61,2.35c-3,3.37-2.73,6.69.84,10.18,5.29,5.21,10.9,10.37,16.3,15.42,6.22,5.69,12.63,11.62,18.76,17.75,5.37,5.33,9.69,15.19,7.61,23.68-4.17,16.95-8.86,33.94-13.38,50.41-1.49,5.29-2.93,10.58-4.37,15.87l-2.77,10.18-23.16-.28-5-13c-1.25-3.24-2.53-6.49-3.73-9.77-2.4-6.49-5.09-7.88-7.2-7.88a7.3,7.3,0,0,0-2.5.54c-1.84.6-6.13,2.17-3.44,11.22,1.6,5.41,3.24,10.78,4.89,16.19,2.8,9.18,5.73,18.67,8.37,28.17,1.8,6.53,1.8,16.35-4.13,22.56-12.86,13.42-26.12,26.76-39,39.63-3.77,3.76-7.54,7.53-11.26,11.3l-9.06,9.09-17.83-15.67,2.36-12.9c.73-3.8,1.45-7.65,2.17-11.5s-.32-8.41-4.29-9.45a11.43,11.43,0,0,0-2.59-.34,5.35,5.35,0,0,0-2.82.7c-1.6.92-2.84,3-3.56,6-1.69,6.85-3.29,13.94-4.81,20.79-1.85,8.26-3.77,16.79-5.93,25.25-1.45,5.49-6.29,15.5-15.67,18.27-17,5-34.42,9.61-51.25,14.06l-15.42,4.09-10.7,2.84-10.78-21.31,5.69-6.9c1.12-1.36,2.24-2.68,3.4-4,2.41-2.89,4.77-5.61,7-8.46,1.16-1.48,4.68-6.69.44-10.74a6.16,6.16,0,0,0-4.31-1.76,8.54,8.54,0,0,0-6,2.89l-1,1.08c-9.74,10.1-19.76,20.51-28.57,31.29-6,7.3-13.32,11-22,11a35.7,35.7,0,0,1-8.53-1.09l-6.7-1.56c-7.21-1.69-14.66-3.41-22.07-5.73-8.22-2.61-16.23-5.57-24.77-8.7-3.76-1.44-7.73-2.88-11.9-4.41l-.2-25.56c2.57-1,4.93-1.84,7.14-2.68,4.36-1.61,8.13-3,11.7-4.49,3.12-1.28,6.57-3.85,5.24-8.74a6.13,6.13,0,0,0-6.16-4.82,8.86,8.86,0,0,0-2.37.34c-7.21,1.88-14.26,4.12-21.76,6.53-7.81,2.44-15.9,5-24.16,7.17a28.12,28.12,0,0,1-7,.84c-6.59,0-13.93-2-18.87-6.77-12.06-11.54-23.8-23.64-35.14-35.34-3.85-4-7.74-8-11.58-11.9l-7.14-7.29,11.3-20.28,13.55,2.12c3.16.48,6.29,1,9.45,1.53a25.21,25.21,0,0,0,4,.35c7.09,0,7.88-4.16,8.22-5.88,1-5.49-6.37-7.82-9.57-8.54l-8.78-2c-11.54-2.61-23.44-5.33-35.14-8.5-6.81-1.8-15.22-7.61-17.59-16-4.89-17.19-9.37-34.7-13.74-51.61-1.36-5.25-2.73-10.54-4.09-15.75l-2.8-10.82,20.91-10.25,10.78,9.05c2.93,2.44,5.81,4.89,8.78,7.25,2.77,2.27,4.91,3,6.55,3a5.45,5.45,0,0,0,4.22-2.17c1.53-1.64,4.69-5.12-1.88-11.46-5.09-4.84-10.38-9.77-15.51-14.5C1325.17,388.53,1319,382.8,1313,377c-3.32-3.24-10.73-11.78-8.33-21.64,4.45-18,9.38-36.22,14.14-53.77,1.37-5.09,2.73-10.14,4.13-15.23l3.37-12.58,24,5.29,2.48,7.17c.64,1.85,1.28,3.73,1.89,5.57,1.28,3.81,2.48,7.38,3.88,10.7,1.69,3.93,4,4.82,5.82,4.82a7.63,7.63,0,0,0,2.52-.49c4.12-1.4,5.69-4.57,4.4-8.9-1.8-6.37-3.76-12.82-5.73-19.07-2.72-8.89-5.57-18.15-8-27.41-1.88-7-1.12-17.63,5-24.08,12.22-12.86,25-25.52,37.26-37.74,3.93-3.89,7.82-7.77,11.74-11.7l8.42-8.42,18.55,14.15-2.28,13.1c-.69,3.85-1.33,7.65-2,11.46-.48,2.57-1,8.66,4.37,9.9a12.45,12.45,0,0,0,2.66.39c2.31,0,4.75-1.26,6.24-7.2,1.76-7.18,3.4-14.59,5-21.72,1.73-7.61,3.49-15.47,5.41-23.24,1.65-6.45,5.21-14.79,13.07-17.95a255.42,255.42,0,0,1,67.31-16.75c2.4-.28,4.81-.52,7.25-.72m4.19,76a33.78,33.78,0,0,1-32-44.37,214.69,214.69,0,0,0-33.14,9.82c-.08.16-.12.36-.2.56-1.84,7.49-3.61,15.19-5.29,22.68-1.64,7.25-3.33,14.78-5.17,22.2-4.3,17.43-17,27.86-32.77,27.86a38.74,38.74,0,0,1-8.54-1,32.47,32.47,0,0,1-24.84-24.48c-8,8-16.07,16.11-23.88,24.24v0c2.36,8.78,5.12,17.71,7.77,26.33,2,6.37,4,12.94,5.89,19.55,5.29,18.43-3.93,36.22-21.92,42.27a35.52,35.52,0,0,1-11.32,1.9,32.22,32.22,0,0,1-23.5-10.11c-3,11-5.89,22.12-8.65,33.18,5.69,5.53,11.7,11.06,17.47,16.43,5.21,4.8,10.57,9.81,15.82,14.82,15.15,14.59,16.47,34.9,3.17,49.49a32.49,32.49,0,0,1-24.29,11,34.23,34.23,0,0,1-9.93-1.5c2.85,11.06,5.81,22.28,8.94,33.3,10.93,2.88,22.31,5.49,33.29,8,3,.68,5.89,1.37,8.86,2,21.36,4.93,33.78,21.47,30.21,40.23-2.68,14.22-12.3,23.88-25.56,27,7.93,8.1,16,16.23,24.08,24a5.72,5.72,0,0,0,1,.1l.3,0c7.49-2,14.83-4.28,22.64-6.73,7.41-2.36,15.14-4.81,23-6.89a35.64,35.64,0,0,1,9.18-1.21A33.64,33.64,0,0,1,1503,592.56a33.28,33.28,0,0,1-10,34.22c1.61.56,3.17,1.08,4.73,1.56,6.41,2,13,3.57,20,5.21,2.32.52,4.6,1,6.89,1.6a9.21,9.21,0,0,0,2.12.32,5.31,5.31,0,0,0,.92-1c9.5-11.66,20-22.52,30-33l1-1.09a35.72,35.72,0,0,1,25.73-11.21,33.27,33.27,0,0,1,23.07,9.25,33.63,33.63,0,0,1,9.06,34.06c11-2.93,22.11-6,33.05-9.14,2-7.93,3.89-16.18,5.69-24.2,1.56-7,3.21-14.22,5-21.39,2.48-10.14,8-18,16-22.8a32.44,32.44,0,0,1,16.81-4.55,37.71,37.71,0,0,1,9.27,1.18,33.07,33.07,0,0,1,23.92,24.28c8-8,16.07-16.27,24-24.44-2.48-8.85-5.28-17.91-8-26.69-1.64-5.44-3.32-10.93-5-16.38-6-20.32,2.25-38.31,20.6-44.76a35.28,35.28,0,0,1,11.73-2.07,31.67,31.67,0,0,1,23.61,10.68c3-11,6-22.31,8.81-33.45a0,0,0,0,1,0,0c-5.77-5.73-11.9-11.38-17.83-16.87-5.61-5.17-11.38-10.54-17-16-13.94-13.74-14.82-33.34-2.12-47.68a33.19,33.19,0,0,1,25-11.51,33.87,33.87,0,0,1,9.36,1.33c-2.93-11-5.93-22.2-9.06-33.18-10.85-2.72-22-5.29-32.73-7.77l-9.74-2.2c-20.55-4.77-32.78-21-29.69-39.43a33.15,33.15,0,0,1,25.68-27.61c-8.09-8.21-16.34-16.51-24.64-24.48h-.16c-7,1.92-14.3,4.25-21.4,6.45-8.25,2.61-16.74,5.29-25.4,7.53a35.24,35.24,0,0,1-9,1.18,33.18,33.18,0,0,1-31.94-24.06,33.66,33.66,0,0,1,9.06-34.41c-10.94-3.13-22-6.26-32.9-9.34a4.1,4.1,0,0,0-.8.84c-9.26,10.78-19.31,21.76-31.74,34.58A35,35,0,0,1,1549.78,207m17.29,144.68a45.11,45.11,0,0,1,32.1,13.46,46.81,46.81,0,0,1,13.74,33.23,46.81,46.81,0,0,0-13.74-33.23,45,45,0,0,0-64.27,0,46.75,46.75,0,0,0-13.67,33.15,46.75,46.75,0,0,1,13.67-33.15,45.13,45.13,0,0,1,32.17-13.5m0,0a45.11,45.11,0,0,1,32.1,13.46,46.81,46.81,0,0,1,13.74,33.23,46.81,46.81,0,0,0-13.74-33.23,45,45,0,0,0-64.27,0,46.75,46.75,0,0,0-13.67,33.15,46.75,46.75,0,0,1,13.67-33.15,45.13,45.13,0,0,1,32.17-13.5m0,0a45.11,45.11,0,0,1,32.1,13.46,46.81,46.81,0,0,1,13.74,33.23v.15a47.1,47.1,0,0,1-14.31,33.21,44.78,44.78,0,0,1-31.29,12.95c-.36,0-.76,0-1.16,0-24.64-.64-44.8-21.36-44.92-46.16v-.15a46.75,46.75,0,0,1,13.67-33.15,45.13,45.13,0,0,1,32.17-13.5m-18.55,46.48v.16a19.17,19.17,0,0,0,18.35,19.07h.55a17.41,17.41,0,0,0,12.19-5.26,19.51,19.51,0,0,0,6-13.78v-.08a19.5,19.5,0,0,0-5.77-13.87,18,18,0,0,0-12.78-5.49,18.18,18.18,0,0,0-12.86,5.49,19.44,19.44,0,0,0-5.69,13.75m18.55-19.24a18,18,0,0,1,12.78,5.49,19.5,19.5,0,0,1,5.77,13.87v0a19.5,19.5,0,0,0-5.77-13.87,18,18,0,0,0-12.78-5.49,18.18,18.18,0,0,0-12.86,5.49,19.44,19.44,0,0,0-5.69,13.75,19.44,19.44,0,0,1,5.69-13.75,18.18,18.18,0,0,1,12.86-5.49m0,0a18,18,0,0,1,12.78,5.49,19.5,19.5,0,0,1,5.77,13.87v0a19.5,19.5,0,0,0-5.77-13.87,18,18,0,0,0-12.78-5.49,18.18,18.18,0,0,0-12.86,5.49,19.44,19.44,0,0,0-5.69,13.75,19.44,19.44,0,0,1,5.69-13.75,18.18,18.18,0,0,1,12.86-5.49m-18.55,19.24v.16a19.17,19.17,0,0,0,18.35,19.07h.55a17.41,17.41,0,0,0,12.19-5.26,19.51,19.51,0,0,0,6-13.78,19.51,19.51,0,0,1-6,13.78,17.41,17.41,0,0,1-12.19,5.26h-.55a19.17,19.17,0,0,1-18.35-19.07v-.16m0,0v.16a19.17,19.17,0,0,0,18.35,19.07h.55a17.41,17.41,0,0,0,12.19-5.26,19.51,19.51,0,0,0,6-13.78,19.51,19.51,0,0,1-6,13.78,17.41,17.41,0,0,1-12.19,5.26h-.55a19.17,19.17,0,0,1-18.35-19.07v-.16m-27.29.17v.15c.12,24.8,20.28,45.52,44.92,46.16.4,0,.8,0,1.16,0a44.78,44.78,0,0,0,31.29-12.95,47.1,47.1,0,0,0,14.31-33.21v0a47.1,47.1,0,0,1-14.31,33.21,44.78,44.78,0,0,1-31.29,12.95c-.36,0-.76,0-1.16,0-24.64-.64-44.8-21.36-44.92-46.16v-.15m0,0v.15c.12,24.8,20.28,45.52,44.92,46.16.4,0,.8,0,1.16,0a44.78,44.78,0,0,0,31.29-12.95,47.1,47.1,0,0,0,14.31-33.21v0a47.1,47.1,0,0,1-14.31,33.21,44.78,44.78,0,0,1-31.29,12.95c-.36,0-.76,0-1.16,0-24.64-.64-44.8-21.36-44.92-46.16v-.15m24.38-291.35c-.66,0-1.31,0-2,.08-2.68.22-5.3.48-8,.8a279.14,279.14,0,0,0-73.5,18.3l-.06,0c-11.15,4.5-19.76,13.71-24.78,26.35l-2.7-2.06a24,24,0,0,0-31.52,2.11l-8.42,8.42c-4,4-7.77,7.77-11.65,11.61-12.44,12.36-25.26,25.1-37.75,38.24-11.22,11.76-13.66,27.54-12.19,39.87l-1.59-.35a24,24,0,0,0-28.34,17.24l-3.34,12.51c-1.23,4.47-2.51,9.18-4.14,15.25-4.29,15.78-9.62,35.42-14.27,54.28l0,.06c-3.28,13.45.46,27.54,10.28,39.49l-4.94,2.42A24,24,0,0,0,1274,419.16l2.81,10.81v0c.9,3.45,1.81,6.93,2.71,10.41l1.37,5.3.88,3.4c4.11,15.95,8.37,32.43,13,48.74,4.79,17,18.89,27.23,30.89,31.49l-4.17,7.48a24,24,0,0,0,3.81,28.47l7.13,7.29c4,4,8.15,8.36,11.51,11.83,10.88,11.23,23.22,24,35.78,36,8.89,8.53,21.83,13.43,35.46,13.43a51.64,51.64,0,0,0,13.06-1.62l.45-.11.07,9.33a24,24,0,0,0,15.77,22.36l1.08.39c3.7,1.35,7.2,2.63,10.47,3.88l.33.13,1.68.61c8.18,3,15.91,5.83,24.08,8.42l.08,0c8.07,2.53,15.79,4.33,23.24,6.07l.56.13,6.58,1.54a60.37,60.37,0,0,0,14.1,1.74A50.08,50.08,0,0,0,1559,675.36l2.61,5.16A24,24,0,0,0,1583,693.7a24.34,24.34,0,0,0,6.18-.81l10.69-2.85,7.68-2,7.74-2c16-4.22,34.11-9,51.86-14.24,14.71-4.34,24.25-15.76,29.26-27.08l1.1,1a24,24,0,0,0,32.85-1.1l9.05-9.09.06,0c3.67-3.71,7.46-7.51,11.13-11.18,12.74-12.74,26.31-26.38,39.38-40,11.31-11.84,13.22-27.84,11.06-40.49l7.22.08h.3a24,24,0,0,0,23.16-17.71l2.76-10.18c1.4-5.13,2.85-10.46,4.32-15.68l0-.12.44-1.6c4.42-16.08,9-32.72,13.11-49.44,3.8-15.51-1.76-31.17-9.84-41.68l4.17-1.81a24,24,0,0,0,13.65-28.17l-3-11.34c-.67-2.5-1.33-5-2-7.47s-1.32-5-2-7.5c-.78-2.94-1.57-5.88-2.35-8.82-4-14.9-8.09-30.31-12.43-45.49-4.54-16-17.51-25.61-29.46-29.86l3.45-5.19a24,24,0,0,0-2.93-30.17l-7.81-7.9c-3.74-3.77-7.37-7.48-11.22-11.41l-.19-.2c-12.44-12.69-24.64-25.08-37.23-37.22-8.54-8.22-20.47-12.75-33.6-12.75a55.65,55.65,0,0,0-6.09.34l.44-3.5a24,24,0,0,0-17.2-26.07l-28.81-8.25-.05,0-23.25-6.62-23.19-6.6a53.07,53.07,0,0,0-14.44-2c-10.12,0-24.72,3-37.74,17.29l-.42-1.65a24,24,0,0,0-23.22-18Zm4.17,124a58.68,58.68,0,0,0,42.47-18.14c4.89-5.05,9.46-9.85,13.77-14.49a58.59,58.59,0,0,0,2.39,13.09,57.21,57.21,0,0,0,54.91,41.1,59.26,59.26,0,0,0,15-1.95c7.55-2,14.81-4.17,21.86-6.38a59.51,59.51,0,0,0-5.66,17.35c-5.18,31,15,59.07,48,66.72l.12,0,9.66,2.19,1.66.38,5,1.16a60,60,0,0,0-11.82,10.28,58,58,0,0,0-14.94,41.06c.66,14.64,7.12,28.72,18.19,39.63l.06.06c5.25,5.14,10.52,10.07,15.51,14.68a60.2,60.2,0,0,0-16,3.3c-15.08,5.3-26.9,15.88-33.3,29.8-6.18,13.43-7,28.79-2.37,44.42l0,.11q1.25,4.13,2.51,8.26c.82,2.71,1.65,5.43,2.46,8.13l0,.1.23.74a55.52,55.52,0,0,0-11.29-4.18,61.37,61.37,0,0,0-15.17-1.92,56.63,56.63,0,0,0-29.18,8c-13.39,8-23,21.42-26.93,37.65-1.67,6.78-3.21,13.55-4.47,19.13a57.55,57.55,0,0,0-48.06-26,59.37,59.37,0,0,0-43,18.56l-1,1.09c-3.94,4.08-8.09,8.39-12.32,12.89a57.75,57.75,0,0,0-57.77-54.07,60,60,0,0,0-15.32,2c-7.13,1.9-14.06,4-21.07,6.26a60.84,60.84,0,0,0,5.39-16.07,55.41,55.41,0,0,0-10.15-44.16c-8.83-11.77-22.41-20.26-38.25-23.91l-.32-.07c-2.33-.5-4.65-1-7.11-1.6l-1.44-.34-1-.23-6-1.37a59.32,59.32,0,0,0,11.33-9.72,57.26,57.26,0,0,0,15.27-42.42c-1-14.89-7.91-29.27-19.56-40.49l-.08-.07c-4.18-4-8.76-8.29-13.94-13.08a60.29,60.29,0,0,0,15.18-3c30.12-10.13,46.17-40.93,37.36-71.65l0-.08c-2.06-7.09-4.19-14.05-6-19.92l0-.15a57.58,57.58,0,0,0,12.79,4.51,63.58,63.58,0,0,0,13.81,1.56c27.15,0,49.16-18.1,56.07-46.12,1.55-6.21,3-12.44,4.34-18.51a59.6,59.6,0,0,0,9.64,11.1A57.53,57.53,0,0,0,1549.78,231Zm17.29,96.68a69,69,0,0,0-49.18,20.57l0,0a70.64,70.64,0,0,0-20.62,50h0v.26a70.63,70.63,0,0,0,67.66,70c1.08.07,1.94.07,2.42.07a68.79,68.79,0,0,0,48-19.7l0-.05a71.27,71.27,0,0,0,21.57-50.26v-.3h0a70.63,70.63,0,0,0-20.74-50.16,68.85,68.85,0,0,0-49.1-20.53Z"
               color="rgb(0, 0, 0)"
               fill="rgb(243, 255, 0)"
               stroke="none"
               id="path46" />
            <path
               d="M1545.59,130.93l7.18,27.73c-2.69,3.28-5,6.13-7.18,8.89-2.36,3-3.6,7.33-.08,10.5a6.35,6.35,0,0,0,4.28,1.69,8,8,0,0,0,5.62-2.61c12-12.38,21.76-23,30.61-33.3,6.93-8.12,14.45-10.55,21-10.55a29.08,29.08,0,0,1,7.88,1.13l46.44,13.23,28.81,8.25-2.84,22.56-7.74,2.88c-1.88.73-3.8,1.41-5.69,2.09-4,1.48-7.85,2.84-11.54,4.37-4.16,1.76-6,5-4.84,8.77a6.23,6.23,0,0,0,6,4.68,7.81,7.81,0,0,0,2-.27c8-2.09,15.87-4.57,24.16-7.17,7.33-2.33,15-4.69,22.6-6.82a29.14,29.14,0,0,1,7.42-.93c6,0,12.45,1.7,16.94,6,12.5,12.06,24.84,24.61,36.74,36.75,3.85,3.92,7.66,7.81,11.5,11.7l7.82,7.89L1779.51,268l-8.69-1.48c-1.6-.24-3.21-.52-4.81-.76-3.36-.6-6.57-1.16-9.78-1.6a21.76,21.76,0,0,0-3-.23c-7.07,0-7.76,4.25-8,6-1,5.77,7.29,8,9,8.37l9.62,2.2c11.54,2.65,23.48,5.37,35.18,8.34,6.21,1.6,14.26,6.33,16.59,14.5,5.13,18,9.93,36.23,14.66,53.9l4,14.94,3,11.34-21.91,9.5-6.45-5.57-4.33-3.73c-3-2.68-5.93-5.21-8.9-7.53a9.09,9.09,0,0,0-5.4-2.27,6,6,0,0,0-4.61,2.35c-3,3.37-2.73,6.69.84,10.18,5.29,5.21,10.9,10.37,16.3,15.42,6.22,5.69,12.63,11.62,18.76,17.75,5.37,5.33,9.69,15.19,7.61,23.68-4.17,16.95-8.86,33.94-13.38,50.41-1.49,5.29-2.93,10.58-4.37,15.87l-2.77,10.18-23.16-.28-5-13c-1.25-3.24-2.53-6.49-3.73-9.77-2.4-6.49-5.09-7.88-7.2-7.88a7.3,7.3,0,0,0-2.5.54c-1.84.6-6.13,2.17-3.44,11.22,1.6,5.41,3.24,10.78,4.89,16.19,2.8,9.18,5.73,18.67,8.37,28.17,1.8,6.53,1.8,16.35-4.13,22.56-12.86,13.42-26.12,26.76-39,39.63-3.77,3.76-7.54,7.53-11.26,11.3l-9.06,9.09-17.83-15.67,2.36-12.9c.73-3.8,1.45-7.65,2.17-11.5s-.32-8.41-4.29-9.45a11.43,11.43,0,0,0-2.59-.34,5.35,5.35,0,0,0-2.82.7c-1.6.92-2.84,3-3.56,6-1.69,6.85-3.29,13.94-4.81,20.79-1.85,8.26-3.77,16.79-5.93,25.25-1.45,5.49-6.29,15.5-15.67,18.27-17,5-34.42,9.61-51.25,14.06l-15.42,4.09-10.7,2.84-10.78-21.31,5.69-6.9c1.12-1.36,2.24-2.68,3.4-4,2.41-2.89,4.77-5.61,7-8.46,1.16-1.48,4.68-6.69.44-10.74a6.16,6.16,0,0,0-4.31-1.76,8.54,8.54,0,0,0-6,2.89l-1,1.08c-9.74,10.1-19.76,20.51-28.57,31.29-6,7.3-13.32,11-22,11a35.7,35.7,0,0,1-8.53-1.09l-6.7-1.56c-7.21-1.69-14.66-3.41-22.07-5.73-8.22-2.61-16.23-5.57-24.77-8.7-3.76-1.44-7.73-2.88-11.9-4.41l-.2-25.56c2.57-1,4.93-1.84,7.14-2.68,4.36-1.61,8.13-3,11.7-4.49,3.12-1.28,6.57-3.85,5.24-8.74a6.13,6.13,0,0,0-6.16-4.82,8.86,8.86,0,0,0-2.37.34c-7.21,1.88-14.26,4.12-21.76,6.53-7.81,2.44-15.9,5-24.16,7.17a28.12,28.12,0,0,1-7,.84c-6.59,0-13.93-2-18.87-6.77-12.06-11.54-23.8-23.64-35.14-35.34-3.85-4-7.74-8-11.58-11.9l-7.14-7.29,11.3-20.28,13.55,2.12c3.16.48,6.29,1,9.45,1.53a25.21,25.21,0,0,0,4,.35c7.09,0,7.88-4.16,8.22-5.88,1-5.49-6.37-7.82-9.57-8.54l-8.78-2c-11.54-2.61-23.44-5.33-35.14-8.5-6.81-1.8-15.22-7.61-17.59-16-4.89-17.19-9.37-34.7-13.74-51.61-1.36-5.25-2.73-10.54-4.09-15.75l-2.8-10.82,20.91-10.25,10.78,9.05c2.93,2.44,5.81,4.89,8.78,7.25,2.77,2.27,4.91,3,6.55,3a5.45,5.45,0,0,0,4.22-2.17c1.53-1.64,4.69-5.12-1.88-11.46-5.09-4.84-10.38-9.77-15.51-14.5C1325.17,388.53,1319,382.8,1313,377c-3.32-3.25-10.73-11.78-8.33-21.64,4.45-18,9.38-36.22,14.14-53.77,1.37-5.09,2.73-10.14,4.13-15.23l3.37-12.58,24,5.29,2.48,7.17c.64,1.85,1.28,3.73,1.89,5.57,1.28,3.81,2.48,7.38,3.88,10.7,1.69,3.93,4,4.82,5.82,4.82a7.63,7.63,0,0,0,2.52-.49c4.12-1.4,5.69-4.57,4.4-8.9-1.8-6.37-3.76-12.82-5.73-19.07-2.72-8.89-5.57-18.15-8-27.41-1.88-7-1.12-17.63,5-24.08,12.22-12.86,25-25.52,37.26-37.74,3.93-3.89,7.82-7.77,11.74-11.7l8.42-8.42,18.55,14.15-2.28,13.1c-.69,3.85-1.33,7.65-2,11.46-.48,2.57-1,8.66,4.37,9.9a12.45,12.45,0,0,0,2.66.39c2.31,0,4.75-1.26,6.24-7.2,1.76-7.18,3.4-14.59,5-21.72,1.73-7.61,3.49-15.47,5.41-23.24,1.65-6.45,5.21-14.79,13.07-17.95a255.42,255.42,0,0,1,67.31-16.75c2.4-.28,4.81-.52,7.25-.72m4.19,76a33.78,33.78,0,0,1-32-44.37,214.69,214.69,0,0,0-33.14,9.82c-.08.16-.12.36-.2.56-1.84,7.49-3.61,15.19-5.29,22.68-1.64,7.25-3.33,14.78-5.17,22.2-4.3,17.43-17,27.86-32.77,27.86a38.74,38.74,0,0,1-8.54-1,32.47,32.47,0,0,1-24.84-24.48c-8,8-16.07,16.11-23.88,24.24v0c2.36,8.78,5.12,17.71,7.77,26.33,2,6.37,4,12.94,5.89,19.55,5.29,18.43-3.93,36.22-21.92,42.27a35.52,35.52,0,0,1-11.32,1.9,32.22,32.22,0,0,1-23.5-10.11c-3,11-5.89,22.12-8.65,33.18,5.69,5.53,11.7,11.06,17.47,16.43,5.21,4.8,10.57,9.81,15.82,14.82,15.15,14.59,16.47,34.9,3.17,49.49a32.49,32.49,0,0,1-24.29,11,34.23,34.23,0,0,1-9.93-1.5c2.85,11.06,5.81,22.28,8.94,33.3,10.93,2.88,22.31,5.49,33.29,8,3,.68,5.89,1.37,8.86,2,21.36,4.93,33.78,21.47,30.21,40.23-2.68,14.22-12.3,23.88-25.56,27,7.93,8.1,16,16.23,24.08,24a5.72,5.72,0,0,0,1,.1l.3,0c7.49-2,14.83-4.28,22.64-6.73,7.41-2.36,15.14-4.81,23-6.89a35.64,35.64,0,0,1,9.18-1.21A33.64,33.64,0,0,1,1503,592.56a33.28,33.28,0,0,1-10,34.22c1.61.56,3.17,1.08,4.73,1.56,6.41,2,13,3.57,20,5.21,2.32.52,4.6,1,6.89,1.6a9.21,9.21,0,0,0,2.12.32,5.31,5.31,0,0,0,.92-1c9.5-11.66,20-22.52,30-33l1-1.09a35.72,35.72,0,0,1,25.73-11.21,33.27,33.27,0,0,1,23.07,9.25,33.63,33.63,0,0,1,9.06,34.06c11-2.93,22.11-6,33.05-9.14,2-7.93,3.89-16.18,5.69-24.2,1.56-7,3.21-14.22,5-21.39,2.48-10.14,8-18,16-22.8a32.44,32.44,0,0,1,16.81-4.55,37.71,37.71,0,0,1,9.27,1.18,33.07,33.07,0,0,1,23.92,24.28c8-8,16.07-16.27,24-24.44-2.48-8.85-5.28-17.91-8-26.69-1.64-5.44-3.32-10.93-5-16.38-6-20.32,2.25-38.31,20.6-44.76a35.28,35.28,0,0,1,11.73-2.07,31.67,31.67,0,0,1,23.61,10.68c3-11,6-22.31,8.81-33.45a0,0,0,0,1,0,0c-5.77-5.73-11.9-11.38-17.83-16.87-5.61-5.17-11.38-10.54-17-16-13.94-13.74-14.82-33.34-2.12-47.68a33.19,33.19,0,0,1,25-11.51,33.87,33.87,0,0,1,9.36,1.33c-2.93-11-5.93-22.2-9.06-33.18-10.85-2.72-22-5.29-32.73-7.77l-9.74-2.2c-20.55-4.77-32.78-21-29.69-39.43a33.15,33.15,0,0,1,25.68-27.61c-8.09-8.21-16.34-16.51-24.64-24.48h-.16c-7,1.92-14.3,4.25-21.4,6.45-8.25,2.61-16.74,5.29-25.4,7.53a35.24,35.24,0,0,1-9,1.18,33.18,33.18,0,0,1-31.94-24.06,33.66,33.66,0,0,1,9.06-34.41c-10.94-3.13-22-6.26-32.9-9.34a4.1,4.1,0,0,0-.8.84c-9.26,10.78-19.31,21.76-31.74,34.58A35,35,0,0,1,1549.78,207m17.29,144.68a45.11,45.11,0,0,1,32.1,13.46,46.81,46.81,0,0,1,13.74,33.23,46.81,46.81,0,0,0-13.74-33.23,45,45,0,0,0-64.27,0,46.75,46.75,0,0,0-13.67,33.15,46.75,46.75,0,0,1,13.67-33.15,45.13,45.13,0,0,1,32.17-13.5m0,0a45.11,45.11,0,0,1,32.1,13.46,46.81,46.81,0,0,1,13.74,33.23,46.81,46.81,0,0,0-13.74-33.23,45,45,0,0,0-64.27,0,46.75,46.75,0,0,0-13.67,33.15,46.75,46.75,0,0,1,13.67-33.15,45.13,45.13,0,0,1,32.17-13.5m0,0a45.11,45.11,0,0,1,32.1,13.46,46.81,46.81,0,0,1,13.74,33.23v.15a47.1,47.1,0,0,1-14.31,33.21,44.78,44.78,0,0,1-31.29,12.95c-.36,0-.76,0-1.16,0-24.64-.64-44.8-21.36-44.92-46.16v-.15a46.75,46.75,0,0,1,13.67-33.15,45.13,45.13,0,0,1,32.17-13.5m-18.55,46.48v.16a19.17,19.17,0,0,0,18.35,19.07h.55a17.41,17.41,0,0,0,12.19-5.26,19.51,19.51,0,0,0,6-13.78v-.08a19.5,19.5,0,0,0-5.77-13.87,18,18,0,0,0-12.78-5.49,18.18,18.18,0,0,0-12.86,5.49,19.44,19.44,0,0,0-5.69,13.75m18.55-19.24a18,18,0,0,1,12.78,5.49,19.5,19.5,0,0,1,5.77,13.87v0a19.5,19.5,0,0,0-5.77-13.87,18,18,0,0,0-12.78-5.49,18.18,18.18,0,0,0-12.86,5.49,19.44,19.44,0,0,0-5.69,13.75,19.44,19.44,0,0,1,5.69-13.75,18.18,18.18,0,0,1,12.86-5.49m0,0a18,18,0,0,1,12.78,5.49,19.5,19.5,0,0,1,5.77,13.87v0a19.5,19.5,0,0,0-5.77-13.87,18,18,0,0,0-12.78-5.49,18.18,18.18,0,0,0-12.86,5.49,19.44,19.44,0,0,0-5.69,13.75,19.44,19.44,0,0,1,5.69-13.75,18.18,18.18,0,0,1,12.86-5.49m-18.55,19.24v.16a19.17,19.17,0,0,0,18.35,19.07h.55a17.41,17.41,0,0,0,12.19-5.26,19.51,19.51,0,0,0,6-13.78,19.51,19.51,0,0,1-6,13.78,17.41,17.41,0,0,1-12.19,5.26h-.55a19.17,19.17,0,0,1-18.35-19.07v-.16m0,0v.16a19.17,19.17,0,0,0,18.35,19.07h.55a17.41,17.41,0,0,0,12.19-5.26,19.51,19.51,0,0,0,6-13.78,19.51,19.51,0,0,1-6,13.78,17.41,17.41,0,0,1-12.19,5.26h-.55a19.17,19.17,0,0,1-18.35-19.07v-.16m-27.29.17v.15c.12,24.8,20.28,45.52,44.92,46.16.4,0,.8,0,1.16,0a44.78,44.78,0,0,0,31.29-12.95,47.1,47.1,0,0,0,14.31-33.21v0a47.1,47.1,0,0,1-14.31,33.21,44.78,44.78,0,0,1-31.29,12.95c-.36,0-.76,0-1.16,0-24.64-.64-44.8-21.36-44.92-46.16v-.15m0,0v.15c.12,24.8,20.28,45.52,44.92,46.16.4,0,.8,0,1.16,0a44.78,44.78,0,0,0,31.29-12.95,47.1,47.1,0,0,0,14.31-33.21v0a47.1,47.1,0,0,1-14.31,33.21,44.78,44.78,0,0,1-31.29,12.95c-.36,0-.76,0-1.16,0-24.64-.64-44.8-21.36-44.92-46.16v-.15m24.37-271.35h-.33c-2.47.2-4.89.44-7.39.74a259.6,259.6,0,0,0-68.34,17c-7.43,3-12.77,10.15-15.45,20.68-1.8,7.27-3.45,14.58-5,21.65l-.39,1.7-1.31,5.75c-1.2,5.25-2.44,10.67-3.72,15.89-.31,1.24-1.17,4.16-2.35,4.16a9.35,9.35,0,0,1-1.78-.29c-1.92-.45-1.65-3.49-1.32-5.26.52-2.72,1-5.48,1.47-8.15.19-1.11.39-2.23.58-3.35l2.29-13.11a4,4,0,0,0-1.52-3.87l-18.55-14.15a4,4,0,0,0-5.25.36l-8.42,8.41,0,.05c-3.82,3.82-7.78,7.77-11.68,11.64-12.32,12.23-25,24.88-37.35,37.83-7.26,7.59-8.26,19.47-6,27.87,2.44,9.09,5.21,18.13,7.89,26.88l.2.66c2.25,7.18,4.12,13.38,5.71,19,.76,2.6-.06,3.41-1.85,4a4,4,0,0,1-1.23.28c-.92,0-1.67-1.3-2.14-2.4-1.34-3.17-2.52-6.68-3.77-10.39-.55-1.67-1.17-3.51-1.9-5.61l-2.48-7.17a4,4,0,0,0-2.92-2.59l-24-5.29a3.69,3.69,0,0,0-.87-.1,4,4,0,0,0-3.86,3l-3.36,12.58c-1.23,4.44-2.5,9.14-4.13,15.23-4.26,15.67-9.56,35.2-14.16,53.85-2.9,11.85,5.62,21.75,9.42,25.45,5,4.88,10.19,9.7,15.19,14.36l3,2.78c5.86,5.4,10.92,10.13,15.47,14.47,2.12,2,2.81,3.54,2.75,4.25a3.37,3.37,0,0,1-1,1.6l-.08.08c-.54.62-.81.8-1.21.8s-1.7-.2-4-2.1l0,0c-2.38-1.9-4.77-3.9-7.08-5.84l-1.62-1.36-10.77-9.05a4,4,0,0,0-2.58-.93,4,4,0,0,0-1.76.4l-20.91,10.26a4,4,0,0,0-2.11,4.6l2.8,10.82q1.36,5.19,2.71,10.45l1.38,5.29.89,3.45c4.08,15.82,8.31,32.18,12.87,48.25,2.8,9.92,12.55,16.68,20.42,18.76,11.65,3.15,23.34,5.84,35.28,8.53l3.07.72,5.68,1.32c3.41.76,6.84,2.38,6.55,3.89s-.52,2.63-4.29,2.63a20.81,20.81,0,0,1-3.31-.3l-1.17-.19c-2.72-.45-5.53-.92-8.33-1.34l-13.53-2.12a4.21,4.21,0,0,0-.62,0,4,4,0,0,0-3.49,2L1339,546.58a4,4,0,0,0,.63,4.74l7.14,7.29c3.71,3.79,7.43,7.63,11.56,11.89,10.77,11.11,23,23.7,35.25,35.45,5.23,5,13.11,7.88,21.64,7.88a31.7,31.7,0,0,0,8-1c7.8-2.05,15.42-4.43,22.79-6.74l1.56-.49c8-2.57,14.7-4.68,21.57-6.47a5.19,5.19,0,0,1,1.36-.21,2.17,2.17,0,0,1,2.3,1.87c.26.94.68,2.52-2.9,4s-7.53,3-11.56,4.43l0,0c-1.75.67-3.61,1.36-5.58,2.1l-1.53.58a4,4,0,0,0-2.6,3.77l.2,25.57a4,4,0,0,0,2.63,3.72l1.07.39c3.78,1.38,7.36,2.69,10.77,4l.06,0,1.67.61c8,2.92,15.5,5.68,23.26,8.14,7.37,2.31,14.71,4,21.81,5.68l.57.13,6.69,1.56a39.85,39.85,0,0,0,9.44,1.2c9.91,0,18.35-4.19,25.1-12.46,8.86-10.84,19.21-21.57,28.35-31l1-1.09a4.76,4.76,0,0,1,3.15-1.66,2.19,2.19,0,0,1,1.54.65c1.61,1.54.44,3.78-.82,5.39-1.58,2-3.23,4-5,6.07l-1.92,2.29c-1,1.19-2.23,2.61-3.42,4.06l-5.69,6.89a4,4,0,0,0-.48,4.35l10.78,21.32a4,4,0,0,0,3.57,2.19,4.1,4.1,0,0,0,1-.13l10.69-2.85,7.7-2,7.73-2c15.87-4.2,33.86-9,51.35-14.1,10.29-3,16.35-13.25,18.41-21.09,2.14-8.39,4-16.79,6-25.39,1.4-6.3,3.07-13.69,4.79-20.71.59-2.38,1.41-3.3,1.68-3.46l.08,0a1.7,1.7,0,0,1,.74-.11,7.74,7.74,0,0,1,1.62.22c1.53.45,1.63,3.14,1.32,4.86-.71,3.82-1.43,7.66-2.16,11.47l-2.36,12.92a4,4,0,0,0,1.29,3.73l17.83,15.67a4,4,0,0,0,2.64,1,4,4,0,0,0,2.84-1.18l9-9.09c3.72-3.76,7.54-7.58,11.23-11.27,12.66-12.66,26.13-26.21,39.07-39.71,7.09-7.43,7.18-18.86,5.1-26.4-2.47-8.86-5.18-17.7-7.79-26.26l-.62-2-.94-3.1c-1.3-4.27-2.65-8.69-3.94-13-.91-3.08-.8-4.9-.39-5.58.2-.32.57-.48,1.24-.7l.12,0a3.84,3.84,0,0,1,1.14-.31c.42,0,1.85.95,3.45,5.26.85,2.34,1.76,4.69,2.64,7,.37.95.74,1.91,1.1,2.86l5,13a4,4,0,0,0,3.69,2.55l23.16.29h0a4,4,0,0,0,3.85-3l2.77-10.17c1.41-5.18,2.87-10.55,4.36-15.84l.45-1.62c4.38-16,8.92-32.46,13-48.91,2.56-10.42-2.7-21.55-8.68-27.48-6.32-6.32-13-12.53-18.86-17.86l-2.66-2.47c-4.51-4.2-9.17-8.54-13.55-12.85-2.45-2.4-1.85-3.34-.66-4.67.89-1,1.43-1,1.63-1a5.47,5.47,0,0,1,2.92,1.41c2.85,2.23,5.64,4.67,8.73,7.39l2.53,2.18,1.83,1.58,6.45,5.57a4,4,0,0,0,4.21.64l21.91-9.5a4,4,0,0,0,2.28-4.69l-3-11.34q-1-3.75-2-7.5l-2-7.45c-.79-2.93-1.57-5.87-2.36-8.83-4-14.81-8-30.12-12.33-45.13-2.77-9.77-12.2-15.42-19.43-17.28-11.31-2.87-22.82-5.51-34-8.06l-1.33-.3L1755,274.4c-2.6-.62-6.18-2.22-5.92-3.82.24-1.4.44-2.61,4.1-2.61a17.94,17.94,0,0,1,2.51.19c3.14.43,6.34,1,9.62,1.58l.11,0c.78.11,1.57.24,2.35.37l2.42.38,8.65,1.48a5.19,5.19,0,0,0,.68.05,4,4,0,0,0,3.33-1.78l13.06-19.63a4,4,0,0,0-.49-5l-7.81-7.9c-3.77-3.8-7.58-7.69-11.26-11.45l-.23-.23c-12.33-12.58-24.42-24.87-36.82-36.83-6.45-6.21-15.13-7.14-19.72-7.14a33.12,33.12,0,0,0-8.46,1.07c-7.9,2.19-15.61,4.59-22.77,6.86l-1,.31c-7.92,2.48-15.39,4.83-23,6.81a4,4,0,0,1-1,.14,2.33,2.33,0,0,1-2.14-1.82c-.21-.7-.77-2.54,2.57-3.95,3.08-1.27,6.3-2.45,9.71-3.69l1.65-.61,1.16-.41c1.5-.55,3.06-1.1,4.58-1.69l7.7-2.87a4,4,0,0,0,2.57-3.25l2.85-22.56a4,4,0,0,0-2.87-4.34l-28.81-8.26-23.2-6.61L1616,130.57a32.81,32.81,0,0,0-9-1.29c-9.17,0-17.25,4-24,11.95-9,10.47-18.68,21-30.44,33.11a4,4,0,0,1-2.75,1.4,2.34,2.34,0,0,1-1.6-.66c-1.66-1.49-.62-3.57.55-5.06,2.15-2.75,4.46-5.57,7.12-8.83a4,4,0,0,0,.78-3.54l-7.17-27.72a4,4,0,0,0-3.87-3Zm4.18,84a38.86,38.86,0,0,0,28.1-12c11.91-12.29,21.78-23,31-33.68l24.43,6.93a37.81,37.81,0,0,0-5.73,33.46,37.33,37.33,0,0,0,35.77,26.9,39.52,39.52,0,0,0,10-1.31c8.66-2.24,17.15-4.92,25.35-7.51l.24-.07,2.9-.91c5.39-1.68,11-3.41,16.29-4.93,6.36,6.16,12.68,12.47,18.42,18.27-11.9,5-20,15.38-22.25,28.74-3.44,20.62,10,38.7,32.74,44l9.75,2.21,1.69.39c9.44,2.19,19.18,4.44,28.72,6.8,2.37,8.4,4.68,16.93,6.76,24.73a38.18,38.18,0,0,0-3.85-.2,37.08,37.08,0,0,0-28,12.86c-14.18,16-13.23,37.87,2.31,53.18,5.78,5.66,11.63,11.09,17.08,16.12l1,.95c5,4.65,10.2,9.44,15.12,14.26-1.89,7.55-4,15.75-6.52,24.86a35.23,35.23,0,0,0-21.47-7.33,39.45,39.45,0,0,0-13.05,2.29c-10.06,3.54-17.57,10.21-21.75,19.29s-4.59,19.47-1.36,30.38c.82,2.75,1.66,5.48,2.49,8.21s1.66,5.47,2.48,8.2l1,3.09c2.14,7,4.36,14.23,6.38,21.31-5.86,6.06-11.83,12.16-17.82,18.22a36.49,36.49,0,0,0-24.61-20.81,41.87,41.87,0,0,0-10.25-1.3,36.58,36.58,0,0,0-18.87,5.12c-8.92,5.35-15.08,14.09-17.81,25.27-1.92,7.78-3.67,15.57-5,21.48l-.27,1.17c-1.53,6.84-3.12,13.89-4.83,20.7-7.69,2.21-15.8,4.46-24.57,6.82a37.63,37.63,0,0,0-37.3-41.79,39.56,39.56,0,0,0-28.62,12.44l-1,1.08c-9.4,9.74-20,20.76-29.61,32.42-2.28-.55-4.53-1.06-6.62-1.53-6.06-1.42-12.35-2.9-18.4-4.72a37.05,37.05,0,0,0,6.64-33.44,37.51,37.51,0,0,0-36.51-27.78,40,40,0,0,0-10.21,1.34c-7.69,2.06-15.34,4.46-23.15,7l-1.58.5c-6.76,2.11-13.16,4.12-19.62,5.85-6.28-6.09-12.53-12.36-18.2-18.12,11.57-4.89,19.65-15,22.11-28a35.68,35.68,0,0,0-6.49-28.44c-6-8-15.51-13.84-26.75-16.43h-.06c-2.45-.53-4.95-1.11-7.36-1.66l-1.44-.34-1-.23c-9.89-2.27-20.1-4.62-30-7.17-2.07-7.37-4.23-15.4-6.67-24.78a36.29,36.29,0,0,0,31.69-12.08,37.42,37.42,0,0,0,10.12-27.68c-.64-9.9-5.42-19.62-13.47-27.37-4.7-4.48-9.89-9.34-15.89-14.88l-3-2.82c-4.21-3.91-8.54-7.93-12.71-11.94,1.88-7.48,4-15.49,6.42-24.69a36,36,0,0,0,21.29,6.89,39.67,39.67,0,0,0,12.59-2.1c20.1-6.76,30.4-26.6,24.49-47.17-2-7-4.12-13.83-5.91-19.63l-.46-1.5c-2.27-7.4-4.62-15-6.69-22.54,5.37-5.57,11.21-11.51,17.71-18a36.25,36.25,0,0,0,25.69,21,43.21,43.21,0,0,0,9.42,1.07c17.91,0,32-11.84,36.65-30.9,1.65-6.63,3.17-13.36,4.65-19.87l.54-2.41c1.33-5.9,3.06-13.53,4.91-21.1a204.88,204.88,0,0,1,24.48-7.53A37.79,37.79,0,0,0,1549.78,211Zm17.29,136.68a49.12,49.12,0,0,0-35,14.68,50.77,50.77,0,0,0-14.83,36h0v.16c.13,26.91,22,49.37,48.68,50.14.53.05,1,.05,1.4.05a48.94,48.94,0,0,0,34.08-14.07,51.19,51.19,0,0,0,15.52-36.07v-.16h0A50.77,50.77,0,0,0,1602,362.27a49,49,0,0,0-34.93-14.64Zm-10.62,40.18c.2-.21.4-.43.6-.63a14.18,14.18,0,0,1,10-4.31,13.94,13.94,0,0,1,9.94,4.31,15.53,15.53,0,0,1,4.61,11.05v.06a15.54,15.54,0,0,1-4.79,10.93,13.39,13.39,0,0,1-9.41,4.13H1567a15.14,15.14,0,0,1-14.49-15.09v-.14a15.47,15.47,0,0,1,3.93-10.3Z"
               color="rgb(0, 0, 0)"
               fill="rgb(0, 0, 0)"
               stroke="none"
               id="path47" />
            <path
               class="logo-cls-3"
               d="M1802,438.78c-5.77-5.73-11.9-11.38-17.83-16.87-5.61-5.17-11.38-10.54-17-16-13.94-13.74-14.82-33.34-2.12-47.68A33.08,33.08,0,0,1,1799.47,348c-2.93-11-5.93-22.2-9.06-33.18-10.85-2.72-22-5.29-32.73-7.77l-9.74-2.2c-20.55-4.77-32.78-21-29.69-39.43a33.15,33.15,0,0,1,25.68-27.61c-8.09-8.21-16.34-16.51-24.64-24.48h-.16c-7,1.92-14.3,4.25-21.4,6.45-8.25,2.61-16.74,5.29-25.4,7.53a33.28,33.28,0,0,1-40.95-22.88,33.66,33.66,0,0,1,9.06-34.41c-10.94-3.13-22-6.26-32.9-9.34a4.1,4.1,0,0,0-.8.84c-9.26,10.78-19.31,21.76-31.74,34.58-13.1,13.54-34,14.5-47.72,2.2a33.42,33.42,0,0,1-9.53-35.74,214.69,214.69,0,0,0-33.14,9.82c-.08.16-.12.36-.2.56-1.84,7.49-3.61,15.19-5.29,22.68-1.64,7.25-3.33,14.78-5.17,22.2-5,20.47-21.68,31.29-41.31,26.88a32.47,32.47,0,0,1-24.84-24.48c-8,8-16.07,16.11-23.88,24.24v0c2.36,8.78,5.12,17.71,7.77,26.33,2,6.37,4,12.94,5.89,19.55,5.29,18.43-3.93,36.22-21.92,42.27-13,4.37-26,1-34.82-8.21-3,11-5.89,22.12-8.65,33.18,5.69,5.53,11.7,11.06,17.47,16.43,5.21,4.8,10.58,9.81,15.82,14.82,15.15,14.59,16.47,34.9,3.17,49.49a32.48,32.48,0,0,1-34.22,9.53c2.85,11.06,5.81,22.28,8.94,33.3,10.93,2.88,22.31,5.49,33.29,8,3,.68,5.89,1.37,8.86,2,21.36,4.93,33.78,21.47,30.21,40.23-2.68,14.22-12.3,23.88-25.56,27,7.93,8.1,16,16.23,24.08,24a4.88,4.88,0,0,0,1.28.08c7.49-2,14.83-4.28,22.64-6.73,7.41-2.36,15.14-4.81,23-6.89,18.47-4.89,36.82,5.49,41.83,23.64a33.28,33.28,0,0,1-10,34.22c1.61.56,3.17,1.08,4.73,1.56,6.41,2,13,3.57,20,5.21,2.32.52,4.6,1,6.89,1.6a9.21,9.21,0,0,0,2.12.32,5.31,5.31,0,0,0,.92-1c9.5-11.66,20-22.52,30-33l1-1.09c13.62-14.14,35.06-15,48.8-2a33.63,33.63,0,0,1,9.06,34.06c11-2.93,22.11-6,33.05-9.14,2-7.93,3.89-16.18,5.69-24.2,1.56-7,3.21-14.22,5-21.39,2.48-10.14,8-18,16-22.8,7.53-4.53,16.79-5.73,26.08-3.37a33.07,33.07,0,0,1,23.92,24.28c8-8,16.07-16.27,24-24.44-2.48-8.85-5.28-17.91-8-26.69-1.64-5.44-3.32-10.93-5-16.38-6-20.32,2.25-38.31,20.6-44.76,13.38-4.69,26.28-1.24,35.34,8.61,3-11,6-22.31,8.81-33.45A0,0,0,0,1,1802,438.78Zm-203.43-7.1a44.78,44.78,0,0,1-31.29,12.95c-.36,0-.76,0-1.16,0-24.64-.64-44.8-21.36-44.92-46.16a46.82,46.82,0,0,1,13.66-33.3,45.06,45.06,0,0,1,64.28,0,46.54,46.54,0,0,1-.57,66.59Z"
               color="rgb(0, 0, 0)"
               fill="rgb(243, 255, 0)"
               stroke="none"
               id="path48" />
          </g>
        </g>
      </g>
    </g>
    <text
       color="rgb(0, 0, 0)"
       dominant-baseline="text-after-edge"
       font-family="__Montserrat_237071, __Montserrat_Fallback_237071"
       font-size="16px"
       font-size-adjust="none"
       font-stretch="100%"
       font-style="normal"
       font-variant="normal"
       font-weight="400"
       direction="ltr"
       letter-spacing="normal"
       text-decoration="rgb(0, 0, 0)"
       text-anchor="start"
       text-rendering="auto"
       unicode-bidi="isolate"
       word-spacing="0px"
       writing-mode="horizontal-tb"
       user-select="auto"
       fill="rgb(0, 0, 0)"
       id="text48" />
  </g>
</svg>
