<?xml version="1.0" encoding="UTF-8" standalone="no"?>
<svg
   data-stacking-context="true"
   aria-owns="w-full1"
   width="542.6666870117188"
   height="542.6666870117188"
   viewBox="1000 298.33331298828125 542.6666870117188 542.6666870117188"
   version="1.1"
   id="svg20"
   sodipodi:docname="smiley.svg"
   inkscape:export-filename="smiley.png"
   inkscape:export-xdpi="200"
   inkscape:export-ydpi="200"
   inkscape:version="1.4 (86a8ad7, 2024-10-11)"
   xmlns:inkscape="http://www.inkscape.org/namespaces/inkscape"
   xmlns:sodipodi="http://sodipodi.sourceforge.net/DTD/sodipodi-0.dtd"
   xmlns="http://www.w3.org/2000/svg"
   xmlns:svg="http://www.w3.org/2000/svg">
  <defs
     id="defs20" />
  <sodipodi:namedview
     id="namedview20"
     pagecolor="#ffffff"
     bordercolor="#000000"
     borderopacity="0.25"
     inkscape:showpageshadow="2"
     inkscape:pageopacity="0.0"
     inkscape:pagecheckerboard="0"
     inkscape:deskcolor="#d1d1d1"
     inkscape:zoom="3.3667075"
     inkscape:cx="271.18483"
     inkscape:cy="223.80917"
     inkscape:window-width="3840"
     inkscape:window-height="2066"
     inkscape:window-x="-11"
     inkscape:window-y="-11"
     inkscape:window-maximized="1"
     inkscape:current-layer="svg20" />
  <!-- Generated by dom-to-svg from https://www.element-to-svg.com/ -->
  <style
     id="style1">@font-face { font-family: __Montserrat_237071; src: url(&quot;https://www.element-to-svg.com/_next/static/media/3f69592b2fe603c7-s.woff2&quot;) format(&quot;woff2&quot;); font-style: normal; font-weight: 100; font-display: swap; unicode-range: U+460-52F, U+1C80-1C8A, U+20B4, U+2DE0-2DFF, U+A640-A69F, U+FE2E-FE2F; }
@font-face { font-family: __Montserrat_237071; src: url(&quot;https://www.element-to-svg.com/_next/static/media/6325a8417175c41d-s.woff2&quot;) format(&quot;woff2&quot;); font-style: normal; font-weight: 100; font-display: swap; unicode-range: U+301, U+400-45F, U+490-491, U+4B0-4B1, U+2116; }
@font-face { font-family: __Montserrat_237071; src: url(&quot;https://www.element-to-svg.com/_next/static/media/021bc4481ed92ece-s.woff2&quot;) format(&quot;woff2&quot;); font-style: normal; font-weight: 100; font-display: swap; unicode-range: U+102-103, U+110-111, U+128-129, U+168-169, U+1A0-1A1, U+1AF-1B0, U+300-301, U+303-304, U+308-309, U+323, U+329, U+1EA0-1EF9, U+20AB; }
@font-face { font-family: __Montserrat_237071; src: url(&quot;https://www.element-to-svg.com/_next/static/media/99b7f73d5af7c3e2-s.woff2&quot;) format(&quot;woff2&quot;); font-style: normal; font-weight: 100; font-display: swap; unicode-range: U+100-2BA, U+2BD-2C5, U+2C7-2CC, U+2CE-2D7, U+2DD-2FF, U+304, U+308, U+329, U+1D00-1DBF, U+1E00-1E9F, U+1EF2-1EFF, U+2020, U+20A0-20AB, U+20AD-20C0, U+2113, U+2C60-2C7F, U+A720-A7FF; }
@font-face { font-family: __Montserrat_237071; src: url(&quot;https://www.element-to-svg.com/_next/static/media/4f05ba3a6752a328-s.p.woff2&quot;) format(&quot;woff2&quot;); font-style: normal; font-weight: 100; font-display: swap; unicode-range: U+0-FF, U+131, U+152-153, U+2BB-2BC, U+2C6, U+2DA, U+2DC, U+304, U+308, U+329, U+2000-206F, U+20AC, U+2122, U+2191, U+2193, U+2212, U+2215, U+FEFF, U+FFFD; }
@font-face { font-family: __Montserrat_237071; src: url(&quot;https://www.element-to-svg.com/_next/static/media/3f69592b2fe603c7-s.woff2&quot;) format(&quot;woff2&quot;); font-style: normal; font-weight: 200; font-display: swap; unicode-range: U+460-52F, U+1C80-1C8A, U+20B4, U+2DE0-2DFF, U+A640-A69F, U+FE2E-FE2F; }
@font-face { font-family: __Montserrat_237071; src: url(&quot;https://www.element-to-svg.com/_next/static/media/6325a8417175c41d-s.woff2&quot;) format(&quot;woff2&quot;); font-style: normal; font-weight: 200; font-display: swap; unicode-range: U+301, U+400-45F, U+490-491, U+4B0-4B1, U+2116; }
@font-face { font-family: __Montserrat_237071; src: url(&quot;https://www.element-to-svg.com/_next/static/media/021bc4481ed92ece-s.woff2&quot;) format(&quot;woff2&quot;); font-style: normal; font-weight: 200; font-display: swap; unicode-range: U+102-103, U+110-111, U+128-129, U+168-169, U+1A0-1A1, U+1AF-1B0, U+300-301, U+303-304, U+308-309, U+323, U+329, U+1EA0-1EF9, U+20AB; }
@font-face { font-family: __Montserrat_237071; src: url(&quot;https://www.element-to-svg.com/_next/static/media/99b7f73d5af7c3e2-s.woff2&quot;) format(&quot;woff2&quot;); font-style: normal; font-weight: 200; font-display: swap; unicode-range: U+100-2BA, U+2BD-2C5, U+2C7-2CC, U+2CE-2D7, U+2DD-2FF, U+304, U+308, U+329, U+1D00-1DBF, U+1E00-1E9F, U+1EF2-1EFF, U+2020, U+20A0-20AB, U+20AD-20C0, U+2113, U+2C60-2C7F, U+A720-A7FF; }
@font-face { font-family: __Montserrat_237071; src: url(&quot;https://www.element-to-svg.com/_next/static/media/4f05ba3a6752a328-s.p.woff2&quot;) format(&quot;woff2&quot;); font-style: normal; font-weight: 200; font-display: swap; unicode-range: U+0-FF, U+131, U+152-153, U+2BB-2BC, U+2C6, U+2DA, U+2DC, U+304, U+308, U+329, U+2000-206F, U+20AC, U+2122, U+2191, U+2193, U+2212, U+2215, U+FEFF, U+FFFD; }
@font-face { font-family: __Montserrat_237071; src: url(&quot;https://www.element-to-svg.com/_next/static/media/3f69592b2fe603c7-s.woff2&quot;) format(&quot;woff2&quot;); font-style: normal; font-weight: 300; font-display: swap; unicode-range: U+460-52F, U+1C80-1C8A, U+20B4, U+2DE0-2DFF, U+A640-A69F, U+FE2E-FE2F; }
@font-face { font-family: __Montserrat_237071; src: url(&quot;https://www.element-to-svg.com/_next/static/media/6325a8417175c41d-s.woff2&quot;) format(&quot;woff2&quot;); font-style: normal; font-weight: 300; font-display: swap; unicode-range: U+301, U+400-45F, U+490-491, U+4B0-4B1, U+2116; }
@font-face { font-family: __Montserrat_237071; src: url(&quot;https://www.element-to-svg.com/_next/static/media/021bc4481ed92ece-s.woff2&quot;) format(&quot;woff2&quot;); font-style: normal; font-weight: 300; font-display: swap; unicode-range: U+102-103, U+110-111, U+128-129, U+168-169, U+1A0-1A1, U+1AF-1B0, U+300-301, U+303-304, U+308-309, U+323, U+329, U+1EA0-1EF9, U+20AB; }
@font-face { font-family: __Montserrat_237071; src: url(&quot;https://www.element-to-svg.com/_next/static/media/99b7f73d5af7c3e2-s.woff2&quot;) format(&quot;woff2&quot;); font-style: normal; font-weight: 300; font-display: swap; unicode-range: U+100-2BA, U+2BD-2C5, U+2C7-2CC, U+2CE-2D7, U+2DD-2FF, U+304, U+308, U+329, U+1D00-1DBF, U+1E00-1E9F, U+1EF2-1EFF, U+2020, U+20A0-20AB, U+20AD-20C0, U+2113, U+2C60-2C7F, U+A720-A7FF; }
@font-face { font-family: __Montserrat_237071; src: url(&quot;https://www.element-to-svg.com/_next/static/media/4f05ba3a6752a328-s.p.woff2&quot;) format(&quot;woff2&quot;); font-style: normal; font-weight: 300; font-display: swap; unicode-range: U+0-FF, U+131, U+152-153, U+2BB-2BC, U+2C6, U+2DA, U+2DC, U+304, U+308, U+329, U+2000-206F, U+20AC, U+2122, U+2191, U+2193, U+2212, U+2215, U+FEFF, U+FFFD; }
@font-face { font-family: __Montserrat_237071; src: url(&quot;https://www.element-to-svg.com/_next/static/media/3f69592b2fe603c7-s.woff2&quot;) format(&quot;woff2&quot;); font-style: normal; font-weight: 400; font-display: swap; unicode-range: U+460-52F, U+1C80-1C8A, U+20B4, U+2DE0-2DFF, U+A640-A69F, U+FE2E-FE2F; }
@font-face { font-family: __Montserrat_237071; src: url(&quot;https://www.element-to-svg.com/_next/static/media/6325a8417175c41d-s.woff2&quot;) format(&quot;woff2&quot;); font-style: normal; font-weight: 400; font-display: swap; unicode-range: U+301, U+400-45F, U+490-491, U+4B0-4B1, U+2116; }
@font-face { font-family: __Montserrat_237071; src: url(&quot;https://www.element-to-svg.com/_next/static/media/021bc4481ed92ece-s.woff2&quot;) format(&quot;woff2&quot;); font-style: normal; font-weight: 400; font-display: swap; unicode-range: U+102-103, U+110-111, U+128-129, U+168-169, U+1A0-1A1, U+1AF-1B0, U+300-301, U+303-304, U+308-309, U+323, U+329, U+1EA0-1EF9, U+20AB; }
@font-face { font-family: __Montserrat_237071; src: url(&quot;https://www.element-to-svg.com/_next/static/media/99b7f73d5af7c3e2-s.woff2&quot;) format(&quot;woff2&quot;); font-style: normal; font-weight: 400; font-display: swap; unicode-range: U+100-2BA, U+2BD-2C5, U+2C7-2CC, U+2CE-2D7, U+2DD-2FF, U+304, U+308, U+329, U+1D00-1DBF, U+1E00-1E9F, U+1EF2-1EFF, U+2020, U+20A0-20AB, U+20AD-20C0, U+2113, U+2C60-2C7F, U+A720-A7FF; }
@font-face { font-family: __Montserrat_237071; src: url(&quot;https://www.element-to-svg.com/_next/static/media/4f05ba3a6752a328-s.p.woff2&quot;) format(&quot;woff2&quot;); font-style: normal; font-weight: 400; font-display: swap; unicode-range: U+0-FF, U+131, U+152-153, U+2BB-2BC, U+2C6, U+2DA, U+2DC, U+304, U+308, U+329, U+2000-206F, U+20AC, U+2122, U+2191, U+2193, U+2212, U+2215, U+FEFF, U+FFFD; }
@font-face { font-family: __Montserrat_237071; src: url(&quot;https://www.element-to-svg.com/_next/static/media/3f69592b2fe603c7-s.woff2&quot;) format(&quot;woff2&quot;); font-style: normal; font-weight: 500; font-display: swap; unicode-range: U+460-52F, U+1C80-1C8A, U+20B4, U+2DE0-2DFF, U+A640-A69F, U+FE2E-FE2F; }
@font-face { font-family: __Montserrat_237071; src: url(&quot;https://www.element-to-svg.com/_next/static/media/6325a8417175c41d-s.woff2&quot;) format(&quot;woff2&quot;); font-style: normal; font-weight: 500; font-display: swap; unicode-range: U+301, U+400-45F, U+490-491, U+4B0-4B1, U+2116; }
@font-face { font-family: __Montserrat_237071; src: url(&quot;https://www.element-to-svg.com/_next/static/media/021bc4481ed92ece-s.woff2&quot;) format(&quot;woff2&quot;); font-style: normal; font-weight: 500; font-display: swap; unicode-range: U+102-103, U+110-111, U+128-129, U+168-169, U+1A0-1A1, U+1AF-1B0, U+300-301, U+303-304, U+308-309, U+323, U+329, U+1EA0-1EF9, U+20AB; }
@font-face { font-family: __Montserrat_237071; src: url(&quot;https://www.element-to-svg.com/_next/static/media/99b7f73d5af7c3e2-s.woff2&quot;) format(&quot;woff2&quot;); font-style: normal; font-weight: 500; font-display: swap; unicode-range: U+100-2BA, U+2BD-2C5, U+2C7-2CC, U+2CE-2D7, U+2DD-2FF, U+304, U+308, U+329, U+1D00-1DBF, U+1E00-1E9F, U+1EF2-1EFF, U+2020, U+20A0-20AB, U+20AD-20C0, U+2113, U+2C60-2C7F, U+A720-A7FF; }
@font-face { font-family: __Montserrat_237071; src: url(&quot;https://www.element-to-svg.com/_next/static/media/4f05ba3a6752a328-s.p.woff2&quot;) format(&quot;woff2&quot;); font-style: normal; font-weight: 500; font-display: swap; unicode-range: U+0-FF, U+131, U+152-153, U+2BB-2BC, U+2C6, U+2DA, U+2DC, U+304, U+308, U+329, U+2000-206F, U+20AC, U+2122, U+2191, U+2193, U+2212, U+2215, U+FEFF, U+FFFD; }
@font-face { font-family: __Montserrat_237071; src: url(&quot;https://www.element-to-svg.com/_next/static/media/3f69592b2fe603c7-s.woff2&quot;) format(&quot;woff2&quot;); font-style: normal; font-weight: 600; font-display: swap; unicode-range: U+460-52F, U+1C80-1C8A, U+20B4, U+2DE0-2DFF, U+A640-A69F, U+FE2E-FE2F; }
@font-face { font-family: __Montserrat_237071; src: url(&quot;https://www.element-to-svg.com/_next/static/media/6325a8417175c41d-s.woff2&quot;) format(&quot;woff2&quot;); font-style: normal; font-weight: 600; font-display: swap; unicode-range: U+301, U+400-45F, U+490-491, U+4B0-4B1, U+2116; }
@font-face { font-family: __Montserrat_237071; src: url(&quot;https://www.element-to-svg.com/_next/static/media/021bc4481ed92ece-s.woff2&quot;) format(&quot;woff2&quot;); font-style: normal; font-weight: 600; font-display: swap; unicode-range: U+102-103, U+110-111, U+128-129, U+168-169, U+1A0-1A1, U+1AF-1B0, U+300-301, U+303-304, U+308-309, U+323, U+329, U+1EA0-1EF9, U+20AB; }
@font-face { font-family: __Montserrat_237071; src: url(&quot;https://www.element-to-svg.com/_next/static/media/99b7f73d5af7c3e2-s.woff2&quot;) format(&quot;woff2&quot;); font-style: normal; font-weight: 600; font-display: swap; unicode-range: U+100-2BA, U+2BD-2C5, U+2C7-2CC, U+2CE-2D7, U+2DD-2FF, U+304, U+308, U+329, U+1D00-1DBF, U+1E00-1E9F, U+1EF2-1EFF, U+2020, U+20A0-20AB, U+20AD-20C0, U+2113, U+2C60-2C7F, U+A720-A7FF; }
@font-face { font-family: __Montserrat_237071; src: url(&quot;https://www.element-to-svg.com/_next/static/media/4f05ba3a6752a328-s.p.woff2&quot;) format(&quot;woff2&quot;); font-style: normal; font-weight: 600; font-display: swap; unicode-range: U+0-FF, U+131, U+152-153, U+2BB-2BC, U+2C6, U+2DA, U+2DC, U+304, U+308, U+329, U+2000-206F, U+20AC, U+2122, U+2191, U+2193, U+2212, U+2215, U+FEFF, U+FFFD; }
@font-face { font-family: __Montserrat_237071; src: url(&quot;https://www.element-to-svg.com/_next/static/media/3f69592b2fe603c7-s.woff2&quot;) format(&quot;woff2&quot;); font-style: normal; font-weight: 700; font-display: swap; unicode-range: U+460-52F, U+1C80-1C8A, U+20B4, U+2DE0-2DFF, U+A640-A69F, U+FE2E-FE2F; }
@font-face { font-family: __Montserrat_237071; src: url(&quot;https://www.element-to-svg.com/_next/static/media/6325a8417175c41d-s.woff2&quot;) format(&quot;woff2&quot;); font-style: normal; font-weight: 700; font-display: swap; unicode-range: U+301, U+400-45F, U+490-491, U+4B0-4B1, U+2116; }
@font-face { font-family: __Montserrat_237071; src: url(&quot;https://www.element-to-svg.com/_next/static/media/021bc4481ed92ece-s.woff2&quot;) format(&quot;woff2&quot;); font-style: normal; font-weight: 700; font-display: swap; unicode-range: U+102-103, U+110-111, U+128-129, U+168-169, U+1A0-1A1, U+1AF-1B0, U+300-301, U+303-304, U+308-309, U+323, U+329, U+1EA0-1EF9, U+20AB; }
@font-face { font-family: __Montserrat_237071; src: url(&quot;https://www.element-to-svg.com/_next/static/media/99b7f73d5af7c3e2-s.woff2&quot;) format(&quot;woff2&quot;); font-style: normal; font-weight: 700; font-display: swap; unicode-range: U+100-2BA, U+2BD-2C5, U+2C7-2CC, U+2CE-2D7, U+2DD-2FF, U+304, U+308, U+329, U+1D00-1DBF, U+1E00-1E9F, U+1EF2-1EFF, U+2020, U+20A0-20AB, U+20AD-20C0, U+2113, U+2C60-2C7F, U+A720-A7FF; }
@font-face { font-family: __Montserrat_237071; src: url(&quot;https://www.element-to-svg.com/_next/static/media/4f05ba3a6752a328-s.p.woff2&quot;) format(&quot;woff2&quot;); font-style: normal; font-weight: 700; font-display: swap; unicode-range: U+0-FF, U+131, U+152-153, U+2BB-2BC, U+2C6, U+2DA, U+2DC, U+304, U+308, U+329, U+2000-206F, U+20AC, U+2122, U+2191, U+2193, U+2212, U+2215, U+FEFF, U+FFFD; }
@font-face { font-family: __Montserrat_237071; src: url(&quot;https://www.element-to-svg.com/_next/static/media/3f69592b2fe603c7-s.woff2&quot;) format(&quot;woff2&quot;); font-style: normal; font-weight: 800; font-display: swap; unicode-range: U+460-52F, U+1C80-1C8A, U+20B4, U+2DE0-2DFF, U+A640-A69F, U+FE2E-FE2F; }
@font-face { font-family: __Montserrat_237071; src: url(&quot;https://www.element-to-svg.com/_next/static/media/6325a8417175c41d-s.woff2&quot;) format(&quot;woff2&quot;); font-style: normal; font-weight: 800; font-display: swap; unicode-range: U+301, U+400-45F, U+490-491, U+4B0-4B1, U+2116; }
@font-face { font-family: __Montserrat_237071; src: url(&quot;https://www.element-to-svg.com/_next/static/media/021bc4481ed92ece-s.woff2&quot;) format(&quot;woff2&quot;); font-style: normal; font-weight: 800; font-display: swap; unicode-range: U+102-103, U+110-111, U+128-129, U+168-169, U+1A0-1A1, U+1AF-1B0, U+300-301, U+303-304, U+308-309, U+323, U+329, U+1EA0-1EF9, U+20AB; }
@font-face { font-family: __Montserrat_237071; src: url(&quot;https://www.element-to-svg.com/_next/static/media/99b7f73d5af7c3e2-s.woff2&quot;) format(&quot;woff2&quot;); font-style: normal; font-weight: 800; font-display: swap; unicode-range: U+100-2BA, U+2BD-2C5, U+2C7-2CC, U+2CE-2D7, U+2DD-2FF, U+304, U+308, U+329, U+1D00-1DBF, U+1E00-1E9F, U+1EF2-1EFF, U+2020, U+20A0-20AB, U+20AD-20C0, U+2113, U+2C60-2C7F, U+A720-A7FF; }
@font-face { font-family: __Montserrat_237071; src: url(&quot;https://www.element-to-svg.com/_next/static/media/4f05ba3a6752a328-s.p.woff2&quot;) format(&quot;woff2&quot;); font-style: normal; font-weight: 800; font-display: swap; unicode-range: U+0-FF, U+131, U+152-153, U+2BB-2BC, U+2C6, U+2DA, U+2DC, U+304, U+308, U+329, U+2000-206F, U+20AC, U+2122, U+2191, U+2193, U+2212, U+2215, U+FEFF, U+FFFD; }
@font-face { font-family: __Montserrat_237071; src: url(&quot;https://www.element-to-svg.com/_next/static/media/3f69592b2fe603c7-s.woff2&quot;) format(&quot;woff2&quot;); font-style: normal; font-weight: 900; font-display: swap; unicode-range: U+460-52F, U+1C80-1C8A, U+20B4, U+2DE0-2DFF, U+A640-A69F, U+FE2E-FE2F; }
@font-face { font-family: __Montserrat_237071; src: url(&quot;https://www.element-to-svg.com/_next/static/media/6325a8417175c41d-s.woff2&quot;) format(&quot;woff2&quot;); font-style: normal; font-weight: 900; font-display: swap; unicode-range: U+301, U+400-45F, U+490-491, U+4B0-4B1, U+2116; }
@font-face { font-family: __Montserrat_237071; src: url(&quot;https://www.element-to-svg.com/_next/static/media/021bc4481ed92ece-s.woff2&quot;) format(&quot;woff2&quot;); font-style: normal; font-weight: 900; font-display: swap; unicode-range: U+102-103, U+110-111, U+128-129, U+168-169, U+1A0-1A1, U+1AF-1B0, U+300-301, U+303-304, U+308-309, U+323, U+329, U+1EA0-1EF9, U+20AB; }
@font-face { font-family: __Montserrat_237071; src: url(&quot;https://www.element-to-svg.com/_next/static/media/99b7f73d5af7c3e2-s.woff2&quot;) format(&quot;woff2&quot;); font-style: normal; font-weight: 900; font-display: swap; unicode-range: U+100-2BA, U+2BD-2C5, U+2C7-2CC, U+2CE-2D7, U+2DD-2FF, U+304, U+308, U+329, U+1D00-1DBF, U+1E00-1E9F, U+1EF2-1EFF, U+2020, U+20A0-20AB, U+20AD-20C0, U+2113, U+2C60-2C7F, U+A720-A7FF; }
@font-face { font-family: __Montserrat_237071; src: url(&quot;https://www.element-to-svg.com/_next/static/media/4f05ba3a6752a328-s.p.woff2&quot;) format(&quot;woff2&quot;); font-style: normal; font-weight: 900; font-display: swap; unicode-range: U+0-FF, U+131, U+152-153, U+2BB-2BC, U+2C6, U+2DA, U+2DC, U+304, U+308, U+329, U+2000-206F, U+20AC, U+2122, U+2191, U+2193, U+2212, U+2215, U+FEFF, U+FFFD; }
@font-face { font-family: __Montserrat_Fallback_237071; src: local(&quot;Arial&quot;); ascent-override: 85.79%; descent-override: 22.25%; line-gap-override: 0%; size-adjust: 112.83%; }
@font-face { font-family: __Sora_b503b9; src: url(&quot;https://www.element-to-svg.com/_next/static/media/768c27c9cbdc3904-s.woff2&quot;) format(&quot;woff2&quot;); font-style: normal; font-weight: 100; font-display: swap; unicode-range: U+100-2BA, U+2BD-2C5, U+2C7-2CC, U+2CE-2D7, U+2DD-2FF, U+304, U+308, U+329, U+1D00-1DBF, U+1E00-1E9F, U+1EF2-1EFF, U+2020, U+20A0-20AB, U+20AD-20C0, U+2113, U+2C60-2C7F, U+A720-A7FF; }
@font-face { font-family: __Sora_b503b9; src: url(&quot;https://www.element-to-svg.com/_next/static/media/95523e6af433889e-s.p.woff2&quot;) format(&quot;woff2&quot;); font-style: normal; font-weight: 100; font-display: swap; unicode-range: U+0-FF, U+131, U+152-153, U+2BB-2BC, U+2C6, U+2DA, U+2DC, U+304, U+308, U+329, U+2000-206F, U+20AC, U+2122, U+2191, U+2193, U+2212, U+2215, U+FEFF, U+FFFD; }
@font-face { font-family: __Sora_b503b9; src: url(&quot;https://www.element-to-svg.com/_next/static/media/768c27c9cbdc3904-s.woff2&quot;) format(&quot;woff2&quot;); font-style: normal; font-weight: 200; font-display: swap; unicode-range: U+100-2BA, U+2BD-2C5, U+2C7-2CC, U+2CE-2D7, U+2DD-2FF, U+304, U+308, U+329, U+1D00-1DBF, U+1E00-1E9F, U+1EF2-1EFF, U+2020, U+20A0-20AB, U+20AD-20C0, U+2113, U+2C60-2C7F, U+A720-A7FF; }
@font-face { font-family: __Sora_b503b9; src: url(&quot;https://www.element-to-svg.com/_next/static/media/95523e6af433889e-s.p.woff2&quot;) format(&quot;woff2&quot;); font-style: normal; font-weight: 200; font-display: swap; unicode-range: U+0-FF, U+131, U+152-153, U+2BB-2BC, U+2C6, U+2DA, U+2DC, U+304, U+308, U+329, U+2000-206F, U+20AC, U+2122, U+2191, U+2193, U+2212, U+2215, U+FEFF, U+FFFD; }
@font-face { font-family: __Sora_b503b9; src: url(&quot;https://www.element-to-svg.com/_next/static/media/768c27c9cbdc3904-s.woff2&quot;) format(&quot;woff2&quot;); font-style: normal; font-weight: 300; font-display: swap; unicode-range: U+100-2BA, U+2BD-2C5, U+2C7-2CC, U+2CE-2D7, U+2DD-2FF, U+304, U+308, U+329, U+1D00-1DBF, U+1E00-1E9F, U+1EF2-1EFF, U+2020, U+20A0-20AB, U+20AD-20C0, U+2113, U+2C60-2C7F, U+A720-A7FF; }
@font-face { font-family: __Sora_b503b9; src: url(&quot;https://www.element-to-svg.com/_next/static/media/95523e6af433889e-s.p.woff2&quot;) format(&quot;woff2&quot;); font-style: normal; font-weight: 300; font-display: swap; unicode-range: U+0-FF, U+131, U+152-153, U+2BB-2BC, U+2C6, U+2DA, U+2DC, U+304, U+308, U+329, U+2000-206F, U+20AC, U+2122, U+2191, U+2193, U+2212, U+2215, U+FEFF, U+FFFD; }
@font-face { font-family: __Sora_b503b9; src: url(&quot;https://www.element-to-svg.com/_next/static/media/768c27c9cbdc3904-s.woff2&quot;) format(&quot;woff2&quot;); font-style: normal; font-weight: 400; font-display: swap; unicode-range: U+100-2BA, U+2BD-2C5, U+2C7-2CC, U+2CE-2D7, U+2DD-2FF, U+304, U+308, U+329, U+1D00-1DBF, U+1E00-1E9F, U+1EF2-1EFF, U+2020, U+20A0-20AB, U+20AD-20C0, U+2113, U+2C60-2C7F, U+A720-A7FF; }
@font-face { font-family: __Sora_b503b9; src: url(&quot;https://www.element-to-svg.com/_next/static/media/95523e6af433889e-s.p.woff2&quot;) format(&quot;woff2&quot;); font-style: normal; font-weight: 400; font-display: swap; unicode-range: U+0-FF, U+131, U+152-153, U+2BB-2BC, U+2C6, U+2DA, U+2DC, U+304, U+308, U+329, U+2000-206F, U+20AC, U+2122, U+2191, U+2193, U+2212, U+2215, U+FEFF, U+FFFD; }
@font-face { font-family: __Sora_b503b9; src: url(&quot;https://www.element-to-svg.com/_next/static/media/768c27c9cbdc3904-s.woff2&quot;) format(&quot;woff2&quot;); font-style: normal; font-weight: 500; font-display: swap; unicode-range: U+100-2BA, U+2BD-2C5, U+2C7-2CC, U+2CE-2D7, U+2DD-2FF, U+304, U+308, U+329, U+1D00-1DBF, U+1E00-1E9F, U+1EF2-1EFF, U+2020, U+20A0-20AB, U+20AD-20C0, U+2113, U+2C60-2C7F, U+A720-A7FF; }
@font-face { font-family: __Sora_b503b9; src: url(&quot;https://www.element-to-svg.com/_next/static/media/95523e6af433889e-s.p.woff2&quot;) format(&quot;woff2&quot;); font-style: normal; font-weight: 500; font-display: swap; unicode-range: U+0-FF, U+131, U+152-153, U+2BB-2BC, U+2C6, U+2DA, U+2DC, U+304, U+308, U+329, U+2000-206F, U+20AC, U+2122, U+2191, U+2193, U+2212, U+2215, U+FEFF, U+FFFD; }
@font-face { font-family: __Sora_b503b9; src: url(&quot;https://www.element-to-svg.com/_next/static/media/768c27c9cbdc3904-s.woff2&quot;) format(&quot;woff2&quot;); font-style: normal; font-weight: 600; font-display: swap; unicode-range: U+100-2BA, U+2BD-2C5, U+2C7-2CC, U+2CE-2D7, U+2DD-2FF, U+304, U+308, U+329, U+1D00-1DBF, U+1E00-1E9F, U+1EF2-1EFF, U+2020, U+20A0-20AB, U+20AD-20C0, U+2113, U+2C60-2C7F, U+A720-A7FF; }
@font-face { font-family: __Sora_b503b9; src: url(&quot;https://www.element-to-svg.com/_next/static/media/95523e6af433889e-s.p.woff2&quot;) format(&quot;woff2&quot;); font-style: normal; font-weight: 600; font-display: swap; unicode-range: U+0-FF, U+131, U+152-153, U+2BB-2BC, U+2C6, U+2DA, U+2DC, U+304, U+308, U+329, U+2000-206F, U+20AC, U+2122, U+2191, U+2193, U+2212, U+2215, U+FEFF, U+FFFD; }
@font-face { font-family: __Sora_b503b9; src: url(&quot;https://www.element-to-svg.com/_next/static/media/768c27c9cbdc3904-s.woff2&quot;) format(&quot;woff2&quot;); font-style: normal; font-weight: 700; font-display: swap; unicode-range: U+100-2BA, U+2BD-2C5, U+2C7-2CC, U+2CE-2D7, U+2DD-2FF, U+304, U+308, U+329, U+1D00-1DBF, U+1E00-1E9F, U+1EF2-1EFF, U+2020, U+20A0-20AB, U+20AD-20C0, U+2113, U+2C60-2C7F, U+A720-A7FF; }
@font-face { font-family: __Sora_b503b9; src: url(&quot;https://www.element-to-svg.com/_next/static/media/95523e6af433889e-s.p.woff2&quot;) format(&quot;woff2&quot;); font-style: normal; font-weight: 700; font-display: swap; unicode-range: U+0-FF, U+131, U+152-153, U+2BB-2BC, U+2C6, U+2DA, U+2DC, U+304, U+308, U+329, U+2000-206F, U+20AC, U+2122, U+2191, U+2193, U+2212, U+2215, U+FEFF, U+FFFD; }
@font-face { font-family: __Sora_b503b9; src: url(&quot;https://www.element-to-svg.com/_next/static/media/768c27c9cbdc3904-s.woff2&quot;) format(&quot;woff2&quot;); font-style: normal; font-weight: 800; font-display: swap; unicode-range: U+100-2BA, U+2BD-2C5, U+2C7-2CC, U+2CE-2D7, U+2DD-2FF, U+304, U+308, U+329, U+1D00-1DBF, U+1E00-1E9F, U+1EF2-1EFF, U+2020, U+20A0-20AB, U+20AD-20C0, U+2113, U+2C60-2C7F, U+A720-A7FF; }
@font-face { font-family: __Sora_b503b9; src: url(&quot;https://www.element-to-svg.com/_next/static/media/95523e6af433889e-s.p.woff2&quot;) format(&quot;woff2&quot;); font-style: normal; font-weight: 800; font-display: swap; unicode-range: U+0-FF, U+131, U+152-153, U+2BB-2BC, U+2C6, U+2DA, U+2DC, U+304, U+308, U+329, U+2000-206F, U+20AC, U+2122, U+2191, U+2193, U+2212, U+2215, U+FEFF, U+FFFD; }
@font-face { font-family: __Sora_Fallback_b503b9; src: local(&quot;Arial&quot;); ascent-override: 85.29%; descent-override: 25.5%; line-gap-override: 0%; size-adjust: 113.73%; }
</style>
  <g
     data-tag="div"
     id="w-full1"
     class="w-full"
     data-z-index="auto"
     data-stacking-context="true"
     aria-owns="style1 svg1"
     transform="matrix(0.92153736,0,0,0.91543318,99.769489,49.749724)">
    <g
       data-tag="svg"
       id="svg1"
       data-z-index="auto"
       data-stacking-context="true"
       mask="url(#mask-for-svg11)">
      <mask
         id="mask-for-svg11">
        <rect
           width="542.66669"
           height="542.66669"
           x="1000"
           y="298.33331"
           fill="#ffffff"
           id="rect15" />
      </mask>
      <g
         class="svg-content"
         data-view-box="0 0 141.99 141.99"
         data-width=""
         data-height=""
         transform="matrix(3.82187,0,0,3.82187,1000,298.333)"
         id="g20">
        <defs
           color="#000000"
           fill="#000000"
           stroke="none"
           id="defs15" />
        <g
           id="svg1-Ebene_2"
           data-name="Ebene 2"
           class="snap-always snap-end"
           color="#000000"
           fill="#000000"
           stroke="none">
          <g
             id="svg1-Layer_1"
             data-name="Layer 1"
             class="snap-always snap-end"
             color="#000000"
             fill="#000000"
             stroke="none">
            <circle
               class="additional-cls-1"
               cx="70.989998"
               cy="70.989998"
               r="60.990002"
               color="#000000"
               fill="none"
               stroke="#f3ff00"
               stroke-linejoin="round"
               stroke-width="20px"
               id="circle15" />
            <circle
               class="additional-cls-2"
               cx="70.989998"
               cy="70.989998"
               r="60.990002"
               color="#000000"
               fill="none"
               stroke="#000000"
               stroke-linejoin="round"
               stroke-width="13px"
               id="circle16" />
            <circle
               class="additional-cls-3"
               cx="70.989998"
               cy="70.989998"
               r="60.990002"
               color="#000000"
               fill="#f3ff00"
               stroke="none"
               id="circle17" />
            <path
               d="m 122.25,69.54 a 50.45,50.45 0 0 0 -0.51,-5.49 c 0,-0.38 -0.11,-0.76 -0.16,-1.14 -0.1,-0.74 -0.2,-1.47 -0.33,-2.24 a 41.65,41.65 0 0 0 -1.55,-5.73 51.07,51.07 0 0 0 -14.06,-21.79 38.55,38.55 0 0 0 -5.43,-4.23 l -1.48,-1 c -0.72,-0.46 -1.44,-0.93 -2.17,-1.38 -0.91,-0.56 -1.77,-1 -2.65,-1.51 a 49.67,49.67 0 0 0 -7.43,-3 38.61,38.61 0 0 0 -6.57,-1.59 l -1.57,-0.21 -1.61,-0.21 a 26.92,26.92 0 0 0 -3.51,-0.34 h -0.53 -2.77 a 38.58,38.58 0 0 0 -5.67,0.45 l -1.72,0.29 -1.61,0.28 a 18.91,18.91 0 0 0 -3,0.67 c -1.65,0.55 -3.29,1.12 -4.93,1.69 L 52.6,23.2 c -1,0.33 -2,0.68 -3,1.1 a 37.87,37.87 0 0 0 -5.38,2.88 48.65,48.65 0 0 0 -8.07,6.11 c -0.8,0.76 -1.56,1.54 -2.33,2.33 l -1,1.08 A 17.44,17.44 0 0 0 31,38.92 c -1,1.46 -2,2.93 -3,4.39 a 38.73,38.73 0 0 0 -2.61,4.3 53.65,53.65 0 0 0 -3.46,8.39 35.87,35.87 0 0 0 -1.43,6.29 l -0.1,0.8 c -0.08,0.61 -0.16,1.23 -0.23,1.84 q -0.18,1.73 -0.33,3.45 c 0,0.45 -0.07,0.9 -0.1,1.35 l -0.06,1.35 0.06,0.7 c 0,0.41 0.06,0.81 0.07,1.22 0.07,1.84 0.24,3.69 0.49,5.49 a 48.57,48.57 0 0 0 2.78,10.88 50.71,50.71 0 0 0 19.48,24.35 47.4,47.4 0 0 0 11.13,5.59 50.67,50.67 0 0 0 8.78,2.23 c 1,0.16 2.08,0.27 3.09,0.37 l 1,0.1 1.28,0.12 h 0.5 l 0.23,0.08 h 3.86 l 0.22,-0.09 1.12,-0.06 2.45,-0.16 h 0.33 c 0.84,-0.07 1.72,-0.13 2.62,-0.28 1.07,-0.17 2.18,-0.41 3.32,-0.7 a 57.34,57.34 0 0 0 8.63,-2.74 36.86,36.86 0 0 0 6.16,-3.14 c 0.22,-0.16 0.46,-0.29 0.74,-0.46 a 40.32,40.32 0 0 0 6.35,-4.61 59.4,59.4 0 0 0 7.81,-8.44 43.19,43.19 0 0 0 4.54,-7.24 66.59,66.59 0 0 0 2.73,-6.66 44.07,44.07 0 0 0 1.81,-6.23 c 0.35,-1.74 0.62,-3.61 0.89,-6.09 a 42.15,42.15 0 0 0 0.1,-5.77 z m -7,2.52 c 0,0.63 0,1.26 0,1.84 a 19.67,19.67 0 0 1 -0.42,3.35 l -0.22,1.18 c -0.22,1.2 -0.43,2.33 -0.68,3.45 A 40.06,40.06 0 0 1 110,92.13 34.32,34.32 0 0 1 106.56,97.5 c -1.33,1.64 -2.86,3.36 -4.78,5.37 A 37.88,37.88 0 0 1 92,110 a 39.67,39.67 0 0 1 -6.75,3 c -1.7,0.54 -3.46,0.92 -5.12,1.28 -1.46,0.31 -2.66,0.54 -3.76,0.73 a 25.45,25.45 0 0 1 -4.09,0.33 c -1.35,0 -2.67,0 -3.92,-0.08 -0.46,0 -1,-0.08 -1.48,-0.15 h -0.44 l -3,-0.39 a 33.64,33.64 0 0 1 -5.17,-1.2 48.78,48.78 0 0 1 -7.11,-2.79 29.64,29.64 0 0 1 -4.43,-2.73 c -1.93,-1.43 -3.55,-2.64 -5.13,-3.86 a 28.81,28.81 0 0 1 -4.23,-4.25 45.21,45.21 0 0 1 -6.5,-10 37.19,37.19 0 0 1 -3.3,-10.68 c -0.21,-1.48 -0.42,-3 -0.62,-4.44 a 5.59,5.59 0 0 1 -0.06,-0.83 c 0,-0.52 0,-1 0,-1.57 0,-0.57 0,-1.21 -0.05,-1.78 A 29.21,29.21 0 0 1 27,66.6 c 0.13,-1.18 0.29,-2.35 0.46,-3.56 A 32.59,32.59 0 0 1 29,57 44.71,44.71 0 0 1 39.39,40 a 39.86,39.86 0 0 1 7,-5.85 45.53,45.53 0 0 1 15.1,-6.32 48.22,48.22 0 0 1 5,-0.75 c 1.88,-0.2 3.53,-0.3 5.05,-0.32 h 0.1 a 37.8,37.8 0 0 1 5.18,0.36 39,39 0 0 1 6.76,1.43 42.31,42.31 0 0 1 8.1,3.32 44.83,44.83 0 0 1 7.32,4.93 51.38,51.38 0 0 1 5.73,5.6 41.93,41.93 0 0 1 8.09,14.16 56,56 0 0 1 1.79,7.08 37.13,37.13 0 0 1 0.57,7.59 v 0.83 z"
               color="#000000"
               fill="#000000"
               stroke="none"
               id="path17" />
            <path
               d="m 109.87,72.48 -0.09,-0.07 a 20.07,20.07 0 0 0 -1.89,-1.13 10.84,10.84 0 0 0 -5.23,-1.23 13.86,13.86 0 0 0 -5.55,1.39 4.34,4.34 0 0 0 -1.14,0.87 3.38,3.38 0 0 0 -0.97,2.18 3.67,3.67 0 0 0 3.51,4 c 0,0 0,0.1 0,0.14 l -0.59,1.82 A 21.9,21.9 0 0 1 94,87.66 44.09,44.09 0 0 1 89.86,92.06 20.8,20.8 0 0 1 86.35,94.7 42.43,42.43 0 0 1 82,96.92 21.18,21.18 0 0 1 78,98.29 c -1.59,0.37 -3.21,0.61 -4.5,0.78 a 22.92,22.92 0 0 1 -3,0.28 H 70.2 69.59 A 36.23,36.23 0 0 1 65,98.66 26.75,26.75 0 0 1 55.28,94.8 29.87,29.87 0 0 1 43,79.39 q -0.16,-0.48 -0.3,-1 a 3.83,3.83 0 0 0 3.49,-2.39 3.2,3.2 0 0 0 0.06,-2.28 3.94,3.94 0 0 0 -1.9,-2.23 10,10 0 0 0 -1.2,-0.57 11.68,11.68 0 0 0 -7.54,-0.42 10.28,10.28 0 0 0 -4.09,2.09 3.82,3.82 0 0 0 -1.27,3.41 3.47,3.47 0 0 0 0.34,1.22 3.35,3.35 0 0 0 1.95,1.67 3.31,3.31 0 0 0 2.38,-0.11 l 0.16,-0.06 0.11,0.37 c 0.33,1.14 0.67,2.32 1.07,3.46 a 28.92,28.92 0 0 0 3.63,7.27 c 1.21,1.72 2.6,3.51 4.25,5.48 a 14,14 0 0 0 2.28,2.2 c 0.48,0.36 0.94,0.74 1.39,1.1 a 32.77,32.77 0 0 0 4.64,3.21 37.48,37.48 0 0 0 11.64,4.3 31.36,31.36 0 0 0 6.06,0.59 h 0.54 c 1.32,0 2.65,-0.12 3.92,-0.2 h 0.43 a 14.3,14.3 0 0 0 1.7,-0.2 48.61,48.61 0 0 0 6.16,-1.64 A 35.94,35.94 0 0 0 96.6,96 c 1,-1 1.85,-2.05 2.69,-3.07 l 0.46,-0.57 a 29.14,29.14 0 0 0 4.15,-6.67 39.6,39.6 0 0 0 1.88,-5.46 l 0.2,-0.68 c 0.07,-0.27 0.14,-0.53 0.22,-0.79 l 0.31,0.11 a 3.51,3.51 0 0 0 4.38,-1.79 3.65,3.65 0 0 0 -1.02,-4.6 z"
               color="#000000"
               fill="#000000"
               stroke="none"
               id="path18" />
            <path
               d="m 51.47,56.19 0.05,0.67 c 0.06,0.9 0.12,1.84 0.26,2.79 a 15,15 0 0 0 2.46,6.35 8.29,8.29 0 0 0 1.3,1.53 5.14,5.14 0 0 0 3.46,1.34 5.21,5.21 0 0 0 3.55,-1.4 7.83,7.83 0 0 0 1.29,-1.47 14.23,14.23 0 0 0 1.43,-2.87 22.09,22.09 0 0 0 1.31,-9.32 c -0.11,-1.52 -0.26,-3.06 -0.46,-4.54 a 12.93,12.93 0 0 0 -2.26,-5.87 9.13,9.13 0 0 0 -1.9,-2.1 4.47,4.47 0 0 0 -5.26,-0.36 8.3,8.3 0 0 0 -2.56,2.41 14,14 0 0 0 -2,4.48 24.12,24.12 0 0 0 -0.72,6.61 v 0.41 c 0,0.35 0.01,0.84 0.05,1.34 z"
               color="#000000"
               fill="#000000"
               stroke="none"
               id="path19" />
            <path
               d="m 74.52,54.85 v 0.06 0.3 a 13.56,13.56 0 0 0 0,1.56 v 0.12 c 0.16,1.28 0.31,2.26 0.48,3.14 a 19.69,19.69 0 0 0 1,3.76 8.7,8.7 0 0 0 3,4 4.79,4.79 0 0 0 6.12,0 7.75,7.75 0 0 0 2.24,-2.63 19.54,19.54 0 0 0 1.71,-4.5 25,25 0 0 0 0.62,-4.75 20.41,20.41 0 0 0 -0.08,-3.4 c 0,-0.46 -0.11,-0.91 -0.17,-1.36 -0.06,-0.45 -0.12,-0.85 -0.17,-1.27 a 16.34,16.34 0 0 0 -0.78,-3.42 13.17,13.17 0 0 0 -2,-3.74 A 6,6 0 0 0 83,40.39 3.66,3.66 0 0 0 81.32,40.33 l -0.19,0.05 A 7.26,7.26 0 0 0 77.48,42.81 10.47,10.47 0 0 0 76,45.53 28.66,28.66 0 0 0 74.74,50 14.35,14.35 0 0 0 74.47,53.58 c 0.02,0.42 0.03,0.84 0.05,1.27 z"
               color="#000000"
               fill="#000000"
               stroke="none"
               id="path20" />
          </g>
        </g>
      </g>
    </g>
    <text
       color="#000000"
       dominant-baseline="text-after-edge"
       font-family="'__Montserrat_237071', '__Montserrat_Fallback_237071'"
       font-size="16px"
       font-size-adjust="none"
       font-stretch="100%"
       font-style="normal"
       font-variant="normal"
       font-weight="400"
       direction="ltr"
       letter-spacing="normal"
       text-decoration="rgb(0, 0, 0)"
       text-anchor="start"
       text-rendering="auto"
       unicode-bidi="isolate"
       word-spacing="0px"
       writing-mode="lr-tb"
       user-select="auto"
       fill="#000000"
       id="text20"><tspan
         xml:space="preserve"
         x="1000"
         y="841"
         lengthAdjust="spacingAndGlyphs"
         id="tspan20"> </tspan></text>
  </g>
</svg>
