<?xml version="1.0" encoding="UTF-8" standalone="no"?>
<!-- Created with Inkscape (http://www.inkscape.org/) -->

<svg
   width="850"
   height="2400"
   viewBox="0 0 224.89584 635"
   version="1.1"
   id="svg1"
   inkscape:export-filename="Template.png"
   inkscape:export-xdpi="96"
   inkscape:export-ydpi="96"
   xml:space="preserve"
   inkscape:version="1.4 (86a8ad7, 2024-10-11)"
   sodipodi:docname="Template.svg"
   xmlns:inkscape="http://www.inkscape.org/namespaces/inkscape"
   xmlns:sodipodi="http://sodipodi.sourceforge.net/DTD/sodipodi-0.dtd"
   xmlns="http://www.w3.org/2000/svg"
   xmlns:svg="http://www.w3.org/2000/svg"><sodipodi:namedview
     id="namedview1"
     pagecolor="#ffffff"
     bordercolor="#000000"
     borderopacity="0.25"
     inkscape:showpageshadow="2"
     inkscape:pageopacity="0.0"
     inkscape:pagecheckerboard="0"
     inkscape:deskcolor="#d1d1d1"
     inkscape:document-units="px"
     inkscape:zoom="0.57246788"
     inkscape:cx="352.85822"
     inkscape:cy="1082.1568"
     inkscape:window-width="3840"
     inkscape:window-height="2066"
     inkscape:window-x="-11"
     inkscape:window-y="-11"
     inkscape:window-maximized="1"
     inkscape:current-layer="layer1" /><defs
     id="defs1"><style
       id="style1">.logo-cls-1,.logo-cls-2{fill:none;stroke-linejoin:round;}.logo-cls-1{stroke:#f3ff00;stroke-width:96px;}.logo-cls-2{stroke:#000;stroke-width:63px;}.logo-cls-3{fill:#f3ff00;}.logo-cls-4{fill:#000;}</style></defs><g
     inkscape:label="Ebene 1"
     inkscape:groupmode="layer"
     id="layer1"><rect
       style="fill:#ffff00;stroke-width:0.239196"
       id="rect2"
       width="224.89584"
       height="635"
       x="5.9195963e-06"
       y="1.923077e-06" /><rect
       style="fill:#000000;stroke-width:0.28642"
       id="rect1"
       width="158.75"
       height="158.75"
       x="33.072918"
       y="127" /><rect
       style="fill:#000000;stroke-width:0.28642"
       id="rect1-8"
       width="158.75"
       height="158.75"
       x="33.072918"
       y="291.04166" /><rect
       style="fill:#000000;stroke-width:0.28642"
       id="rect1-8-5"
       width="158.75"
       height="158.75"
       x="33.072918"
       y="455.08334" /><g
       id="Layer_1"
       data-name="Layer 1"
       transform="matrix(0.07838065,0,0,0.07838065,26.126336,31.75)"><path
         class="logo-cls-1"
         d="m 133.61,585.09 v -137.2 a 33.46,33.46 0 0 0 -7.86,-21.95 q -7.87,-9.51 -24.33,-22.32 -11.72,-9.51 -19,-16.47 A 153.85,153.85 0 0 1 66.14,368.31 85.7,85.7 0 0 1 52.6,341.42 112.45,112.45 0 0 1 48,308.49 V 199.1 Q 48,163.63 70.32,142 92.64,120.37 130,120.44 q 35.49,0 57.08,21.59 21.59,21.59 21.58,57.07 v 122.2 h -75 V 184.83 H 123 V 307 a 33.4,33.4 0 0 0 7.87,22 q 7.86,9.52 24.33,22.32 9.13,7.32 15,12.44 a 153,153 0 0 1 14.08,14.63 91.68,91.68 0 0 1 12.81,18.61 116.39,116.39 0 0 1 8,22.5 112.6,112.6 0 0 1 3.47,28.36 v 122.96 q 0,35.49 -22.31,57.07 -22.31,21.58 -59.64,21.59 -35.49,0 -57.07,-21.59 Q 47.96,606.3 48,570.82 v -137.2 h 75 v 151.47 z"
         id="path1" /><path
         class="logo-cls-1"
         d="m 289.83,647.28 h -75 L 235,122.64 h 122.15 l 20.49,524.64 h -75 v -173 H 289.83 Z M 291.3,112.39 H 226.91 V 48 h 64.39 z m 1.46,72.44 -2.93,227.17 h 12.81 l -2.2,-227.2 z M 366.3,112.39 H 301.91 V 48 h 64.39 z"
         id="path2" /><path
         class="logo-cls-1"
         d="m 544.48,310.69 h -75 V 184.83 h -10.62 v 400.26 h 10.61 V 438.38 H 464 v -67.69 h 80.49 v 200.13 q 0,35.49 -22.32,57.07 -22.32,21.58 -59.64,21.59 -35.49,0 -57.07,-21.59 -21.58,-21.59 -21.59,-57.07 V 199.1 q 0,-35.47 22.32,-57.07 22.32,-21.6 59.63,-21.59 35.49,0 57.08,21.59 21.59,21.59 21.59,57.07 z"
         id="path3" /><path
         class="logo-cls-1"
         d="m 671.43,122.64 v 67.68 h -42.08 v 154.39 h 42.08 V 412 h -42.08 v 168 h 45.74 v 67.32 H 554.35 V 122.64 Z"
         id="path4" /><path
         class="logo-cls-1"
         d="m 809,266.05 22,237.45 h 10.61 l -22,-237.45 V 122.64 h 75 V 266.05 L 884,647.28 H 809 L 791.8,412 h -7.32 l -17.19,235.28 h -75 L 681.67,266.05 V 122.64 h 75 V 266.05 L 735.09,503.5 h 10.24 l 22,-237.45 z"
         id="path5" /><path
         class="logo-cls-1"
         d="m 1021.93,122.64 v 67.68 h -42.08 v 154.39 h 42.08 V 412 h -42.08 v 168 h 45.73 v 67.32 H 904.85 V 122.64 Z"
         id="path6" /><path
         class="logo-cls-1"
         d="m 1192.78,647.28 h -75 V 412 h -10.61 v 235.28 h -75 V 122.64 h 81.95 q 35.49,0 57.08,21.58 21.59,21.58 21.58,57.08 v 122.19 q 0,33.3 -20.48,54.88 20.48,21.6 20.48,55.25 z m -85.61,-462.45 v 159.88 h 10.61 V 184.83 Z"
         id="path7" /><path
         class="logo-cls-1"
         d="m 1360,433.62 9.15,213.66 H 1293.4 L 1285.35,412 h -7.69 v 235.28 h -75 V 122.64 h 75 v 222.07 h 7.69 l 8.78,-222.07 h 75 L 1360,323.49 q -1.1,34.77 -20.12,54.88 19,20.13 20.12,55.25 z"
         id="path8" /><path
         class="logo-cls-1"
         d="m 1984.14,647.28 h -160.61 v -176 A 112,112 0 0 1 1827,443 a 116.39,116.39 0 0 1 8,-22.5 91.14,91.14 0 0 1 12.81,-18.66 154.59,154.59 0 0 1 14.08,-14.64 q 5.85,-5.11 15,-12.44 11,-8.77 16.47,-13.71 a 59.71,59.71 0 0 0 10.64,-13.41 32.74,32.74 0 0 0 5.12,-17.19 V 184.83 h -10.61 V 321.3 h -75 V 199.1 q 0,-35.47 21.58,-57.07 21.58,-21.6 57.08,-21.59 37.32,0 59.63,21.59 22.31,21.59 22.32,57.07 v 132.81 a 112.5,112.5 0 0 1 -4.57,32.93 85.81,85.81 0 0 1 -13.55,26.89 154.72,154.72 0 0 1 -16.28,18.84 q -7.32,7 -19,16.46 -11,8.79 -16.47,13.72 a 59.71,59.71 0 0 0 -10.61,13.36 32.64,32.64 0 0 0 -5.12,17.19 v 101 h 85.61 z"
         id="path9" /><path
         class="logo-cls-1"
         d="M 1994,359 V 122.64 h 160.61 v 75 H 2069 V 295 h 4.39 q 0,-16.47 11.89,-27.26 11.89,-10.79 28.72,-10.83 16.83,0 28.72,10.79 11.89,10.79 11.91,27.3 v 273.62 q 0,35.86 -21.77,58.36 -21.77,22.5 -58.72,22.5 -37.3,0 -58.72,-21.41 Q 1994,606.66 1994,570.82 v -137.2 h 75 v 151.47 h 10.61 V 321.3 H 2069 V 359 Z"
         id="path10" /><path
         class="logo-cls-2"
         d="m 133.61,585.09 v -137.2 a 33.46,33.46 0 0 0 -7.86,-21.95 q -7.87,-9.51 -24.33,-22.32 -11.72,-9.51 -19,-16.47 A 153.85,153.85 0 0 1 66.14,368.31 85.7,85.7 0 0 1 52.6,341.42 112.45,112.45 0 0 1 48,308.49 V 199.1 Q 48,163.63 70.32,142 92.64,120.37 130,120.44 q 35.49,0 57.08,21.59 21.59,21.59 21.58,57.07 v 122.2 h -75 V 184.83 H 123 V 307 a 33.4,33.4 0 0 0 7.87,22 q 7.86,9.52 24.33,22.32 9.13,7.32 15,12.44 a 153,153 0 0 1 14.08,14.63 91.68,91.68 0 0 1 12.81,18.61 116.39,116.39 0 0 1 8,22.5 112.6,112.6 0 0 1 3.47,28.36 v 122.96 q 0,35.49 -22.31,57.07 -22.31,21.58 -59.64,21.59 -35.49,0 -57.07,-21.59 Q 47.96,606.3 48,570.82 v -137.2 h 75 v 151.47 z"
         id="path11" /><path
         class="logo-cls-2"
         d="m 289.83,647.28 h -75 L 235,122.64 h 122.15 l 20.49,524.64 h -75 v -173 H 289.83 Z M 291.3,112.39 H 226.91 V 48 h 64.39 z m 1.46,72.44 -2.93,227.17 h 12.81 l -2.2,-227.2 z M 366.3,112.39 H 301.91 V 48 h 64.39 z"
         id="path12" /><path
         class="logo-cls-2"
         d="m 544.48,310.69 h -75 V 184.83 h -10.62 v 400.26 h 10.61 V 438.38 H 464 v -67.69 h 80.49 v 200.13 q 0,35.49 -22.32,57.07 -22.32,21.58 -59.64,21.59 -35.49,0 -57.07,-21.59 -21.58,-21.59 -21.59,-57.07 V 199.1 q 0,-35.47 22.32,-57.07 22.32,-21.6 59.63,-21.59 35.49,0 57.08,21.59 21.59,21.59 21.59,57.07 z"
         id="path13" /><path
         class="logo-cls-2"
         d="m 671.43,122.64 v 67.68 h -42.08 v 154.39 h 42.08 V 412 h -42.08 v 168 h 45.74 v 67.32 H 554.35 V 122.64 Z"
         id="path14" /><path
         class="logo-cls-2"
         d="m 809,266.05 22,237.45 h 10.61 l -22,-237.45 V 122.64 h 75 V 266.05 L 884,647.28 H 809 L 791.8,412 h -7.32 l -17.19,235.28 h -75 L 681.67,266.05 V 122.64 h 75 V 266.05 L 735.09,503.5 h 10.24 l 22,-237.45 z"
         id="path15" /><path
         class="logo-cls-2"
         d="m 1021.93,122.64 v 67.68 h -42.08 v 154.39 h 42.08 V 412 h -42.08 v 168 h 45.73 v 67.32 H 904.85 V 122.64 Z"
         id="path16" /><path
         class="logo-cls-2"
         d="m 1192.78,647.28 h -75 V 412 h -10.61 v 235.28 h -75 V 122.64 h 81.95 q 35.49,0 57.08,21.58 21.59,21.58 21.58,57.08 v 122.19 q 0,33.3 -20.48,54.88 20.48,21.6 20.48,55.25 z m -85.61,-462.45 v 159.88 h 10.61 V 184.83 Z"
         id="path17" /><path
         class="logo-cls-2"
         d="m 1360,433.62 9.15,213.66 H 1293.4 L 1285.35,412 h -7.69 v 235.28 h -75 V 122.64 h 75 v 222.07 h 7.69 l 8.78,-222.07 h 75 L 1360,323.49 q -1.1,34.77 -20.12,54.88 19,20.13 20.12,55.25 z"
         id="path18" /><path
         class="logo-cls-2"
         d="m 1984.14,647.28 h -160.61 v -176 A 112,112 0 0 1 1827,443 a 116.39,116.39 0 0 1 8,-22.5 91.14,91.14 0 0 1 12.81,-18.66 154.59,154.59 0 0 1 14.08,-14.64 q 5.85,-5.11 15,-12.44 11,-8.77 16.47,-13.71 a 59.71,59.71 0 0 0 10.64,-13.41 32.74,32.74 0 0 0 5.12,-17.19 V 184.83 h -10.61 V 321.3 h -75 V 199.1 q 0,-35.47 21.58,-57.07 21.58,-21.6 57.08,-21.59 37.32,0 59.63,21.59 22.31,21.59 22.32,57.07 v 132.81 a 112.5,112.5 0 0 1 -4.57,32.93 85.81,85.81 0 0 1 -13.55,26.89 154.72,154.72 0 0 1 -16.28,18.84 q -7.32,7 -19,16.46 -11,8.79 -16.47,13.72 a 59.71,59.71 0 0 0 -10.61,13.36 32.64,32.64 0 0 0 -5.12,17.19 v 101 h 85.61 z"
         id="path19" /><path
         class="logo-cls-2"
         d="M 1994,359 V 122.64 h 160.61 v 75 H 2069 V 295 h 4.39 q 0,-16.47 11.89,-27.26 11.89,-10.79 28.72,-10.83 16.83,0 28.72,10.79 11.89,10.79 11.91,27.3 v 273.62 q 0,35.86 -21.77,58.36 -21.77,22.5 -58.72,22.5 -37.3,0 -58.72,-21.41 Q 1994,606.66 1994,570.82 v -137.2 h 75 v 151.47 h 10.61 V 321.3 H 2069 V 359 Z"
         id="path20" /><path
         class="logo-cls-3"
         d="m 133.61,585.09 v -137.2 a 33.46,33.46 0 0 0 -7.86,-21.95 q -7.87,-9.51 -24.33,-22.32 -11.72,-9.51 -19,-16.47 A 153.85,153.85 0 0 1 66.14,368.31 85.7,85.7 0 0 1 52.6,341.42 112.45,112.45 0 0 1 48,308.49 V 199.1 Q 48,163.63 70.32,142 92.64,120.37 130,120.44 q 35.49,0 57.08,21.59 21.59,21.59 21.58,57.07 v 122.2 h -75 V 184.83 H 123 V 307 a 33.4,33.4 0 0 0 7.87,22 q 7.86,9.52 24.33,22.32 9.13,7.32 15,12.44 a 153,153 0 0 1 14.08,14.63 91.68,91.68 0 0 1 12.81,18.61 116.39,116.39 0 0 1 8,22.5 112.6,112.6 0 0 1 3.47,28.36 v 122.96 q 0,35.49 -22.31,57.07 -22.31,21.58 -59.64,21.59 -35.49,0 -57.07,-21.59 Q 47.96,606.3 48,570.82 v -137.2 h 75 v 151.47 z"
         id="path21" /><path
         class="logo-cls-3"
         d="m 289.83,647.28 h -75 L 235,122.64 h 122.15 l 20.49,524.64 h -75 v -173 H 289.83 Z M 291.3,112.39 H 226.91 V 48 h 64.39 z m 1.46,72.44 -2.93,227.17 h 12.81 l -2.2,-227.2 z M 366.3,112.39 H 301.91 V 48 h 64.39 z"
         id="path22" /><path
         class="logo-cls-3"
         d="m 544.48,310.69 h -75 V 184.83 h -10.62 v 400.26 h 10.61 V 438.38 H 464 v -67.69 h 80.49 v 200.13 q 0,35.49 -22.32,57.07 -22.32,21.58 -59.64,21.59 -35.49,0 -57.07,-21.59 -21.58,-21.59 -21.59,-57.07 V 199.1 q 0,-35.47 22.32,-57.07 22.32,-21.6 59.63,-21.59 35.49,0 57.08,21.59 21.59,21.59 21.59,57.07 z"
         id="path23" /><path
         class="logo-cls-3"
         d="m 671.43,122.64 v 67.68 h -42.08 v 154.39 h 42.08 V 412 h -42.08 v 168 h 45.74 v 67.32 H 554.35 V 122.64 Z"
         id="path24" /><path
         class="logo-cls-3"
         d="m 809,266.05 22,237.45 h 10.61 l -22,-237.45 V 122.64 h 75 V 266.05 L 884,647.28 H 809 L 791.8,412 h -7.32 l -17.19,235.28 h -75 L 681.67,266.05 V 122.64 h 75 V 266.05 L 735.09,503.5 h 10.24 l 22,-237.45 z"
         id="path25" /><path
         class="logo-cls-3"
         d="m 1021.93,122.64 v 67.68 h -42.08 v 154.39 h 42.08 V 412 h -42.08 v 168 h 45.73 v 67.32 H 904.85 V 122.64 Z"
         id="path26" /><path
         class="logo-cls-3"
         d="m 1192.78,647.28 h -75 V 412 h -10.61 v 235.28 h -75 V 122.64 h 81.95 q 35.49,0 57.08,21.58 21.59,21.58 21.58,57.08 v 122.19 q 0,33.3 -20.48,54.88 20.48,21.6 20.48,55.25 z m -85.61,-462.45 v 159.88 h 10.61 V 184.83 Z"
         id="path27" /><path
         class="logo-cls-3"
         d="m 1360,433.62 9.15,213.66 H 1293.4 L 1285.35,412 h -7.69 v 235.28 h -75 V 122.64 h 75 v 222.07 h 7.69 l 8.78,-222.07 h 75 L 1360,323.49 q -1.1,34.77 -20.12,54.88 19,20.13 20.12,55.25 z"
         id="path28" /><path
         class="logo-cls-3"
         d="m 1984.14,647.28 h -160.61 v -176 A 112,112 0 0 1 1827,443 a 116.39,116.39 0 0 1 8,-22.5 91.14,91.14 0 0 1 12.81,-18.66 154.59,154.59 0 0 1 14.08,-14.64 q 5.85,-5.11 15,-12.44 11,-8.77 16.47,-13.71 a 59.71,59.71 0 0 0 10.64,-13.41 32.74,32.74 0 0 0 5.12,-17.19 V 184.83 h -10.61 V 321.3 h -75 V 199.1 q 0,-35.47 21.58,-57.07 21.58,-21.6 57.08,-21.59 37.32,0 59.63,21.59 22.31,21.59 22.32,57.07 v 132.81 a 112.5,112.5 0 0 1 -4.57,32.93 85.81,85.81 0 0 1 -13.55,26.89 154.72,154.72 0 0 1 -16.28,18.84 q -7.32,7 -19,16.46 -11,8.79 -16.47,13.72 a 59.71,59.71 0 0 0 -10.61,13.36 32.64,32.64 0 0 0 -5.12,17.19 v 101 h 85.61 z"
         id="path29" /><path
         class="logo-cls-3"
         d="M 1994,359 V 122.64 h 160.61 v 75 H 2069 V 295 h 4.39 q 0,-16.47 11.89,-27.26 11.89,-10.79 28.72,-10.83 16.83,0 28.72,10.79 11.89,10.79 11.91,27.3 v 273.62 q 0,35.86 -21.77,58.36 -21.77,22.5 -58.72,22.5 -37.3,0 -58.72,-21.41 Q 1994,606.66 1994,570.82 v -137.2 h 75 v 151.47 h 10.61 V 321.3 H 2069 V 359 Z"
         id="path30" /><path
         class="logo-cls-4"
         d="m 1583,681.69 a 12,12 0 0 1 -10.71,-6.58 l -10.33,-20.42 q -2,2.32 -3.89,4.65 c -8.21,10.06 -19,15.39 -31.29,15.39 a 48.15,48.15 0 0 1 -11.33,-1.42 l -7.22,-1.69 c -7.23,-1.68 -14.71,-3.43 -22.34,-5.82 -8,-2.53 -15.61,-5.33 -23.68,-8.29 l -1.79,-0.65 c -3.36,-1.29 -6.91,-2.59 -10.67,-4 l -1,-0.38 a 12,12 0 0 1 -7.89,-11.18 l -0.19,-25.15 c -5,1.53 -10.11,3 -15.34,4.41 a 39.93,39.93 0 0 1 -10,1.23 c -10.57,0 -20.48,-3.68 -27.18,-10.11 -12.37,-11.84 -24.63,-24.49 -35.45,-35.65 -3.83,-4 -7.7,-7.94 -11.54,-11.86 l -7.13,-7.29 a 12,12 0 0 1 -1.91,-14.24 l 11.3,-20.27 q 0.18,-0.31 0.36,-0.6 -5.65,-1.41 -11.32,-2.93 c -10.27,-2.72 -22.33,-11.3 -26,-24.31 -4.59,-16.15 -8.83,-32.57 -12.93,-48.45 l -2.32,-9 c -0.88,-3.4 -1.76,-6.8 -2.64,-10.16 l -2.81,-10.85 a 12,12 0 0 1 6.33,-13.78 l 20,-9.79 q -3.66,-3.45 -7.3,-7 c -10.11,-9.87 -14.34,-21.92 -11.62,-33.08 4.63,-18.76 10,-38.34 14.22,-54.08 q 2,-7.6 4.14,-15.26 l 3.34,-12.5 a 12,12 0 0 1 14.17,-8.62 l 20.48,4.51 c -1.17,-4 -2.31,-8 -3.39,-12 -2.82,-10.58 -1.45,-25.64 8,-35.49 12.34,-13 25.12,-25.69 37.47,-38 3.93,-3.89 7.81,-7.76 11.72,-11.68 l 8.41,-8.41 a 12,12 0 0 1 15.76,-1.06 l 16.79,12.8 c 0.73,-3.09 1.47,-6.2 2.23,-9.3 3.36,-13.19 10.35,-22.22 20.23,-26.2 A 267.66,267.66 0 0 1 1537,119.72 c 2.55,-0.29 5.06,-0.54 7.61,-0.75 0.33,0 0.66,0 1,0 a 12,12 0 0 1 11.61,9 l 6.06,23.44 c 4.82,-5.25 9.32,-10.31 13.65,-15.35 10.38,-12.17 22.08,-14.73 30.07,-14.73 a 40.7,40.7 0 0 1 11.15,1.59 l 22.91,6.52 23.54,6.7 28.84,8.27 a 12,12 0 0 1 8.6,13 l -2.62,20.79 c 3.13,-0.94 6.32,-1.86 9.54,-2.76 h 0.1 a 41.56,41.56 0 0 1 10.53,-1.34 c 10,0 19,3.33 25.26,9.38 12.49,12 24.62,24.37 37,37 l 0.49,0.49 c 3.67,3.75 7.3,7.46 11,11.16 l 7.82,7.9 a 12,12 0 0 1 1.46,15.09 l -12.77,19.18 c 4,1 8,1.95 12.06,3 9.77,2.52 21.48,9.84 25.18,22.85 4.3,15.05 8.39,30.37 12.34,45.2 l 2.37,8.87 7,26.32 a 12,12 0 0 1 -6.82,14.08 l -20.12,8.72 c 2.71,2.57 5.45,5.21 8.12,7.89 7.49,7.43 14.08,21.58 10.78,35 -4.08,16.61 -8.64,33.2 -13,49.24 l -0.41,1.49 c -1.49,5.32 -2.93,10.58 -4.36,15.85 l -2.77,10.16 a 12,12 0 0 1 -11.57,8.86 l -23.18,-0.28 q 1.51,5.12 3,10.3 c 2.77,10 2.38,24.23 -7,34.06 -13,13.58 -26.52,27.17 -39.18,39.83 -3.75,3.75 -7.5,7.5 -11.21,11.25 l -9.09,9.13 a 12,12 0 0 1 -16.42,0.55 l -15.25,-13.41 c -0.81,3.42 -1.64,6.81 -2.51,10.21 -2.6,9.92 -10.41,22.83 -23.9,26.81 -17.59,5.17 -35.64,9.94 -51.57,14.15 l -15.41,4.09 -10.7,2.84 a 12.12,12.12 0 0 1 -3.23,0.33 z m -60.76,-59.42 c 8.88,-10.47 18.35,-20.28 26.84,-29.07 l 1,-1.07 a 47.49,47.49 0 0 1 34.38,-14.89 45.52,45.52 0 0 1 45.06,39.38 q 5.22,-1.44 10.15,-2.83 c 1.28,-5.32 2.5,-10.73 3.69,-16 l 0.26,-1.18 c 1.32,-5.93 3.09,-13.76 5,-21.63 3.25,-13.29 10.67,-23.74 21.46,-30.22 a 44.55,44.55 0 0 1 23,-6.26 49.76,49.76 0 0 1 12.23,1.55 44.49,44.49 0 0 1 24.07,15.69 q 3.72,-3.8 7.4,-7.58 c -1.65,-5.63 -3.39,-11.33 -5.1,-16.89 l -0.89,-2.92 c -0.84,-2.77 -1.67,-5.49 -2.49,-8.22 -0.82,-2.73 -1.67,-5.49 -2.5,-8.22 -7.84,-26.51 3.72,-51 28.11,-59.54 a 47.32,47.32 0 0 1 15.71,-2.75 42.84,42.84 0 0 1 16.43,3.26 c 0.94,-3.56 1.83,-7 2.67,-10.26 -3.86,-3.7 -7.83,-7.37 -11.71,-11 l -1,-0.92 c -5.51,-5.07 -11.42,-10.57 -17.23,-16.25 -18.44,-18.18 -19.57,-45.18 -2.71,-64.22 a 45.2,45.2 0 0 1 27.49,-15.08 c -0.93,-3.4 -1.88,-6.87 -2.84,-10.34 -8,-1.95 -16.16,-3.83 -24.07,-5.66 l -1.72,-0.4 -9.68,-2.19 c -26.66,-6.18 -43,-28.51 -38.88,-53.11 a 45.57,45.57 0 0 1 17.22,-29 c -2.54,-2.53 -5.13,-5.09 -7.74,-7.64 -3.86,1.15 -7.81,2.38 -11.66,3.58 l -3.1,1 c -8.31,2.62 -16.9,5.34 -25.79,7.64 a 47.54,47.54 0 0 1 -12,1.56 45.29,45.29 0 0 1 -43.43,-32.58 45.79,45.79 0 0 1 1.49,-30.84 l -9.83,-2.79 c -8.35,9.53 -17.35,19.25 -27.93,30.17 a 46.75,46.75 0 0 1 -33.82,14.45 45.91,45.91 0 0 1 -45.5,-40.59 q -4.83,1.42 -9.58,3.1 c -1.45,6.09 -2.8,12 -3.87,16.81 l -0.55,2.43 c -1.48,6.55 -3,13.32 -4.68,20 -5.54,22.45 -23,37 -44.42,37 a 51.11,51.11 0 0 1 -11.17,-1.27 44.43,44.43 0 0 1 -25.5,-15.89 c -2.5,2.53 -4.89,5 -7.2,7.35 1.72,6 3.58,12 5.39,17.93 l 0.46,1.51 c 1.78,5.78 3.89,12.65 5.94,19.72 7,24.47 -5.71,49 -29.61,57 a 47.7,47.7 0 0 1 -15.15,2.52 44.13,44.13 0 0 1 -16.15,-3 c -0.94,3.58 -1.82,7 -2.66,10.26 3.06,2.9 6.17,5.79 9.22,8.62 l 3.08,2.86 c 6,5.54 11.22,10.43 15.94,14.93 19.81,19.08 21.37,46.93 3.74,66.25 A 44.64,44.64 0 0 1 1350.26,461 c 1,3.61 1.89,7 2.8,10.29 8.37,2.1 17,4.07 25.31,6 l 2.47,0.57 c 2.41,0.56 4.8,1.11 7.21,1.63 h 0.17 c 27.53,6.36 44.06,29.14 39.3,54.17 a 45.58,45.58 0 0 1 -17,28.24 c 2.47,2.47 5,5 7.53,7.47 4.87,-1.4 9.8,-2.94 14.93,-4.54 l 1.62,-0.51 c 7.85,-2.5 15.6,-4.94 23.45,-7 a 47.6,47.6 0 0 1 12.27,-1.62 45.94,45.94 0 0 1 42.08,64.3 c 2.67,0.66 5.35,1.29 8,1.9 z m -183,-204.07 z m 228.12,38.43 c -0.42,0 -1.06,0 -1.83,-0.06 -30.89,-1 -56.1,-27 -56.25,-58.08 v -0.21 a 58.78,58.78 0 0 1 17.14,-41.6 57.05,57.05 0 0 1 81.3,-0.06 58.74,58.74 0 0 1 17.24,41.7 v 0.19 a 59.21,59.21 0 0 1 -17.96,41.77 56.87,56.87 0 0 1 -39.69,16.35 z m -0.24,-65.76 a 6.25,6.25 0 0 0 -4.38,2 7.41,7.41 0 0 0 -2.17,5.26 v 0.06 a 7.17,7.17 0 0 0 6.68,7.17 h 0.22 a 5.72,5.72 0 0 0 3.8,-1.84 7.27,7.27 0 0 0 0.15,-10.66 6.11,6.11 0 0 0 -4.35,-1.99 z"
         id="path31" /><path
         class="logo-cls-3"
         d="m 1545.59,130.93 7.18,27.73 c -2.69,3.28 -5,6.13 -7.18,8.89 -2.36,3 -3.6,7.33 -0.08,10.5 a 6.35,6.35 0 0 0 4.28,1.69 8,8 0 0 0 5.62,-2.61 c 12,-12.38 21.76,-23 30.61,-33.3 6.93,-8.12 14.45,-10.55 21,-10.55 a 29.08,29.08 0 0 1 7.88,1.13 l 46.44,13.23 28.81,8.25 -2.84,22.56 -7.74,2.88 c -1.88,0.73 -3.8,1.41 -5.69,2.09 -4,1.48 -7.85,2.84 -11.54,4.37 -4.16,1.76 -6,5 -4.84,8.77 a 6.23,6.23 0 0 0 6,4.68 7.81,7.81 0 0 0 2,-0.27 c 8,-2.09 15.87,-4.57 24.16,-7.17 7.33,-2.33 15,-4.69 22.6,-6.82 a 29.14,29.14 0 0 1 7.42,-0.93 c 6,0 12.45,1.7 16.94,6 12.5,12.06 24.84,24.61 36.74,36.75 3.85,3.92 7.66,7.81 11.5,11.7 l 7.82,7.89 -13.17,19.61 -8.69,-1.48 c -1.6,-0.24 -3.21,-0.52 -4.81,-0.76 -3.36,-0.6 -6.57,-1.16 -9.78,-1.6 a 21.76,21.76 0 0 0 -3,-0.23 c -7.07,0 -7.76,4.25 -8,6 -1,5.77 7.29,8 9,8.37 l 9.62,2.2 c 11.54,2.65 23.48,5.37 35.18,8.34 6.21,1.6 14.26,6.33 16.59,14.5 5.13,18 9.93,36.23 14.66,53.9 l 4,14.94 3,11.34 -21.91,9.5 -6.45,-5.57 -4.33,-3.73 c -3,-2.68 -5.93,-5.21 -8.9,-7.53 a 9.09,9.09 0 0 0 -5.4,-2.27 6,6 0 0 0 -4.61,2.35 c -3,3.37 -2.73,6.69 0.84,10.18 5.29,5.21 10.9,10.37 16.3,15.42 6.22,5.69 12.63,11.62 18.76,17.75 5.37,5.33 9.69,15.19 7.61,23.68 -4.17,16.95 -8.86,33.94 -13.38,50.41 -1.49,5.29 -2.93,10.58 -4.37,15.87 l -2.77,10.18 -23.16,-0.28 -5,-13 c -1.25,-3.24 -2.53,-6.49 -3.73,-9.77 -2.4,-6.49 -5.09,-7.88 -7.2,-7.88 a 7.3,7.3 0 0 0 -2.5,0.54 c -1.84,0.6 -6.13,2.17 -3.44,11.22 1.6,5.41 3.24,10.78 4.89,16.19 2.8,9.18 5.73,18.67 8.37,28.17 1.8,6.53 1.8,16.35 -4.13,22.56 -12.86,13.42 -26.12,26.76 -39,39.63 -3.77,3.76 -7.54,7.53 -11.26,11.3 l -9.06,9.09 -17.83,-15.67 2.36,-12.9 c 0.73,-3.8 1.45,-7.65 2.17,-11.5 0.72,-3.85 -0.32,-8.41 -4.29,-9.45 a 11.43,11.43 0 0 0 -2.59,-0.34 5.35,5.35 0 0 0 -2.82,0.7 c -1.6,0.92 -2.84,3 -3.56,6 -1.69,6.85 -3.29,13.94 -4.81,20.79 -1.85,8.26 -3.77,16.79 -5.93,25.25 -1.45,5.49 -6.29,15.5 -15.67,18.27 -17,5 -34.42,9.61 -51.25,14.06 l -15.42,4.09 -10.7,2.84 -10.78,-21.31 5.69,-6.9 c 1.12,-1.36 2.24,-2.68 3.4,-4 2.41,-2.89 4.77,-5.61 7,-8.46 1.16,-1.48 4.68,-6.69 0.44,-10.74 a 6.16,6.16 0 0 0 -4.31,-1.76 8.54,8.54 0 0 0 -6,2.89 l -1,1.08 c -9.74,10.1 -19.76,20.51 -28.57,31.29 -6,7.3 -13.32,11 -22,11 a 35.7,35.7 0 0 1 -8.53,-1.09 l -6.7,-1.56 c -7.21,-1.69 -14.66,-3.41 -22.07,-5.73 -8.22,-2.61 -16.23,-5.57 -24.77,-8.7 -3.76,-1.44 -7.73,-2.88 -11.9,-4.41 l -0.2,-25.56 c 2.57,-1 4.93,-1.84 7.14,-2.68 4.36,-1.61 8.13,-3 11.7,-4.49 3.12,-1.28 6.57,-3.85 5.24,-8.74 a 6.13,6.13 0 0 0 -6.16,-4.82 8.86,8.86 0 0 0 -2.37,0.34 c -7.21,1.88 -14.26,4.12 -21.76,6.53 -7.81,2.44 -15.9,5 -24.16,7.17 a 28.12,28.12 0 0 1 -7,0.84 c -6.59,0 -13.93,-2 -18.87,-6.77 -12.06,-11.54 -23.8,-23.64 -35.14,-35.34 -3.85,-4 -7.74,-8 -11.58,-11.9 l -7.14,-7.29 11.3,-20.28 13.55,2.12 c 3.16,0.48 6.29,1 9.45,1.53 a 25.21,25.21 0 0 0 4,0.35 c 7.09,0 7.88,-4.16 8.22,-5.88 1,-5.49 -6.37,-7.82 -9.57,-8.54 l -8.78,-2 c -11.54,-2.61 -23.44,-5.33 -35.14,-8.5 -6.81,-1.8 -15.22,-7.61 -17.59,-16 -4.89,-17.19 -9.37,-34.7 -13.74,-51.61 -1.36,-5.25 -2.73,-10.54 -4.09,-15.75 l -2.8,-10.82 20.91,-10.25 10.78,9.05 c 2.93,2.44 5.81,4.89 8.78,7.25 2.77,2.27 4.91,3 6.55,3 a 5.45,5.45 0 0 0 4.22,-2.17 c 1.53,-1.64 4.69,-5.12 -1.88,-11.46 -5.09,-4.84 -10.38,-9.77 -15.51,-14.5 -6.2,-5.57 -12.37,-11.3 -18.37,-17.1 -3.32,-3.24 -10.73,-11.78 -8.33,-21.64 4.45,-18 9.38,-36.22 14.14,-53.77 1.37,-5.09 2.73,-10.14 4.13,-15.23 l 3.37,-12.58 24,5.29 2.48,7.17 c 0.64,1.85 1.28,3.73 1.89,5.57 1.28,3.81 2.48,7.38 3.88,10.7 1.69,3.93 4,4.82 5.82,4.82 a 7.63,7.63 0 0 0 2.52,-0.49 c 4.12,-1.4 5.69,-4.57 4.4,-8.9 -1.8,-6.37 -3.76,-12.82 -5.73,-19.07 -2.72,-8.89 -5.57,-18.15 -8,-27.41 -1.88,-7 -1.12,-17.63 5,-24.08 12.22,-12.86 25,-25.52 37.26,-37.74 3.93,-3.89 7.82,-7.77 11.74,-11.7 l 8.42,-8.42 18.55,14.15 -2.28,13.1 c -0.69,3.85 -1.33,7.65 -2,11.46 -0.48,2.57 -1,8.66 4.37,9.9 a 12.45,12.45 0 0 0 2.66,0.39 c 2.31,0 4.75,-1.26 6.24,-7.2 1.76,-7.18 3.4,-14.59 5,-21.72 1.73,-7.61 3.49,-15.47 5.41,-23.24 1.65,-6.45 5.21,-14.79 13.07,-17.95 a 255.42,255.42 0 0 1 67.31,-16.75 c 2.4,-0.28 4.81,-0.52 7.25,-0.72 m 4.19,76 a 33.78,33.78 0 0 1 -32,-44.37 214.69,214.69 0 0 0 -33.14,9.82 c -0.08,0.16 -0.12,0.36 -0.2,0.56 -1.84,7.49 -3.61,15.19 -5.29,22.68 -1.64,7.25 -3.33,14.78 -5.17,22.2 -4.3,17.43 -17,27.86 -32.77,27.86 a 38.74,38.74 0 0 1 -8.54,-1 32.47,32.47 0 0 1 -24.84,-24.48 c -8,8 -16.07,16.11 -23.88,24.24 v 0 c 2.36,8.78 5.12,17.71 7.77,26.33 2,6.37 4,12.94 5.89,19.55 5.29,18.43 -3.93,36.22 -21.92,42.27 a 35.52,35.52 0 0 1 -11.32,1.9 32.22,32.22 0 0 1 -23.5,-10.11 c -3,11 -5.89,22.12 -8.65,33.18 5.69,5.53 11.7,11.06 17.47,16.43 5.21,4.8 10.57,9.81 15.82,14.82 15.15,14.59 16.47,34.9 3.17,49.49 a 32.49,32.49 0 0 1 -24.29,11 34.23,34.23 0 0 1 -9.93,-1.5 c 2.85,11.06 5.81,22.28 8.94,33.3 10.93,2.88 22.31,5.49 33.29,8 3,0.68 5.89,1.37 8.86,2 21.36,4.93 33.78,21.47 30.21,40.23 -2.68,14.22 -12.3,23.88 -25.56,27 7.93,8.1 16,16.23 24.08,24 a 5.72,5.72 0 0 0 1,0.1 h 0.3 c 7.49,-2 14.83,-4.28 22.64,-6.73 7.41,-2.36 15.14,-4.81 23,-6.89 a 35.64,35.64 0 0 1 9.18,-1.21 33.64,33.64 0 0 1 32.62,24.95 33.28,33.28 0 0 1 -10,34.22 c 1.61,0.56 3.17,1.08 4.73,1.56 6.41,2 13,3.57 20,5.21 2.32,0.52 4.6,1 6.89,1.6 a 9.21,9.21 0 0 0 2.12,0.32 5.31,5.31 0 0 0 0.92,-1 c 9.5,-11.66 20,-22.52 30,-33 l 1,-1.09 a 35.72,35.72 0 0 1 25.73,-11.21 33.27,33.27 0 0 1 23.07,9.25 33.63,33.63 0 0 1 9.06,34.06 c 11,-2.93 22.11,-6 33.05,-9.14 2,-7.93 3.89,-16.18 5.69,-24.2 1.56,-7 3.21,-14.22 5,-21.39 2.48,-10.14 8,-18 16,-22.8 a 32.44,32.44 0 0 1 16.81,-4.55 37.71,37.71 0 0 1 9.27,1.18 33.07,33.07 0 0 1 23.92,24.28 c 8,-8 16.07,-16.27 24,-24.44 -2.48,-8.85 -5.28,-17.91 -8,-26.69 -1.64,-5.44 -3.32,-10.93 -5,-16.38 -6,-20.32 2.25,-38.31 20.6,-44.76 a 35.28,35.28 0 0 1 11.73,-2.07 31.67,31.67 0 0 1 23.61,10.68 c 3,-11 6,-22.31 8.81,-33.45 -5.77,-5.73 -11.9,-11.38 -17.83,-16.87 -5.61,-5.17 -11.38,-10.54 -17,-16 -13.94,-13.74 -14.82,-33.34 -2.12,-47.68 a 33.19,33.19 0 0 1 25,-11.51 33.87,33.87 0 0 1 9.36,1.33 c -2.93,-11 -5.93,-22.2 -9.06,-33.18 -10.85,-2.72 -22,-5.29 -32.73,-7.77 l -9.74,-2.2 c -20.55,-4.77 -32.78,-21 -29.69,-39.43 a 33.15,33.15 0 0 1 25.68,-27.61 c -8.09,-8.21 -16.34,-16.51 -24.64,-24.48 h -0.16 c -7,1.92 -14.3,4.25 -21.4,6.45 -8.25,2.61 -16.74,5.29 -25.4,7.53 a 35.24,35.24 0 0 1 -9,1.18 33.18,33.18 0 0 1 -31.94,-24.06 33.66,33.66 0 0 1 9.06,-34.41 c -10.94,-3.13 -22,-6.26 -32.9,-9.34 a 4.1,4.1 0 0 0 -0.8,0.84 c -9.26,10.78 -19.31,21.76 -31.74,34.58 A 35,35 0 0 1 1549.78,207 m 17.29,144.68 a 45.11,45.11 0 0 1 32.1,13.46 46.81,46.81 0 0 1 13.74,33.23 46.81,46.81 0 0 0 -13.74,-33.23 45,45 0 0 0 -64.27,0 46.75,46.75 0 0 0 -13.67,33.15 46.75,46.75 0 0 1 13.67,-33.15 45.13,45.13 0 0 1 32.17,-13.5 m 0,0 a 45.11,45.11 0 0 1 32.1,13.46 46.81,46.81 0 0 1 13.74,33.23 46.81,46.81 0 0 0 -13.74,-33.23 45,45 0 0 0 -64.27,0 46.75,46.75 0 0 0 -13.67,33.15 46.75,46.75 0 0 1 13.67,-33.15 45.13,45.13 0 0 1 32.17,-13.5 m 0,0 a 45.11,45.11 0 0 1 32.1,13.46 46.81,46.81 0 0 1 13.74,33.23 v 0.15 a 47.1,47.1 0 0 1 -14.31,33.21 44.78,44.78 0 0 1 -31.29,12.95 c -0.36,0 -0.76,0 -1.16,0 -24.64,-0.64 -44.8,-21.36 -44.92,-46.16 v -0.15 a 46.75,46.75 0 0 1 13.67,-33.15 45.13,45.13 0 0 1 32.17,-13.5 m -18.55,46.48 v 0.16 a 19.17,19.17 0 0 0 18.35,19.07 h 0.55 a 17.41,17.41 0 0 0 12.19,-5.26 19.51,19.51 0 0 0 6,-13.78 v -0.08 a 19.5,19.5 0 0 0 -5.77,-13.87 18,18 0 0 0 -12.78,-5.49 18.18,18.18 0 0 0 -12.86,5.49 19.44,19.44 0 0 0 -5.69,13.75 m 18.55,-19.24 a 18,18 0 0 1 12.78,5.49 19.5,19.5 0 0 1 5.77,13.87 v 0 a 19.5,19.5 0 0 0 -5.77,-13.87 18,18 0 0 0 -12.78,-5.49 18.18,18.18 0 0 0 -12.86,5.49 19.44,19.44 0 0 0 -5.69,13.75 19.44,19.44 0 0 1 5.69,-13.75 18.18,18.18 0 0 1 12.86,-5.49 m 0,0 a 18,18 0 0 1 12.78,5.49 19.5,19.5 0 0 1 5.77,13.87 v 0 a 19.5,19.5 0 0 0 -5.77,-13.87 18,18 0 0 0 -12.78,-5.49 18.18,18.18 0 0 0 -12.86,5.49 19.44,19.44 0 0 0 -5.69,13.75 19.44,19.44 0 0 1 5.69,-13.75 18.18,18.18 0 0 1 12.86,-5.49 m -18.55,19.24 v 0.16 a 19.17,19.17 0 0 0 18.35,19.07 h 0.55 a 17.41,17.41 0 0 0 12.19,-5.26 19.51,19.51 0 0 0 6,-13.78 19.51,19.51 0 0 1 -6,13.78 17.41,17.41 0 0 1 -12.19,5.26 h -0.55 a 19.17,19.17 0 0 1 -18.35,-19.07 v -0.16 m 0,0 v 0.16 a 19.17,19.17 0 0 0 18.35,19.07 h 0.55 a 17.41,17.41 0 0 0 12.19,-5.26 19.51,19.51 0 0 0 6,-13.78 19.51,19.51 0 0 1 -6,13.78 17.41,17.41 0 0 1 -12.19,5.26 h -0.55 a 19.17,19.17 0 0 1 -18.35,-19.07 v -0.16 m -27.29,0.17 v 0.15 c 0.12,24.8 20.28,45.52 44.92,46.16 0.4,0 0.8,0 1.16,0 a 44.78,44.78 0 0 0 31.29,-12.95 47.1,47.1 0 0 0 14.31,-33.21 v 0 a 47.1,47.1 0 0 1 -14.31,33.21 44.78,44.78 0 0 1 -31.29,12.95 c -0.36,0 -0.76,0 -1.16,0 -24.64,-0.64 -44.8,-21.36 -44.92,-46.16 v -0.15 m 0,0 v 0.15 c 0.12,24.8 20.28,45.52 44.92,46.16 0.4,0 0.8,0 1.16,0 a 44.78,44.78 0 0 0 31.29,-12.95 47.1,47.1 0 0 0 14.31,-33.21 v 0 a 47.1,47.1 0 0 1 -14.31,33.21 44.78,44.78 0 0 1 -31.29,12.95 c -0.36,0 -0.76,0 -1.16,0 -24.64,-0.64 -44.8,-21.36 -44.92,-46.16 v -0.15 m 24.38,-291.35 c -0.66,0 -1.31,0 -2,0.08 -2.68,0.22 -5.3,0.48 -8,0.8 a 279.14,279.14 0 0 0 -73.5,18.3 h -0.06 c -11.15,4.5 -19.76,13.71 -24.78,26.35 l -2.7,-2.06 a 24,24 0 0 0 -31.52,2.11 l -8.42,8.42 c -4,4 -7.77,7.77 -11.65,11.61 -12.44,12.36 -25.26,25.1 -37.75,38.24 -11.22,11.76 -13.66,27.54 -12.19,39.87 l -1.59,-0.35 a 24,24 0 0 0 -28.34,17.24 l -3.34,12.51 c -1.23,4.47 -2.51,9.18 -4.14,15.25 -4.29,15.78 -9.62,35.42 -14.27,54.28 v 0.06 c -3.28,13.45 0.46,27.54 10.28,39.49 l -4.94,2.42 A 24,24 0 0 0 1274,419.16 l 2.81,10.81 v 0 c 0.9,3.45 1.81,6.93 2.71,10.41 l 1.37,5.3 0.88,3.4 c 4.11,15.95 8.37,32.43 13,48.74 4.79,17 18.89,27.23 30.89,31.49 l -4.17,7.48 a 24,24 0 0 0 3.81,28.47 l 7.13,7.29 c 4,4 8.15,8.36 11.51,11.83 10.88,11.23 23.22,24 35.78,36 8.89,8.53 21.83,13.43 35.46,13.43 a 51.64,51.64 0 0 0 13.06,-1.62 l 0.45,-0.11 0.07,9.33 a 24,24 0 0 0 15.77,22.36 l 1.08,0.39 c 3.7,1.35 7.2,2.63 10.47,3.88 l 0.33,0.13 1.68,0.61 c 8.18,3 15.91,5.83 24.08,8.42 h 0.08 c 8.07,2.53 15.79,4.33 23.24,6.07 l 0.56,0.13 6.58,1.54 a 60.37,60.37 0 0 0 14.1,1.74 50.08,50.08 0 0 0 32.27,-11.32 l 2.61,5.16 a 24,24 0 0 0 21.39,13.18 24.34,24.34 0 0 0 6.18,-0.81 l 10.69,-2.85 7.68,-2 7.74,-2 c 16,-4.22 34.11,-9 51.86,-14.24 14.71,-4.34 24.25,-15.76 29.26,-27.08 l 1.1,1 a 24,24 0 0 0 32.85,-1.1 l 9.05,-9.09 h 0.06 c 3.67,-3.71 7.46,-7.51 11.13,-11.18 12.74,-12.74 26.31,-26.38 39.38,-40 11.31,-11.84 13.22,-27.84 11.06,-40.49 l 7.22,0.08 h 0.3 a 24,24 0 0 0 23.16,-17.71 l 2.76,-10.18 c 1.4,-5.13 2.85,-10.46 4.32,-15.68 v -0.12 l 0.44,-1.6 c 4.42,-16.08 9,-32.72 13.11,-49.44 3.8,-15.51 -1.76,-31.17 -9.84,-41.68 l 4.17,-1.81 a 24,24 0 0 0 13.65,-28.17 l -3,-11.34 c -0.67,-2.5 -1.33,-5 -2,-7.47 -0.67,-2.47 -1.32,-5 -2,-7.5 -0.78,-2.94 -1.57,-5.88 -2.35,-8.82 -4,-14.9 -8.09,-30.31 -12.43,-45.49 -4.54,-16 -17.51,-25.61 -29.46,-29.86 l 3.45,-5.19 a 24,24 0 0 0 -2.93,-30.17 l -7.81,-7.9 c -3.74,-3.77 -7.37,-7.48 -11.22,-11.41 l -0.19,-0.2 c -12.44,-12.69 -24.64,-25.08 -37.23,-37.22 -8.54,-8.22 -20.47,-12.75 -33.6,-12.75 a 55.65,55.65 0 0 0 -6.09,0.34 l 0.44,-3.5 A 24,24 0 0 0 1696.71,133 l -28.81,-8.25 h -0.05 l -23.25,-6.62 -23.19,-6.6 a 53.07,53.07 0 0 0 -14.44,-2 c -10.12,0 -24.72,3 -37.74,17.29 l -0.42,-1.65 a 24,24 0 0 0 -23.22,-18 z m 4.17,124 a 58.68,58.68 0 0 0 42.47,-18.14 c 4.89,-5.05 9.46,-9.85 13.77,-14.49 a 58.59,58.59 0 0 0 2.39,13.09 57.21,57.21 0 0 0 54.91,41.1 59.26,59.26 0 0 0 15,-1.95 c 7.55,-2 14.81,-4.17 21.86,-6.38 a 59.51,59.51 0 0 0 -5.66,17.35 c -5.18,31 15,59.07 48,66.72 h 0.12 l 9.66,2.19 1.66,0.38 5,1.16 a 60,60 0 0 0 -11.82,10.28 58,58 0 0 0 -14.94,41.06 c 0.66,14.64 7.12,28.72 18.19,39.63 l 0.06,0.06 c 5.25,5.14 10.52,10.07 15.51,14.68 a 60.2,60.2 0 0 0 -16,3.3 c -15.08,5.3 -26.9,15.88 -33.3,29.8 -6.18,13.43 -7,28.79 -2.37,44.42 v 0.11 q 1.25,4.13 2.51,8.26 c 0.82,2.71 1.65,5.43 2.46,8.13 v 0.1 l 0.23,0.74 a 55.52,55.52 0 0 0 -11.29,-4.18 61.37,61.37 0 0 0 -15.17,-1.92 56.63,56.63 0 0 0 -29.18,8 c -13.39,8 -23,21.42 -26.93,37.65 -1.67,6.78 -3.21,13.55 -4.47,19.13 a 57.55,57.55 0 0 0 -48.06,-26 59.37,59.37 0 0 0 -43,18.56 l -1,1.09 c -3.94,4.08 -8.09,8.39 -12.32,12.89 a 57.75,57.75 0 0 0 -57.77,-54.07 60,60 0 0 0 -15.32,2 c -7.13,1.9 -14.06,4 -21.07,6.26 a 60.84,60.84 0 0 0 5.39,-16.07 55.41,55.41 0 0 0 -10.15,-44.16 c -8.83,-11.77 -22.41,-20.26 -38.25,-23.91 l -0.32,-0.07 c -2.33,-0.5 -4.65,-1 -7.11,-1.6 l -1.44,-0.34 -1,-0.23 -6,-1.37 a 59.32,59.32 0 0 0 11.33,-9.72 57.26,57.26 0 0 0 15.27,-42.42 c -1,-14.89 -7.91,-29.27 -19.56,-40.49 l -0.08,-0.07 c -4.18,-4 -8.76,-8.29 -13.94,-13.08 a 60.29,60.29 0 0 0 15.18,-3 c 30.12,-10.13 46.17,-40.93 37.36,-71.65 v -0.08 c -2.06,-7.09 -4.19,-14.05 -6,-19.92 v -0.15 a 57.58,57.58 0 0 0 12.79,4.51 63.58,63.58 0 0 0 13.81,1.56 c 27.15,0 49.16,-18.1 56.07,-46.12 1.55,-6.21 3,-12.44 4.34,-18.51 a 59.6,59.6 0 0 0 9.64,11.1 57.53,57.53 0 0 0 38.55,14.85 z m 17.29,96.68 a 69,69 0 0 0 -49.18,20.57 v 0 a 70.64,70.64 0 0 0 -20.62,50 v 0 0.26 a 70.63,70.63 0 0 0 67.66,70 c 1.08,0.07 1.94,0.07 2.42,0.07 a 68.79,68.79 0 0 0 48,-19.7 v -0.05 a 71.27,71.27 0 0 0 21.57,-50.26 v -0.3 0 a 70.63,70.63 0 0 0 -20.74,-50.16 68.85,68.85 0 0 0 -49.1,-20.53 z"
         id="path32" /><path
         d="m 1545.59,130.93 7.18,27.73 c -2.69,3.28 -5,6.13 -7.18,8.89 -2.36,3 -3.6,7.33 -0.08,10.5 a 6.35,6.35 0 0 0 4.28,1.69 8,8 0 0 0 5.62,-2.61 c 12,-12.38 21.76,-23 30.61,-33.3 6.93,-8.12 14.45,-10.55 21,-10.55 a 29.08,29.08 0 0 1 7.88,1.13 l 46.44,13.23 28.81,8.25 -2.84,22.56 -7.74,2.88 c -1.88,0.73 -3.8,1.41 -5.69,2.09 -4,1.48 -7.85,2.84 -11.54,4.37 -4.16,1.76 -6,5 -4.84,8.77 a 6.23,6.23 0 0 0 6,4.68 7.81,7.81 0 0 0 2,-0.27 c 8,-2.09 15.87,-4.57 24.16,-7.17 7.33,-2.33 15,-4.69 22.6,-6.82 a 29.14,29.14 0 0 1 7.42,-0.93 c 6,0 12.45,1.7 16.94,6 12.5,12.06 24.84,24.61 36.74,36.75 3.85,3.92 7.66,7.81 11.5,11.7 l 7.82,7.89 -13.17,19.61 -8.69,-1.48 c -1.6,-0.24 -3.21,-0.52 -4.81,-0.76 -3.36,-0.6 -6.57,-1.16 -9.78,-1.6 a 21.76,21.76 0 0 0 -3,-0.23 c -7.07,0 -7.76,4.25 -8,6 -1,5.77 7.29,8 9,8.37 l 9.62,2.2 c 11.54,2.65 23.48,5.37 35.18,8.34 6.21,1.6 14.26,6.33 16.59,14.5 5.13,18 9.93,36.23 14.66,53.9 l 4,14.94 3,11.34 -21.91,9.5 -6.45,-5.57 -4.33,-3.73 c -3,-2.68 -5.93,-5.21 -8.9,-7.53 a 9.09,9.09 0 0 0 -5.4,-2.27 6,6 0 0 0 -4.61,2.35 c -3,3.37 -2.73,6.69 0.84,10.18 5.29,5.21 10.9,10.37 16.3,15.42 6.22,5.69 12.63,11.62 18.76,17.75 5.37,5.33 9.69,15.19 7.61,23.68 -4.17,16.95 -8.86,33.94 -13.38,50.41 -1.49,5.29 -2.93,10.58 -4.37,15.87 l -2.77,10.18 -23.16,-0.28 -5,-13 c -1.25,-3.24 -2.53,-6.49 -3.73,-9.77 -2.4,-6.49 -5.09,-7.88 -7.2,-7.88 a 7.3,7.3 0 0 0 -2.5,0.54 c -1.84,0.6 -6.13,2.17 -3.44,11.22 1.6,5.41 3.24,10.78 4.89,16.19 2.8,9.18 5.73,18.67 8.37,28.17 1.8,6.53 1.8,16.35 -4.13,22.56 -12.86,13.42 -26.12,26.76 -39,39.63 -3.77,3.76 -7.54,7.53 -11.26,11.3 l -9.06,9.09 -17.83,-15.67 2.36,-12.9 c 0.73,-3.8 1.45,-7.65 2.17,-11.5 0.72,-3.85 -0.32,-8.41 -4.29,-9.45 a 11.43,11.43 0 0 0 -2.59,-0.34 5.35,5.35 0 0 0 -2.82,0.7 c -1.6,0.92 -2.84,3 -3.56,6 -1.69,6.85 -3.29,13.94 -4.81,20.79 -1.85,8.26 -3.77,16.79 -5.93,25.25 -1.45,5.49 -6.29,15.5 -15.67,18.27 -17,5 -34.42,9.61 -51.25,14.06 l -15.42,4.09 -10.7,2.84 -10.78,-21.31 5.69,-6.9 c 1.12,-1.36 2.24,-2.68 3.4,-4 2.41,-2.89 4.77,-5.61 7,-8.46 1.16,-1.48 4.68,-6.69 0.44,-10.74 a 6.16,6.16 0 0 0 -4.31,-1.76 8.54,8.54 0 0 0 -6,2.89 l -1,1.08 c -9.74,10.1 -19.76,20.51 -28.57,31.29 -6,7.3 -13.32,11 -22,11 a 35.7,35.7 0 0 1 -8.53,-1.09 l -6.7,-1.56 c -7.21,-1.69 -14.66,-3.41 -22.07,-5.73 -8.22,-2.61 -16.23,-5.57 -24.77,-8.7 -3.76,-1.44 -7.73,-2.88 -11.9,-4.41 l -0.2,-25.56 c 2.57,-1 4.93,-1.84 7.14,-2.68 4.36,-1.61 8.13,-3 11.7,-4.49 3.12,-1.28 6.57,-3.85 5.24,-8.74 a 6.13,6.13 0 0 0 -6.16,-4.82 8.86,8.86 0 0 0 -2.37,0.34 c -7.21,1.88 -14.26,4.12 -21.76,6.53 -7.81,2.44 -15.9,5 -24.16,7.17 a 28.12,28.12 0 0 1 -7,0.84 c -6.59,0 -13.93,-2 -18.87,-6.77 -12.06,-11.54 -23.8,-23.64 -35.14,-35.34 -3.85,-4 -7.74,-8 -11.58,-11.9 l -7.14,-7.29 11.3,-20.28 13.55,2.12 c 3.16,0.48 6.29,1 9.45,1.53 a 25.21,25.21 0 0 0 4,0.35 c 7.09,0 7.88,-4.16 8.22,-5.88 1,-5.49 -6.37,-7.82 -9.57,-8.54 l -8.78,-2 c -11.54,-2.61 -23.44,-5.33 -35.14,-8.5 -6.81,-1.8 -15.22,-7.61 -17.59,-16 -4.89,-17.19 -9.37,-34.7 -13.74,-51.61 -1.36,-5.25 -2.73,-10.54 -4.09,-15.75 l -2.8,-10.82 20.91,-10.25 10.78,9.05 c 2.93,2.44 5.81,4.89 8.78,7.25 2.77,2.27 4.91,3 6.55,3 a 5.45,5.45 0 0 0 4.22,-2.17 c 1.53,-1.64 4.69,-5.12 -1.88,-11.46 -5.09,-4.84 -10.38,-9.77 -15.51,-14.5 -6.2,-5.57 -12.37,-11.3 -18.37,-17.1 -3.32,-3.25 -10.73,-11.78 -8.33,-21.64 4.45,-18 9.38,-36.22 14.14,-53.77 1.37,-5.09 2.73,-10.14 4.13,-15.23 l 3.37,-12.58 24,5.29 2.48,7.17 c 0.64,1.85 1.28,3.73 1.89,5.57 1.28,3.81 2.48,7.38 3.88,10.7 1.69,3.93 4,4.82 5.82,4.82 a 7.63,7.63 0 0 0 2.52,-0.49 c 4.12,-1.4 5.69,-4.57 4.4,-8.9 -1.8,-6.37 -3.76,-12.82 -5.73,-19.07 -2.72,-8.89 -5.57,-18.15 -8,-27.41 -1.88,-7 -1.12,-17.63 5,-24.08 12.22,-12.86 25,-25.52 37.26,-37.74 3.93,-3.89 7.82,-7.77 11.74,-11.7 l 8.42,-8.42 18.55,14.15 -2.28,13.1 c -0.69,3.85 -1.33,7.65 -2,11.46 -0.48,2.57 -1,8.66 4.37,9.9 a 12.45,12.45 0 0 0 2.66,0.39 c 2.31,0 4.75,-1.26 6.24,-7.2 1.76,-7.18 3.4,-14.59 5,-21.72 1.73,-7.61 3.49,-15.47 5.41,-23.24 1.65,-6.45 5.21,-14.79 13.07,-17.95 a 255.42,255.42 0 0 1 67.31,-16.75 c 2.4,-0.28 4.81,-0.52 7.25,-0.72 m 4.19,76 a 33.78,33.78 0 0 1 -32,-44.37 214.69,214.69 0 0 0 -33.14,9.82 c -0.08,0.16 -0.12,0.36 -0.2,0.56 -1.84,7.49 -3.61,15.19 -5.29,22.68 -1.64,7.25 -3.33,14.78 -5.17,22.2 -4.3,17.43 -17,27.86 -32.77,27.86 a 38.74,38.74 0 0 1 -8.54,-1 32.47,32.47 0 0 1 -24.84,-24.48 c -8,8 -16.07,16.11 -23.88,24.24 v 0 c 2.36,8.78 5.12,17.71 7.77,26.33 2,6.37 4,12.94 5.89,19.55 5.29,18.43 -3.93,36.22 -21.92,42.27 a 35.52,35.52 0 0 1 -11.32,1.9 32.22,32.22 0 0 1 -23.5,-10.11 c -3,11 -5.89,22.12 -8.65,33.18 5.69,5.53 11.7,11.06 17.47,16.43 5.21,4.8 10.57,9.81 15.82,14.82 15.15,14.59 16.47,34.9 3.17,49.49 a 32.49,32.49 0 0 1 -24.29,11 34.23,34.23 0 0 1 -9.93,-1.5 c 2.85,11.06 5.81,22.28 8.94,33.3 10.93,2.88 22.31,5.49 33.29,8 3,0.68 5.89,1.37 8.86,2 21.36,4.93 33.78,21.47 30.21,40.23 -2.68,14.22 -12.3,23.88 -25.56,27 7.93,8.1 16,16.23 24.08,24 a 5.72,5.72 0 0 0 1,0.1 h 0.3 c 7.49,-2 14.83,-4.28 22.64,-6.73 7.41,-2.36 15.14,-4.81 23,-6.89 a 35.64,35.64 0 0 1 9.18,-1.21 33.64,33.64 0 0 1 32.62,24.95 33.28,33.28 0 0 1 -10,34.22 c 1.61,0.56 3.17,1.08 4.73,1.56 6.41,2 13,3.57 20,5.21 2.32,0.52 4.6,1 6.89,1.6 a 9.21,9.21 0 0 0 2.12,0.32 5.31,5.31 0 0 0 0.92,-1 c 9.5,-11.66 20,-22.52 30,-33 l 1,-1.09 a 35.72,35.72 0 0 1 25.73,-11.21 33.27,33.27 0 0 1 23.07,9.25 33.63,33.63 0 0 1 9.06,34.06 c 11,-2.93 22.11,-6 33.05,-9.14 2,-7.93 3.89,-16.18 5.69,-24.2 1.56,-7 3.21,-14.22 5,-21.39 2.48,-10.14 8,-18 16,-22.8 a 32.44,32.44 0 0 1 16.81,-4.55 37.71,37.71 0 0 1 9.27,1.18 33.07,33.07 0 0 1 23.92,24.28 c 8,-8 16.07,-16.27 24,-24.44 -2.48,-8.85 -5.28,-17.91 -8,-26.69 -1.64,-5.44 -3.32,-10.93 -5,-16.38 -6,-20.32 2.25,-38.31 20.6,-44.76 a 35.28,35.28 0 0 1 11.73,-2.07 31.67,31.67 0 0 1 23.61,10.68 c 3,-11 6,-22.31 8.81,-33.45 -5.77,-5.73 -11.9,-11.38 -17.83,-16.87 -5.61,-5.17 -11.38,-10.54 -17,-16 -13.94,-13.74 -14.82,-33.34 -2.12,-47.68 a 33.19,33.19 0 0 1 25,-11.51 33.87,33.87 0 0 1 9.36,1.33 c -2.93,-11 -5.93,-22.2 -9.06,-33.18 -10.85,-2.72 -22,-5.29 -32.73,-7.77 l -9.74,-2.2 c -20.55,-4.77 -32.78,-21 -29.69,-39.43 a 33.15,33.15 0 0 1 25.68,-27.61 c -8.09,-8.21 -16.34,-16.51 -24.64,-24.48 h -0.16 c -7,1.92 -14.3,4.25 -21.4,6.45 -8.25,2.61 -16.74,5.29 -25.4,7.53 a 35.24,35.24 0 0 1 -9,1.18 33.18,33.18 0 0 1 -31.94,-24.06 33.66,33.66 0 0 1 9.06,-34.41 c -10.94,-3.13 -22,-6.26 -32.9,-9.34 a 4.1,4.1 0 0 0 -0.8,0.84 c -9.26,10.78 -19.31,21.76 -31.74,34.58 A 35,35 0 0 1 1549.78,207 m 17.29,144.68 a 45.11,45.11 0 0 1 32.1,13.46 46.81,46.81 0 0 1 13.74,33.23 46.81,46.81 0 0 0 -13.74,-33.23 45,45 0 0 0 -64.27,0 46.75,46.75 0 0 0 -13.67,33.15 46.75,46.75 0 0 1 13.67,-33.15 45.13,45.13 0 0 1 32.17,-13.5 m 0,0 a 45.11,45.11 0 0 1 32.1,13.46 46.81,46.81 0 0 1 13.74,33.23 46.81,46.81 0 0 0 -13.74,-33.23 45,45 0 0 0 -64.27,0 46.75,46.75 0 0 0 -13.67,33.15 46.75,46.75 0 0 1 13.67,-33.15 45.13,45.13 0 0 1 32.17,-13.5 m 0,0 a 45.11,45.11 0 0 1 32.1,13.46 46.81,46.81 0 0 1 13.74,33.23 v 0.15 a 47.1,47.1 0 0 1 -14.31,33.21 44.78,44.78 0 0 1 -31.29,12.95 c -0.36,0 -0.76,0 -1.16,0 -24.64,-0.64 -44.8,-21.36 -44.92,-46.16 v -0.15 a 46.75,46.75 0 0 1 13.67,-33.15 45.13,45.13 0 0 1 32.17,-13.5 m -18.55,46.48 v 0.16 a 19.17,19.17 0 0 0 18.35,19.07 h 0.55 a 17.41,17.41 0 0 0 12.19,-5.26 19.51,19.51 0 0 0 6,-13.78 v -0.08 a 19.5,19.5 0 0 0 -5.77,-13.87 18,18 0 0 0 -12.78,-5.49 18.18,18.18 0 0 0 -12.86,5.49 19.44,19.44 0 0 0 -5.69,13.75 m 18.55,-19.24 a 18,18 0 0 1 12.78,5.49 19.5,19.5 0 0 1 5.77,13.87 v 0 a 19.5,19.5 0 0 0 -5.77,-13.87 18,18 0 0 0 -12.78,-5.49 18.18,18.18 0 0 0 -12.86,5.49 19.44,19.44 0 0 0 -5.69,13.75 19.44,19.44 0 0 1 5.69,-13.75 18.18,18.18 0 0 1 12.86,-5.49 m 0,0 a 18,18 0 0 1 12.78,5.49 19.5,19.5 0 0 1 5.77,13.87 v 0 a 19.5,19.5 0 0 0 -5.77,-13.87 18,18 0 0 0 -12.78,-5.49 18.18,18.18 0 0 0 -12.86,5.49 19.44,19.44 0 0 0 -5.69,13.75 19.44,19.44 0 0 1 5.69,-13.75 18.18,18.18 0 0 1 12.86,-5.49 m -18.55,19.24 v 0.16 a 19.17,19.17 0 0 0 18.35,19.07 h 0.55 a 17.41,17.41 0 0 0 12.19,-5.26 19.51,19.51 0 0 0 6,-13.78 19.51,19.51 0 0 1 -6,13.78 17.41,17.41 0 0 1 -12.19,5.26 h -0.55 a 19.17,19.17 0 0 1 -18.35,-19.07 v -0.16 m 0,0 v 0.16 a 19.17,19.17 0 0 0 18.35,19.07 h 0.55 a 17.41,17.41 0 0 0 12.19,-5.26 19.51,19.51 0 0 0 6,-13.78 19.51,19.51 0 0 1 -6,13.78 17.41,17.41 0 0 1 -12.19,5.26 h -0.55 a 19.17,19.17 0 0 1 -18.35,-19.07 v -0.16 m -27.29,0.17 v 0.15 c 0.12,24.8 20.28,45.52 44.92,46.16 0.4,0 0.8,0 1.16,0 a 44.78,44.78 0 0 0 31.29,-12.95 47.1,47.1 0 0 0 14.31,-33.21 v 0 a 47.1,47.1 0 0 1 -14.31,33.21 44.78,44.78 0 0 1 -31.29,12.95 c -0.36,0 -0.76,0 -1.16,0 -24.64,-0.64 -44.8,-21.36 -44.92,-46.16 v -0.15 m 0,0 v 0.15 c 0.12,24.8 20.28,45.52 44.92,46.16 0.4,0 0.8,0 1.16,0 a 44.78,44.78 0 0 0 31.29,-12.95 47.1,47.1 0 0 0 14.31,-33.21 v 0 a 47.1,47.1 0 0 1 -14.31,33.21 44.78,44.78 0 0 1 -31.29,12.95 c -0.36,0 -0.76,0 -1.16,0 -24.64,-0.64 -44.8,-21.36 -44.92,-46.16 v -0.15 m 24.37,-271.35 h -0.33 c -2.47,0.2 -4.89,0.44 -7.39,0.74 a 259.6,259.6 0 0 0 -68.34,17 c -7.43,3 -12.77,10.15 -15.45,20.68 -1.8,7.27 -3.45,14.58 -5,21.65 l -0.39,1.7 -1.31,5.75 c -1.2,5.25 -2.44,10.67 -3.72,15.89 -0.31,1.24 -1.17,4.16 -2.35,4.16 a 9.35,9.35 0 0 1 -1.78,-0.29 c -1.92,-0.45 -1.65,-3.49 -1.32,-5.26 0.52,-2.72 1,-5.48 1.47,-8.15 0.19,-1.11 0.39,-2.23 0.58,-3.35 l 2.29,-13.11 a 4,4 0 0 0 -1.52,-3.87 l -18.55,-14.15 a 4,4 0 0 0 -5.25,0.36 l -8.42,8.41 v 0.05 c -3.82,3.82 -7.78,7.77 -11.68,11.64 -12.32,12.23 -25,24.88 -37.35,37.83 -7.26,7.59 -8.26,19.47 -6,27.87 2.44,9.09 5.21,18.13 7.89,26.88 l 0.2,0.66 c 2.25,7.18 4.12,13.38 5.71,19 0.76,2.6 -0.06,3.41 -1.85,4 a 4,4 0 0 1 -1.23,0.28 c -0.92,0 -1.67,-1.3 -2.14,-2.4 -1.34,-3.17 -2.52,-6.68 -3.77,-10.39 -0.55,-1.67 -1.17,-3.51 -1.9,-5.61 l -2.48,-7.17 a 4,4 0 0 0 -2.92,-2.59 l -24,-5.29 a 3.69,3.69 0 0 0 -0.87,-0.1 4,4 0 0 0 -3.86,3 l -3.36,12.58 c -1.23,4.44 -2.5,9.14 -4.13,15.23 -4.26,15.67 -9.56,35.2 -14.16,53.85 -2.9,11.85 5.62,21.75 9.42,25.45 5,4.88 10.19,9.7 15.19,14.36 l 3,2.78 c 5.86,5.4 10.92,10.13 15.47,14.47 2.12,2 2.81,3.54 2.75,4.25 a 3.37,3.37 0 0 1 -1,1.6 l -0.08,0.08 c -0.54,0.62 -0.81,0.8 -1.21,0.8 -0.4,0 -1.7,-0.2 -4,-2.1 v 0 c -2.38,-1.9 -4.77,-3.9 -7.08,-5.84 l -1.62,-1.36 -10.77,-9.05 a 4,4 0 0 0 -2.58,-0.93 4,4 0 0 0 -1.76,0.4 l -20.91,10.26 a 4,4 0 0 0 -2.11,4.6 l 2.8,10.82 q 1.36,5.19 2.71,10.45 l 1.38,5.29 0.89,3.45 c 4.08,15.82 8.31,32.18 12.87,48.25 2.8,9.92 12.55,16.68 20.42,18.76 11.65,3.15 23.34,5.84 35.28,8.53 l 3.07,0.72 5.68,1.32 c 3.41,0.76 6.84,2.38 6.55,3.89 -0.29,1.51 -0.52,2.63 -4.29,2.63 a 20.81,20.81 0 0 1 -3.31,-0.3 l -1.17,-0.19 c -2.72,-0.45 -5.53,-0.92 -8.33,-1.34 l -13.53,-2.12 a 4.21,4.21 0 0 0 -0.62,0 4,4 0 0 0 -3.49,2 L 1339,546.58 a 4,4 0 0 0 0.63,4.74 l 7.14,7.29 c 3.71,3.79 7.43,7.63 11.56,11.89 10.77,11.11 23,23.7 35.25,35.45 5.23,5 13.11,7.88 21.64,7.88 a 31.7,31.7 0 0 0 8,-1 c 7.8,-2.05 15.42,-4.43 22.79,-6.74 l 1.56,-0.49 c 8,-2.57 14.7,-4.68 21.57,-6.47 a 5.19,5.19 0 0 1 1.36,-0.21 2.17,2.17 0 0 1 2.3,1.87 c 0.26,0.94 0.68,2.52 -2.9,4 -3.58,1.48 -7.53,3 -11.56,4.43 v 0 c -1.75,0.67 -3.61,1.36 -5.58,2.1 l -1.53,0.58 a 4,4 0 0 0 -2.6,3.77 l 0.2,25.57 a 4,4 0 0 0 2.63,3.72 l 1.07,0.39 c 3.78,1.38 7.36,2.69 10.77,4 h 0.06 l 1.67,0.61 c 8,2.92 15.5,5.68 23.26,8.14 7.37,2.31 14.71,4 21.81,5.68 l 0.57,0.13 6.69,1.56 a 39.85,39.85 0 0 0 9.44,1.2 c 9.91,0 18.35,-4.19 25.1,-12.46 8.86,-10.84 19.21,-21.57 28.35,-31 l 1,-1.09 a 4.76,4.76 0 0 1 3.15,-1.66 2.19,2.19 0 0 1 1.54,0.65 c 1.61,1.54 0.44,3.78 -0.82,5.39 -1.58,2 -3.23,4 -5,6.07 l -1.92,2.29 c -1,1.19 -2.23,2.61 -3.42,4.06 l -5.69,6.89 a 4,4 0 0 0 -0.48,4.35 l 10.78,21.32 a 4,4 0 0 0 3.57,2.19 4.1,4.1 0 0 0 1,-0.13 l 10.69,-2.85 7.7,-2 7.73,-2 c 15.87,-4.2 33.86,-9 51.35,-14.1 10.29,-3 16.35,-13.25 18.41,-21.09 2.14,-8.39 4,-16.79 6,-25.39 1.4,-6.3 3.07,-13.69 4.79,-20.71 0.59,-2.38 1.41,-3.3 1.68,-3.46 h 0.08 a 1.7,1.7 0 0 1 0.74,-0.11 7.74,7.74 0 0 1 1.62,0.22 c 1.53,0.45 1.63,3.14 1.32,4.86 -0.71,3.82 -1.43,7.66 -2.16,11.47 l -2.36,12.92 a 4,4 0 0 0 1.29,3.73 l 17.83,15.67 a 4,4 0 0 0 2.64,1 4,4 0 0 0 2.84,-1.18 l 9,-9.09 c 3.72,-3.76 7.54,-7.58 11.23,-11.27 12.66,-12.66 26.13,-26.21 39.07,-39.71 7.09,-7.43 7.18,-18.86 5.1,-26.4 -2.47,-8.86 -5.18,-17.7 -7.79,-26.26 l -0.62,-2 -0.94,-3.1 c -1.3,-4.27 -2.65,-8.69 -3.94,-13 -0.91,-3.08 -0.8,-4.9 -0.39,-5.58 0.2,-0.32 0.57,-0.48 1.24,-0.7 h 0.12 a 3.84,3.84 0 0 1 1.14,-0.31 c 0.42,0 1.85,0.95 3.45,5.26 0.85,2.34 1.76,4.69 2.64,7 0.37,0.95 0.74,1.91 1.1,2.86 l 5,13 a 4,4 0 0 0 3.69,2.55 l 23.16,0.29 v 0 a 4,4 0 0 0 3.85,-3 l 2.77,-10.17 c 1.41,-5.18 2.87,-10.55 4.36,-15.84 l 0.45,-1.62 c 4.38,-16 8.92,-32.46 13,-48.91 2.56,-10.42 -2.7,-21.55 -8.68,-27.48 -6.32,-6.32 -13,-12.53 -18.86,-17.86 l -2.66,-2.47 c -4.51,-4.2 -9.17,-8.54 -13.55,-12.85 -2.45,-2.4 -1.85,-3.34 -0.66,-4.67 0.89,-1 1.43,-1 1.63,-1 a 5.47,5.47 0 0 1 2.92,1.41 c 2.85,2.23 5.64,4.67 8.73,7.39 l 2.53,2.18 1.83,1.58 6.45,5.57 a 4,4 0 0 0 4.21,0.64 l 21.91,-9.5 a 4,4 0 0 0 2.28,-4.69 l -3,-11.34 q -1,-3.75 -2,-7.5 l -2,-7.45 c -0.79,-2.93 -1.57,-5.87 -2.36,-8.83 -4,-14.81 -8,-30.12 -12.33,-45.13 -2.77,-9.77 -12.2,-15.42 -19.43,-17.28 -11.31,-2.87 -22.82,-5.51 -34,-8.06 l -1.33,-0.3 -9.47,-2.48 c -2.6,-0.62 -6.18,-2.22 -5.92,-3.82 0.24,-1.4 0.44,-2.61 4.1,-2.61 a 17.94,17.94 0 0 1 2.51,0.19 c 3.14,0.43 6.34,1 9.62,1.58 h 0.11 c 0.78,0.11 1.57,0.24 2.35,0.37 l 2.42,0.38 8.65,1.48 a 5.19,5.19 0 0 0 0.68,0.05 4,4 0 0 0 3.33,-1.78 l 13.06,-19.63 a 4,4 0 0 0 -0.49,-5 l -7.81,-7.9 c -3.77,-3.8 -7.58,-7.69 -11.26,-11.45 l -0.23,-0.23 c -12.33,-12.58 -24.42,-24.87 -36.82,-36.83 -6.45,-6.21 -15.13,-7.14 -19.72,-7.14 a 33.12,33.12 0 0 0 -8.46,1.07 c -7.9,2.19 -15.61,4.59 -22.77,6.86 l -1,0.31 c -7.92,2.48 -15.39,4.83 -23,6.81 a 4,4 0 0 1 -1,0.14 2.33,2.33 0 0 1 -2.14,-1.82 c -0.21,-0.7 -0.77,-2.54 2.57,-3.95 3.08,-1.27 6.3,-2.45 9.71,-3.69 l 1.65,-0.61 1.16,-0.41 c 1.5,-0.55 3.06,-1.1 4.58,-1.69 l 7.7,-2.87 a 4,4 0 0 0 2.57,-3.25 L 1694,156.4 a 4,4 0 0 0 -2.87,-4.34 l -28.81,-8.26 -23.2,-6.61 -23.12,-6.62 a 32.81,32.81 0 0 0 -9,-1.29 c -9.17,0 -17.25,4 -24,11.95 -9,10.47 -18.68,21 -30.44,33.11 a 4,4 0 0 1 -2.75,1.4 2.34,2.34 0 0 1 -1.6,-0.66 c -1.66,-1.49 -0.62,-3.57 0.55,-5.06 2.15,-2.75 4.46,-5.57 7.12,-8.83 a 4,4 0 0 0 0.78,-3.54 l -7.17,-27.72 a 4,4 0 0 0 -3.87,-3 z m 4.18,84 a 38.86,38.86 0 0 0 28.1,-12 c 11.91,-12.29 21.78,-23 31,-33.68 l 24.43,6.93 a 37.81,37.81 0 0 0 -5.73,33.46 37.33,37.33 0 0 0 35.77,26.9 39.52,39.52 0 0 0 10,-1.31 c 8.66,-2.24 17.15,-4.92 25.35,-7.51 l 0.24,-0.07 2.9,-0.91 c 5.39,-1.68 11,-3.41 16.29,-4.93 6.36,6.16 12.68,12.47 18.42,18.27 -11.9,5 -20,15.38 -22.25,28.74 -3.44,20.62 10,38.7 32.74,44 l 9.75,2.21 1.69,0.39 c 9.44,2.19 19.18,4.44 28.72,6.8 2.37,8.4 4.68,16.93 6.76,24.73 a 38.18,38.18 0 0 0 -3.85,-0.2 37.08,37.08 0 0 0 -28,12.86 c -14.18,16 -13.23,37.87 2.31,53.18 5.78,5.66 11.63,11.09 17.08,16.12 l 1,0.95 c 5,4.65 10.2,9.44 15.12,14.26 -1.89,7.55 -4,15.75 -6.52,24.86 a 35.23,35.23 0 0 0 -21.47,-7.33 39.45,39.45 0 0 0 -13.05,2.29 c -10.06,3.54 -17.57,10.21 -21.75,19.29 -4.18,9.08 -4.59,19.47 -1.36,30.38 0.82,2.75 1.66,5.48 2.49,8.21 0.83,2.73 1.66,5.47 2.48,8.2 l 1,3.09 c 2.14,7 4.36,14.23 6.38,21.31 -5.86,6.06 -11.83,12.16 -17.82,18.22 a 36.49,36.49 0 0 0 -24.61,-20.81 41.87,41.87 0 0 0 -10.25,-1.3 36.58,36.58 0 0 0 -18.87,5.12 c -8.92,5.35 -15.08,14.09 -17.81,25.27 -1.92,7.78 -3.67,15.57 -5,21.48 l -0.27,1.17 c -1.53,6.84 -3.12,13.89 -4.83,20.7 -7.69,2.21 -15.8,4.46 -24.57,6.82 a 37.63,37.63 0 0 0 -37.3,-41.79 39.56,39.56 0 0 0 -28.62,12.44 l -1,1.08 c -9.4,9.74 -20,20.76 -29.61,32.42 -2.28,-0.55 -4.53,-1.06 -6.62,-1.53 -6.06,-1.42 -12.35,-2.9 -18.4,-4.72 a 37.05,37.05 0 0 0 6.64,-33.44 37.51,37.51 0 0 0 -36.51,-27.78 40,40 0 0 0 -10.21,1.34 c -7.69,2.06 -15.34,4.46 -23.15,7 l -1.58,0.5 c -6.76,2.11 -13.16,4.12 -19.62,5.85 -6.28,-6.09 -12.53,-12.36 -18.2,-18.12 11.57,-4.89 19.65,-15 22.11,-28 a 35.68,35.68 0 0 0 -6.49,-28.44 c -6,-8 -15.51,-13.84 -26.75,-16.43 h -0.06 c -2.45,-0.53 -4.95,-1.11 -7.36,-1.66 l -1.44,-0.34 -1,-0.23 c -9.89,-2.27 -20.1,-4.62 -30,-7.17 -2.07,-7.37 -4.23,-15.4 -6.67,-24.78 a 36.29,36.29 0 0 0 31.69,-12.08 37.42,37.42 0 0 0 10.12,-27.68 c -0.64,-9.9 -5.42,-19.62 -13.47,-27.37 -4.7,-4.48 -9.89,-9.34 -15.89,-14.88 l -3,-2.82 c -4.21,-3.91 -8.54,-7.93 -12.71,-11.94 1.88,-7.48 4,-15.49 6.42,-24.69 a 36,36 0 0 0 21.29,6.89 39.67,39.67 0 0 0 12.59,-2.1 c 20.1,-6.76 30.4,-26.6 24.49,-47.17 -2,-7 -4.12,-13.83 -5.91,-19.63 l -0.46,-1.5 c -2.27,-7.4 -4.62,-15 -6.69,-22.54 5.37,-5.57 11.21,-11.51 17.71,-18 a 36.25,36.25 0 0 0 25.69,21 43.21,43.21 0 0 0 9.42,1.07 c 17.91,0 32,-11.84 36.65,-30.9 1.65,-6.63 3.17,-13.36 4.65,-19.87 l 0.54,-2.41 c 1.33,-5.9 3.06,-13.53 4.91,-21.1 a 204.88,204.88 0 0 1 24.48,-7.53 37.79,37.79 0 0 0 37.32,42.96 z m 17.29,136.68 a 49.12,49.12 0 0 0 -35,14.68 50.77,50.77 0 0 0 -14.83,36 v 0 0.16 c 0.13,26.91 22,49.37 48.68,50.14 0.53,0.05 1,0.05 1.4,0.05 a 48.94,48.94 0 0 0 34.08,-14.07 51.19,51.19 0 0 0 15.52,-36.07 v -0.16 0 A 50.77,50.77 0 0 0 1602,362.27 49,49 0 0 0 1567.07,347.63 Z m -10.62,40.18 c 0.2,-0.21 0.4,-0.43 0.6,-0.63 a 14.18,14.18 0 0 1 10,-4.31 13.94,13.94 0 0 1 9.94,4.31 15.53,15.53 0 0 1 4.61,11.05 v 0.06 a 15.54,15.54 0 0 1 -4.79,10.93 13.39,13.39 0 0 1 -9.41,4.13 H 1567 a 15.14,15.14 0 0 1 -14.49,-15.09 v -0.14 a 15.47,15.47 0 0 1 3.93,-10.3 z"
         id="path33" /><path
         class="logo-cls-3"
         d="m 1802,438.78 c -5.77,-5.73 -11.9,-11.38 -17.83,-16.87 -5.61,-5.17 -11.38,-10.54 -17,-16 -13.94,-13.74 -14.82,-33.34 -2.12,-47.68 A 33.08,33.08 0 0 1 1799.47,348 c -2.93,-11 -5.93,-22.2 -9.06,-33.18 -10.85,-2.72 -22,-5.29 -32.73,-7.77 l -9.74,-2.2 c -20.55,-4.77 -32.78,-21 -29.69,-39.43 a 33.15,33.15 0 0 1 25.68,-27.61 c -8.09,-8.21 -16.34,-16.51 -24.64,-24.48 h -0.16 c -7,1.92 -14.3,4.25 -21.4,6.45 -8.25,2.61 -16.74,5.29 -25.4,7.53 a 33.28,33.28 0 0 1 -40.95,-22.88 33.66,33.66 0 0 1 9.06,-34.41 c -10.94,-3.13 -22,-6.26 -32.9,-9.34 a 4.1,4.1 0 0 0 -0.8,0.84 c -9.26,10.78 -19.31,21.76 -31.74,34.58 -13.1,13.54 -34,14.5 -47.72,2.2 a 33.42,33.42 0 0 1 -9.53,-35.74 214.69,214.69 0 0 0 -33.14,9.82 c -0.08,0.16 -0.12,0.36 -0.2,0.56 -1.84,7.49 -3.61,15.19 -5.29,22.68 -1.64,7.25 -3.33,14.78 -5.17,22.2 -5,20.47 -21.68,31.29 -41.31,26.88 a 32.47,32.47 0 0 1 -24.84,-24.48 c -8,8 -16.07,16.11 -23.88,24.24 v 0 c 2.36,8.78 5.12,17.71 7.77,26.33 2,6.37 4,12.94 5.89,19.55 5.29,18.43 -3.93,36.22 -21.92,42.27 -13,4.37 -26,1 -34.82,-8.21 -3,11 -5.89,22.12 -8.65,33.18 5.69,5.53 11.7,11.06 17.47,16.43 5.21,4.8 10.58,9.81 15.82,14.82 15.15,14.59 16.47,34.9 3.17,49.49 a 32.48,32.48 0 0 1 -34.22,9.53 c 2.85,11.06 5.81,22.28 8.94,33.3 10.93,2.88 22.31,5.49 33.29,8 3,0.68 5.89,1.37 8.86,2 21.36,4.93 33.78,21.47 30.21,40.23 -2.68,14.22 -12.3,23.88 -25.56,27 7.93,8.1 16,16.23 24.08,24 a 4.88,4.88 0 0 0 1.28,0.08 c 7.49,-2 14.83,-4.28 22.64,-6.73 7.41,-2.36 15.14,-4.81 23,-6.89 18.47,-4.89 36.82,5.49 41.83,23.64 a 33.28,33.28 0 0 1 -10,34.22 c 1.61,0.56 3.17,1.08 4.73,1.56 6.41,2 13,3.57 20,5.21 2.32,0.52 4.6,1 6.89,1.6 a 9.21,9.21 0 0 0 2.12,0.32 5.31,5.31 0 0 0 0.92,-1 c 9.5,-11.66 20,-22.52 30,-33 l 1,-1.09 c 13.62,-14.14 35.06,-15 48.8,-2 a 33.63,33.63 0 0 1 9.06,34.06 c 11,-2.93 22.11,-6 33.05,-9.14 2,-7.93 3.89,-16.18 5.69,-24.2 1.56,-7 3.21,-14.22 5,-21.39 2.48,-10.14 8,-18 16,-22.8 7.53,-4.53 16.79,-5.73 26.08,-3.37 a 33.07,33.07 0 0 1 23.92,24.28 c 8,-8 16.07,-16.27 24,-24.44 -2.48,-8.85 -5.28,-17.91 -8,-26.69 -1.64,-5.44 -3.32,-10.93 -5,-16.38 -6,-20.32 2.25,-38.31 20.6,-44.76 13.38,-4.69 26.28,-1.24 35.34,8.61 3,-11 6,-22.31 8.81,-33.45 z m -203.43,-7.1 a 44.78,44.78 0 0 1 -31.29,12.95 c -0.36,0 -0.76,0 -1.16,0 -24.64,-0.64 -44.8,-21.36 -44.92,-46.16 a 46.82,46.82 0 0 1 13.66,-33.3 45.06,45.06 0 0 1 64.28,0 46.54,46.54 0 0 1 -0.57,66.59 z"
         id="path34" /></g></g></svg>
